<?xml version="1.0" encoding="utf-8"?>
<!-- Generator: Adobe Illustrator 26.0.2, SVG Export Plug-In . SVG Version: 6.00 Build 0)  -->
<svg version="1.1" id="Capa_1" xmlns="http://www.w3.org/2000/svg" xmlns:xlink="http://www.w3.org/1999/xlink" x="0px" y="0px"
	 viewBox="0 0 27.8 27.3" style="enable-background:new 0 0 27.8 27.3;" xml:space="preserve">
<style type="text/css">
	.st0{fill:#727271;}
	.st1{fill:#333333;}
	.st2{fill:#5C5C5C;}
	.st3{fill:#929292;}
</style>
<g>
	<path class="st0" d="M13.9,8.1c-5.3,0-10.4,6.3-10.4,11.3c0,3.2,3.2,6.5,10.4,6.5c7.5,0,10.3-3.8,10.3-6.2
		C24.2,14.8,19,8.1,13.9,8.1z"/>
	<path class="st1" d="M13.9,27.4c-8.2,0-11.9-4-11.9-8C2,13.7,7.6,6.6,13.9,6.6c6,0,11.8,7.5,11.8,13.1
		C25.7,22.6,22.5,27.4,13.9,27.4z M13.9,8.1c-5.3,0-10.4,6.3-10.4,11.3c0,3.2,3.2,6.5,10.4,6.5c7.5,0,10.3-3.8,10.3-6.2
		C24.2,14.8,19,8.1,13.9,8.1z"/>
	<path class="st2" d="M13.9,17.2c-0.2,0-0.4,0-0.6,0c3.5,0.1,6.2,1.4,6.2,3c0,1.7-3.1,3-6.9,3c-3.8,0-6.9-1.4-6.9-3
		c0-0.1,0-0.1,0-0.2c-0.1,0.3-0.2,0.5-0.2,0.8c0,2,3.7,3.7,8.3,3.7c4.6,0,8.3-1.7,8.3-3.7S18.5,17.2,13.9,17.2z"/>
	<path class="st3" d="M10.6,11.9c-0.3,0-0.7-0.2-0.9-0.5c-0.3-0.5-0.1-1.1,0.3-1.4c0.5-0.3,1.1-0.1,1.4,0.3c0.3,0.5,0.2,1.1-0.3,1.4
		l-0.1,0C10.9,11.9,10.8,11.9,10.6,11.9z"/>
	<path class="st3" d="M4.7,17.5c0.6-2,1.7-3.6,3-5.2c0.9-1,2.4,0.3,1.5,1.3C8.1,14.7,7.2,16.4,7,18c-0.1,0.6-0.7,1.1-1.3,1
		C4.9,18.9,4.4,18.1,4.7,17.5L4.7,17.5z"/>
</g>
</svg>
