<?xml version="1.0" encoding="utf-8"?>
<!-- Generator: Adobe Illustrator 26.0.2, SVG Export Plug-In . SVG Version: 6.00 Build 0)  -->
<svg version="1.1" id="Capa_1" xmlns="http://www.w3.org/2000/svg" xmlns:xlink="http://www.w3.org/1999/xlink" x="0px" y="0px"
	 viewBox="0 0 27.8 27.3" style="enable-background:new 0 0 27.8 27.3;" xml:space="preserve">
<style type="text/css">
	.st0{fill:#727271;}
	.st1{fill:#333333;}
	.st2{fill:#5C5C5C;}
	.st3{fill:#929292;}
</style>
<g>
	<path class="st0" d="M13.9,1.3c-1.3,0-2.2,0.4-2.9,1.1c-1.4,1.4-2.1,4.4-2.1,9.4c0,4.5-0.8,6.2-1.5,7.5c-0.5,1.1-0.9,1.8-0.6,3.6
		c0.4,3,4.1,3.3,6.9,3.3l0.3,0c5.7,0,7.1-1.8,7.3-3.3c0.2-1.7-0.2-2.4-0.8-3.4c-0.8-1.4-1.8-3.3-1.9-8.3C18.3,3.7,17.1,1.3,13.9,1.3
		z"/>
	<path class="st1" d="M13.1,27.3c-2.2,0-7-0.2-7.5-4.2c-0.3-2.2,0.2-3.2,0.8-4.3c0.6-1.3,1.4-2.8,1.4-7c0-5.5,0.7-8.6,2.4-10.3
		c0.9-1,2.2-1.4,3.8-1.4c5.1,0,5.6,5.2,5.7,11c0.1,4.8,1,6.4,1.8,7.8C22,20,22.5,21,22.3,23l0,0c-0.2,2-1.9,4.3-8.4,4.3l-0.3,0
		C13.4,27.3,13.3,27.3,13.1,27.3z M13.9,1.3c-1.3,0-2.2,0.4-2.9,1.1c-1.4,1.4-2.1,4.4-2.1,9.4c0,4.5-0.8,6.2-1.5,7.5
		c-0.5,1.1-0.9,1.8-0.6,3.6c0.4,3,4.1,3.3,6.9,3.3l0.3,0c5.7,0,7.1-1.8,7.3-3.3c0.2-1.7-0.2-2.4-0.8-3.4c-0.8-1.4-1.8-3.3-1.9-8.3
		C18.3,3.7,17.1,1.3,13.9,1.3z"/>
	<path class="st2" d="M13.9,20.5c-0.2,0-0.3,0-0.5,0c2.5,0.1,4.5,0.9,4.5,1.9c0,1-2.2,1.9-5,1.9c-2.8,0-5-0.8-5-1.9c0,0,0-0.1,0-0.1
		c-0.1,0.2-0.2,0.3-0.2,0.5c0,1.3,2.7,2.3,6.1,2.3c3.3,0,6.1-1,6.1-2.3S17.2,20.5,13.9,20.5z"/>
	<path class="st3" d="M12.2,5.1c-0.3,0-0.7-0.2-0.9-0.5c-0.3-0.5-0.1-1.1,0.3-1.4c0.5-0.3,1.1-0.1,1.4,0.3c0.3,0.5,0.2,1.1-0.3,1.4
		l-0.1,0C12.6,5.1,12.4,5.1,12.2,5.1z"/>
	<path class="st3" d="M9,16.8c0.8-3.4,0.1-6.7,0.8-10.2c0.3-1.3,2.2-0.9,2,0.4c-0.4,1.5-0.3,3.1-0.2,4.9c0.1,1.7,0,3.5-0.2,5.3
		c-0.1,0.6-0.7,1.1-1.3,1C9.4,18.2,8.9,17.5,9,16.8L9,16.8z"/>
</g>
</svg>
