<svg xmlns="http://www.w3.org/2000/svg" viewBox="0 0 18.06 25.36"><defs><style>.cls-1{fill:#727271;}.cls-2{fill:#333;}.cls-3{fill:#929292;}</style></defs><g id="Capa_2" data-name="Capa 2"><g id="Capa_2-2" data-name="Capa 2"><path class="cls-1" d="M10.43,23.85A8.22,8.22,0,0,1,1.5,15.59c0-5,4.65,1.6,8.93,1.91S15.26,23.58,10.43,23.85Z"/><path class="cls-2" d="M2.44,13.71c1.58,0,4.88,3.56,8,3.79,4.27.31,4.83,6.08,0,6.35H9.91A8.19,8.19,0,0,1,1.5,15.59c0-1.38.35-1.88.94-1.88m0-1.5h0c-.73,0-2.44.33-2.44,3.38a9.73,9.73,0,0,0,9.91,9.77l.6,0c3.32-.18,4.82-2.38,4.84-4.47A5,5,0,0,0,10.54,16c-1.38-.1-3.07-1.21-4.43-2.11s-2.54-1.68-3.67-1.68Z"/><path class="cls-1" d="M9.93,6c-2.19,1.54-5.09,2.14-5.5.19-.18-.91,1.16-4,3.56-4.64S12.12,4.49,9.93,6Z"/><path class="cls-2" d="M8.57,1.5A2.54,2.54,0,0,1,9.93,6,7.22,7.22,0,0,1,6.17,7.45,1.57,1.57,0,0,1,4.43,6.22c-.18-.91,1.16-4,3.56-4.64a2.38,2.38,0,0,1,.58-.08m0-1.5h0a3.76,3.76,0,0,0-1,.14C4.59,1,2.59,4.71,3,6.53A3.05,3.05,0,0,0,6.17,9a8.53,8.53,0,0,0,4.62-1.7,3.82,3.82,0,0,0,1.44-4.39A3.92,3.92,0,0,0,8.57,0Z"/><circle class="cls-1" cx="16.46" cy="13.27" r="0.68"/><path class="cls-2" d="M16.46,12.59a.69.69,0,1,1-.69.68.69.69,0,0,1,.69-.68m0-.92a1.6,1.6,0,1,0,1.6,1.6,1.6,1.6,0,0,0-1.6-1.6Z"/><path class="cls-3" d="M8.94,3.11a.45.45,0,0,1-.32-.31.47.47,0,0,1,.31-.57.47.47,0,0,1,.58.31.44.44,0,0,1-.29.56h0A.53.53,0,0,1,8.94,3.11Z"/><path class="cls-3" d="M5.71,4.86a7.58,7.58,0,0,1,1.91-2,.45.45,0,1,1,.52.74A4.24,4.24,0,0,0,6.66,5.36a.54.54,0,0,1-.7.3.55.55,0,0,1-.25-.8Z"/><path class="cls-3" d="M3.38,16a.74.74,0,0,1-.57.44A.73.73,0,0,1,2,15.85.76.76,0,0,1,2.59,15a.72.72,0,0,1,.83.59v.05A.73.73,0,0,1,3.38,16Z"/><path class="cls-3" d="M5.43,21.56a12.13,12.13,0,0,1-2.7-3.48A.73.73,0,1,1,4,17.42a6.71,6.71,0,0,0,2.39,2.75.86.86,0,1,1-1,1.39Z"/></g></g></svg>