<svg width="416" height="65" fill="none" xmlns="http://www.w3.org/2000/svg">
  <path d="M0 5.158A4.158 4.158 0 0 1 4.158 1h76.167l9.301.518L99.772 1h312.07A4.157 4.157 0 0 1 416 5.158V51.97c0 1.321-1.185 2.403-1.594 3.66-.51 1.568 1.594 3.013 1.594 4.662v.224a4.157 4.157 0 0 1-4.158 4.158H4.158A4.158 4.158 0 0 1 0 60.517V5.157Z" fill="url(#a)"/>
  <rect x="5" y="5.975" width="405" height="53.726" rx="4.158" fill="url(#b)"/>
  <path d="M2.548 29.785c6.602-4.189 7.018 6.727 12.074 14.602 5.056 7.874 25.772 12.34 17.248 18.627-20.252.895-24.992 4.937-29.869-1.987A2.842 2.842 0 0 1 1.5 59.51C1.03 48.99.296 31.213 2.548 29.785Z" fill="#4D4646" fill-opacity=".22" style="mix-blend-mode:soft-light"/>
  <path d="M6.739 42.346c3.609-2.29 3.836 3.678 6.6 7.982s14.088 6.746 9.429 10.183c-10.76.475-13.51 2.576-16.104-.782-.333-.431-.49-.966-.515-1.51-.256-5.787-.615-15.109.59-15.873Z" fill="#4D4646" fill-opacity=".22" style="mix-blend-mode:soft-light"/>
  <path d="M407.509 26.087c-3.708 2.128-3.668-3.843-6.237-8.265-2.569-4.422-13.772-7.361-8.964-10.589 11.433 0 13.931-2.228 16.5 2.195 0 5.682 0 15.914-1.299 16.66Z" fill="#fff" fill-opacity=".22" style="mix-blend-mode:soft-light"/>
  <path opacity=".9" d="M404.067 8.869c-.233.78-.794.173-1.636-.079-.842-.251-1.645-.052-1.412-.832.233-.78 1.105-1.209 1.946-.957.842.251 1.336 1.088 1.102 1.868ZM406.864 16.15c-1.532.526-1.169-.98-1.699-2.504-.53-1.523-1.752-2.485-.22-3.012a2.94 2.94 0 0 1 3.734 1.804 2.914 2.914 0 0 1-1.815 3.712Z" fill="#fff" fill-opacity=".78"/>
  <path d="M146.013 42.514c-1.12 0-2.16-.167-3.12-.5a10.363 10.363 0 0 1-2.6-1.32c-.76-.56-1.427-1.16-2-1.8l2-3.18c.173.453.46.886.86 1.3.413.413.893.78 1.44 1.1.546.32 1.12.573 1.72.76.613.186 1.213.28 1.8.28.88 0 1.58-.14 2.1-.42.52-.294.78-.68.78-1.16 0-.374-.12-.68-.36-.92a2.534 2.534 0 0 0-.8-.6c-.294-.16-.547-.3-.76-.42-.16-.08-.454-.2-.88-.36-.414-.174-.88-.36-1.4-.56-.52-.2-1.014-.387-1.48-.56-.467-.187-.834-.34-1.1-.46-1.987-.894-2.98-2.274-2.98-4.14 0-.6.113-1.187.34-1.76.24-.587.6-1.12 1.08-1.6.48-.48 1.093-.86 1.84-1.14.746-.28 1.64-.42 2.68-.42 1.133 0 2.14.126 3.02.38.88.24 1.653.546 2.32.92.68.373 1.26.766 1.74 1.18l-1.84 3.08c-1.48-1.467-3.154-2.2-5.02-2.2-.787 0-1.387.086-1.8.26-.4.16-.674.346-.82.56-.134.2-.2.366-.2.5 0 .226.08.453.24.68.173.226.553.466 1.14.72.24.106.56.24.96.4.413.146.866.313 1.36.5.506.186 1 .386 1.48.6.493.2.94.406 1.34.62.48.266.973.593 1.48.98.506.386.933.866 1.28 1.44.36.56.54 1.246.54 2.06 0 .493-.094 1.04-.28 1.64-.187.586-.514 1.153-.98 1.7-.467.546-1.114.993-1.94 1.34-.827.346-1.887.52-3.18.52Zm14.201-.02c-.8 0-1.433-.174-1.9-.52-.467-.334-.807-.8-1.02-1.4-.213-.6-.353-1.287-.42-2.06a35.728 35.728 0 0 1-.08-2.44c0-.88.033-1.794.1-2.74-.893.12-1.753.273-2.58.46l-.62-3.14a23.526 23.526 0 0 1 3.54-.64c.093-.68.193-1.394.3-2.14.107-.76.227-1.56.36-2.4l3.44.3c-.16.693-.3 1.386-.42 2.08-.12.68-.227 1.34-.32 1.98.747 0 1.447.02 2.1.06.667.026 1.28.08 1.84.16l-.4 3.14a16.705 16.705 0 0 0-1.46-.1c-.493-.027-.993-.04-1.5-.04-.307 0-.613.006-.92.02-.08.973-.133 1.806-.16 2.5-.013.693-.02 1.186-.02 1.48 0 .733.04 1.26.12 1.58.093.32.24.48.44.48.227 0 .48-.074.76-.22.28-.16.553-.374.82-.64.28-.267.513-.554.7-.86l1.54 3.22c-1.32 1.253-2.733 1.88-4.24 1.88Zm10.758 0c-1 0-1.906-.26-2.72-.78a5.548 5.548 0 0 1-1.94-2.06c-.466-.88-.7-1.86-.7-2.94 0-1.014.187-1.927.56-2.74a6.436 6.436 0 0 1 1.52-2.12 6.88 6.88 0 0 1 2.22-1.34 7.143 7.143 0 0 1 2.6-.48c.76 0 1.507.106 2.24.32.054-.28.1-.56.14-.84l3.42.58c-.093.253-.186.633-.28 1.14a23.05 23.05 0 0 0-.24 1.7 91.33 91.33 0 0 0-.14 1.88c-.04.626-.06 1.193-.06 1.7 0 .413.027.82.08 1.22.067.386.2.706.4.96.2.24.507.36.92.36h.28l-.5 3.48c-.88 0-1.606-.154-2.18-.46a3.663 3.663 0 0 1-1.38-1.2c-.573.64-1.226 1.066-1.96 1.28a7.675 7.675 0 0 1-2.28.34Zm-2.08-5.38c.067.64.327 1.153.78 1.54.467.373 1.054.56 1.76.56.68 0 1.247-.18 1.7-.54.454-.374.827-.88 1.12-1.52-.013-.214-.02-.434-.02-.66 0-.467.014-.947.04-1.44.027-.494.06-.98.1-1.46a4.898 4.898 0 0 0-1.76-.32c-.72 0-1.366.146-1.94.44-.56.28-1 .673-1.32 1.18-.32.506-.48 1.093-.48 1.76v.24c0 .08.007.153.02.22Zm11.551 5.36a141.614 141.614 0 0 0 .16-6.6c-.014-.987-.034-1.96-.06-2.92a64.187 64.187 0 0 0-.1-2.82l3.36-.1c.013.493.033 1 .06 1.52a5.17 5.17 0 0 1 1.48-1.28c.573-.334 1.226-.5 1.96-.5.28 0 .64.04 1.08.12.44.08.886.233 1.34.46l-.38 3.38a3.45 3.45 0 0 0-1.08-.42 4.008 4.008 0 0 0-.94-.14c-.854 0-1.58.386-2.18 1.16-.587.76-.987 1.82-1.2 3.18 0 .933-.014 1.826-.04 2.68-.014.84-.047 1.6-.1 2.28h-3.36Zm16.099.02c-.8 0-1.433-.174-1.9-.52-.467-.334-.807-.8-1.02-1.4-.213-.6-.353-1.287-.42-2.06a35.728 35.728 0 0 1-.08-2.44c0-.88.033-1.794.1-2.74-.893.12-1.753.273-2.58.46l-.62-3.14a23.526 23.526 0 0 1 3.54-.64c.093-.68.193-1.394.3-2.14.107-.76.227-1.56.36-2.4l3.44.3c-.16.693-.3 1.386-.42 2.08-.12.68-.227 1.34-.32 1.98.747 0 1.447.02 2.1.06.667.026 1.28.08 1.84.16l-.4 3.14a16.705 16.705 0 0 0-1.46-.1c-.493-.027-.993-.04-1.5-.04-.307 0-.613.006-.92.02-.08.973-.133 1.806-.16 2.5-.013.693-.02 1.186-.02 1.48 0 .733.04 1.26.12 1.58.093.32.24.48.44.48.227 0 .48-.074.76-.22.28-.16.553-.374.82-.64.28-.267.513-.554.7-.86l1.54 3.22c-1.32 1.253-2.733 1.88-4.24 1.88Zm16.589-.12c-1.32 0-2.367-.114-3.14-.34-.774-.227-1.347-.547-1.72-.96-.374-.4-.62-.874-.74-1.42a9.59 9.59 0 0 1-.16-1.8c0-1.067.026-2.287.08-3.66.066-1.374.146-2.847.24-4.42.106-1.587.22-3.227.34-4.92l3.64.36a99.558 99.558 0 0 0-.36 3.16 157.294 157.294 0 0 0-.4 5.88l-.1 2.08c-.014.546-.02.9-.02 1.06 0 .466.053.82.16 1.06.106.226.32.38.64.46.32.08.786.12 1.4.12.773 0 1.646-.047 2.62-.14.973-.107 1.96-.26 2.96-.46s1.913-.44 2.74-.72l.78 3.44c-.907.226-1.887.433-2.94.62-1.04.186-2.08.333-3.12.44-1.04.106-2.007.16-2.9.16Zm16.361.14c-1.28 0-2.406-.254-3.38-.76a5.586 5.586 0 0 1-2.26-2.08c-.533-.894-.8-1.927-.8-3.1 0-.707.12-1.447.36-2.22a6.73 6.73 0 0 1 1.16-2.2c.534-.68 1.234-1.234 2.1-1.66.88-.427 1.947-.64 3.2-.64.907 0 1.667.1 2.28.3.627.2 1.134.46 1.52.78.4.32.7.66.9 1.02.214.36.354.706.42 1.04.08.32.12.586.12.8 0 1.293-.546 2.293-1.64 3-1.08.693-2.613 1.04-4.6 1.04-.453 0-.886-.02-1.3-.06-.4-.04-.773-.087-1.12-.14.254.666.674 1.16 1.26 1.48.587.306 1.194.46 1.82.46.907 0 1.707-.16 2.4-.48.694-.334 1.347-.84 1.96-1.52l1.78 2.56a24.87 24.87 0 0 1-1.44 1.08c-.52.373-1.16.68-1.92.92-.76.253-1.7.38-2.82.38Zm.44-9.66c-.786 0-1.48.2-2.08.6-.6.4-1.04.926-1.32 1.58.334.053.66.1.98.14.334.026.66.04.98.04.294 0 .627-.027 1-.08.387-.054.76-.134 1.12-.24.374-.107.68-.24.92-.4.24-.174.36-.374.36-.6 0-.107-.053-.24-.16-.4-.106-.16-.3-.307-.58-.44-.28-.134-.686-.2-1.22-.2Zm13.03 9.62c-.547 0-1.02-.16-1.42-.48-.4-.32-.747-.714-1.04-1.18-.294-.467-.554-.92-.78-1.36-.414-.84-.807-1.76-1.18-2.76-.374-1-.7-2.04-.98-3.12a28.157 28.157 0 0 1-.64-3.2l3.62-.52c.106 1.24.273 2.406.5 3.5a21.56 21.56 0 0 0 .8 2.92c.306.853.62 1.546.94 2.08.066.093.126.186.18.28l.1.14c.026 0 .133-.14.32-.42.586-1.027 1.133-2.227 1.64-3.6.506-1.374.946-3.034 1.32-4.98l3.52.7a101.86 101.86 0 0 1-.96 3.28c-.294.92-.58 1.726-.86 2.42-.28.693-.56 1.32-.84 1.88-.28.546-.574 1.08-.88 1.6-.2.36-.46.76-.78 1.2-.307.44-.674.82-1.1 1.14a2.4 2.4 0 0 1-1.48.48Zm14.558.04c-1.28 0-2.407-.254-3.38-.76a5.58 5.58 0 0 1-2.26-2.08c-.534-.894-.8-1.927-.8-3.1 0-.707.12-1.447.36-2.22.24-.787.626-1.52 1.16-2.2.533-.68 1.233-1.234 2.1-1.66.88-.427 1.946-.64 3.2-.64.906 0 1.666.1 2.28.3.626.2 1.133.46 1.52.78.4.32.7.66.9 1.02.213.36.353.706.42 1.04.08.32.12.586.12.8 0 1.293-.547 2.293-1.64 3-1.08.693-2.614 1.04-4.6 1.04-.454 0-.887-.02-1.3-.06-.4-.04-.774-.087-1.12-.14.253.666.673 1.16 1.26 1.48a3.88 3.88 0 0 0 1.82.46c.906 0 1.706-.16 2.4-.48.693-.334 1.346-.84 1.96-1.52l1.78 2.56a25.58 25.58 0 0 1-1.44 1.08c-.52.373-1.16.68-1.92.92-.76.253-1.7.38-2.82.38Zm.44-9.66c-.787 0-1.48.2-2.08.6-.6.4-1.04.926-1.32 1.58.333.053.66.1.98.14.333.026.66.04.98.04.293 0 .626-.027 1-.08a7.62 7.62 0 0 0 1.12-.24c.373-.107.68-.24.92-.4.24-.174.36-.374.36-.6 0-.107-.054-.24-.16-.4-.107-.16-.3-.307-.58-.44-.28-.134-.687-.2-1.22-.2Zm11.189 9.64c-.733 0-1.34-.16-1.82-.48-.467-.307-.84-.734-1.12-1.28a7.384 7.384 0 0 1-.6-1.88c-.12-.707-.2-1.46-.24-2.26a73.54 73.54 0 0 1-.04-2.44c0-.707.02-1.48.06-2.32.04-.854.087-1.714.14-2.58.067-.88.133-1.707.2-2.48.08-.774.153-1.447.22-2.02l3.62.04c-.107.68-.207 1.453-.3 2.32-.093.853-.173 1.72-.24 2.6-.053.88-.1 1.693-.14 2.44a52.612 52.612 0 0 0 .02 4.64c.053.693.127 1.186.22 1.48.107.28.247.42.42.42.227 0 .473-.14.74-.42.267-.294.527-.62.78-.98l1.7 3.38a7.602 7.602 0 0 1-1.48 1.24c-.573.386-1.287.58-2.14.58Z" fill="#fff"/>
  <defs>
    <radialGradient id="a" cx="0" cy="0" r="1" gradientUnits="userSpaceOnUse" gradientTransform="matrix(302.699 0 0 46.3325 208 32.837)">
      <stop offset=".284" stop-color="#5CA132"/>
      <stop offset="1" stop-color="#6EB52C"/>
    </radialGradient>
    <linearGradient id="b" x1="538.51" y1="-18.564" x2="521.686" y2="121.682" gradientUnits="userSpaceOnUse">
      <stop stop-color="#19642D"/>
      <stop offset=".264" stop-color="#5CA132"/>
      <stop offset="1" stop-color="#19642D"/>
    </linearGradient>
  </defs>
</svg>
