<svg xmlns="http://www.w3.org/2000/svg" viewBox="0 0 65.52 65.44"><defs><style>.cls-1{fill:#514d3b;}.cls-2{fill:#373428;}.cls-3{fill:#726e5f;}.cls-4{fill:#635f4d;}</style></defs><g id="Capa_2" data-name="Capa 2"><g id="Capa_3" data-name="Capa 3"><rect class="cls-1" width="65.52" height="21.83"/><rect class="cls-2" y="21.83" width="65.52" height="43.61"/><path class="cls-3" d="M26.15,4.55h10.5l.12,0a2.13,2.13,0,0,0-2.12-2H24.15a2.15,2.15,0,0,0-2.06,2.77l3,9.92a2.12,2.12,0,0,0,1.85,1.5L24.09,7.32A2.15,2.15,0,0,1,26.15,4.55Z"/><path class="cls-3" d="M4.48,6.86A2.14,2.14,0,0,1,6.62,4.71H17.11a1.43,1.43,0,0,1,.22,0l-.17-.54a2.15,2.15,0,0,0-2.05-1.5H4.62A2.14,2.14,0,0,0,2.48,4.86V16.94a2.14,2.14,0,0,0,2,2.13s0-.08,0-.13Z"/><path class="cls-3" d="M35.27,17.61,44.81,5.53a2.15,2.15,0,0,1,1.69-.82H62.77a2.14,2.14,0,0,0-2.13-2H44.5a2.15,2.15,0,0,0-1.69.82L33.27,15.61a2.14,2.14,0,0,0,1.55,3.46A2.08,2.08,0,0,1,35.27,17.61Z"/><path class="cls-2" d="M36.65,4.55H33.93l-7.08,9.36a2,2,0,0,1-.6.53l.69,2.3a2.07,2.07,0,0,0,1.91-.83L36.36,6a2.1,2.1,0,0,0,.41-1.42Z"/><path class="cls-4" d="M26.85,13.91l7.08-9.36H26.15a2.15,2.15,0,0,0-2.06,2.77l2.16,7.12A2,2,0,0,0,26.85,13.91Z"/><path class="cls-2" d="M21,16.29,17.33,4.75a1.43,1.43,0,0,0-.22,0H16l3,9.58a2.15,2.15,0,0,1-2,2.8H4.48v1.85s0,.09,0,.13l.13,0H19A2.15,2.15,0,0,0,21,16.29Z"/><path class="cls-4" d="M19,14.29,16,4.71H6.62A2.14,2.14,0,0,0,4.48,6.86V17.09H17A2.15,2.15,0,0,0,19,14.29Z"/><path class="cls-2" d="M62.77,4.72h-2V14.94a2.14,2.14,0,0,1-2.14,2.15h-23l-.41.52a2.08,2.08,0,0,0-.45,1.46l.13,0H60.64a2.14,2.14,0,0,0,2.14-2.15V4.86C62.78,4.81,62.77,4.77,62.77,4.72Z"/><path class="cls-4" d="M60.78,14.94V4.71H46.5a2.15,2.15,0,0,0-1.69.82L35.68,17.09h23A2.14,2.14,0,0,0,60.78,14.94Z"/><circle class="cls-2" cx="57.06" cy="8.36" r="2.48"/><circle class="cls-2" cx="58.3" cy="13.11" r="1.24"/><circle class="cls-2" cx="12.89" cy="9.14" r="2.48"/><circle class="cls-2" cx="15.34" cy="13.4" r="1.24"/><circle class="cls-2" cx="26.35" cy="6.36" r="1.24"/></g></g></svg>