<svg xmlns="http://www.w3.org/2000/svg" viewBox="0 0 7.3 21.44"><defs><style>.cls-1{fill:#6eb52c;}.cls-2{fill:#063;}.cls-3{fill:#b8d373;}</style></defs><g id="Capa_2" data-name="Capa 2"><g id="Capa_2-2" data-name="Capa 2"><circle class="cls-1" cx="2.87" cy="1.6" r="0.68"/><path class="cls-2" d="M2.87.92a.68.68,0,0,1,0,1.36.68.68,0,1,1,0-1.36m0-.92a1.6,1.6,0,1,0,1.6,1.6A1.6,1.6,0,0,0,2.87,0Z"/><ellipse class="cls-1" cx="3.65" cy="18.16" rx="2.15" ry="1.78"/><path class="cls-2" d="M3.65,16.38A2,2,0,0,1,5.8,18.16a2,2,0,0,1-2.15,1.78A2,2,0,0,1,1.5,18.16a2,2,0,0,1,2.15-1.78m0-1.5A3.48,3.48,0,0,0,0,18.16a3.48,3.48,0,0,0,3.65,3.28A3.48,3.48,0,0,0,7.3,18.16a3.48,3.48,0,0,0-3.65-3.28Z"/><path class="cls-3" d="M2.75,18.09a.47.47,0,0,1-.33-.31.45.45,0,0,1,.31-.56.46.46,0,0,1,.58.3.44.44,0,0,1-.29.56H3A.49.49,0,0,1,2.75,18.09Z"/></g></g></svg>