<svg xmlns="http://www.w3.org/2000/svg" viewBox="0 0 65.52 65.52"><defs><style>.cls-1{fill:#999882;}.cls-2{fill:#dddcc5;}.cls-3{fill:#a0a08f;}.cls-4{fill:#bfbfac;}.cls-5{fill:#19642d;opacity:0.6;}</style></defs><g id="Capa_2" data-name="Capa 2"><g id="Capa_3" data-name="Capa 3"><rect class="cls-1" width="65.52" height="65.52"/><path class="cls-2" d="M4.47,37.26a2.33,2.33,0,0,1,3.09-2.2l12.57,4.35a1.79,1.79,0,0,1,.24.12l-1.65-2.11a2.35,2.35,0,0,0-1-.74L5.48,32.47a2.26,2.26,0,0,0-3,2.13V58a5,5,0,0,0,2.06,4,4.93,4.93,0,0,1-.07-.66Z"/><path class="cls-3" d="M22.24,41.92l-1.87-2.39a1.79,1.79,0,0,0-.24-.12l-.4-.14.51.65A2.27,2.27,0,0,1,20.61,42L15.15,59.45A2.24,2.24,0,0,1,13,61H5.52a5.2,5.2,0,0,1-1-.12v.47a4.93,4.93,0,0,0,.07.66,5,5,0,0,0,3,1H15a2.24,2.24,0,0,0,2.15-1.58L22.61,44A2.27,2.27,0,0,0,22.24,41.92Z"/><path class="cls-4" d="M13,61a2.24,2.24,0,0,0,2.15-1.58L20.61,42a2.27,2.27,0,0,0-.37-2.06l-.51-.65L7.56,35.06a2.33,2.33,0,0,0-3.09,2.2V60.91a5.2,5.2,0,0,0,1,.12Z"/><path class="cls-2" d="M55.14,5.4a2.31,2.31,0,0,1,1.68-.72h3.75A5.15,5.15,0,0,1,62.34,5,5,5,0,0,0,58,2.48H54.35a2.3,2.3,0,0,0-1.63.7L40.16,16.35A2.26,2.26,0,0,0,41,20l.55.19a2.25,2.25,0,0,1,.6-1.25Z"/><path class="cls-3" d="M62.34,5A5.3,5.3,0,0,0,61,4.72a5.29,5.29,0,0,1,.07.8v17a2.25,2.25,0,0,1-3,2.13L42.09,19.1a2.3,2.3,0,0,0-.5,1.13L60,26.68a2.25,2.25,0,0,0,3-2.13v-17A5,5,0,0,0,62.34,5Z"/><path class="cls-4" d="M61,22.55v-17a5.29,5.29,0,0,0-.07-.8c-.13,0-.25,0-.39,0H56.82a2.31,2.31,0,0,0-1.68.72L42.19,19l-.1.12L58,24.68A2.25,2.25,0,0,0,61,22.55Z"/><path class="cls-2" d="M9.67,4.68H45.09a2.24,2.24,0,0,0-2.24-2.2H7.52a5,5,0,0,0-5,5V25.79A2.25,2.25,0,0,0,4,27.92l.47.16V9.87A5.2,5.2,0,0,1,9.67,4.68Z"/><path class="cls-3" d="M42.11,4.68,17.93,30a2.28,2.28,0,0,1-2.37.58L4.47,26.77v1.31l13.09,4.53A2.28,2.28,0,0,0,19.93,32L44.48,6.29a2.18,2.18,0,0,0,.61-1.61Z"/><path class="cls-4" d="M17.93,30,42.11,4.68H9.67a5.2,5.2,0,0,0-5.2,5.19v16.9l11.09,3.84A2.28,2.28,0,0,0,17.93,30Z"/><path class="cls-2" d="M23.9,62.29,27,52.48a2.3,2.3,0,0,1,2.27-1.61l-.77-1a2.26,2.26,0,0,0-3.93.71l-3,9.52A2.25,2.25,0,0,0,23.72,63h.09A2.72,2.72,0,0,1,23.9,62.29Z"/><path class="cls-3" d="M35.92,59.39l-6.68-8.52a1.93,1.93,0,0,0-.41,0l5.09,6.49A2.25,2.25,0,0,1,32.14,61H24.3l-.4,1.26a2.72,2.72,0,0,0-.09.74H34.14A2.25,2.25,0,0,0,35.92,59.39Z"/><path class="cls-4" d="M33.92,57.39,28.83,50.9A2.28,2.28,0,0,0,27,52.48L24.3,61h7.84A2.25,2.25,0,0,0,33.92,57.39Z"/><path class="cls-2" d="M24.84,36.64,35.69,25.27a2.33,2.33,0,0,1,2.45-.59L63,33.39v0a2.25,2.25,0,0,0-1.51-2.13L36.23,22.39a2.26,2.26,0,0,0-2.38.57L23.33,34a2.25,2.25,0,0,0-.15,2.95l1,1.31A2.26,2.26,0,0,1,24.84,36.64Z"/><path class="cls-3" d="M61,32.69V56a5,5,0,0,1-5,5H42.71a2.3,2.3,0,0,1-.78-.15l1,1.29a2.27,2.27,0,0,0,1.77.86H58a5,5,0,0,0,5-5V33.39Z"/><path class="cls-4" d="M56,61a5,5,0,0,0,5-5V32.69l-22.89-8a2.33,2.33,0,0,0-2.45.59L24.84,36.64a2.26,2.26,0,0,0-.63,1.61L41.93,60.88a2.3,2.3,0,0,0,.78.15Z"/><circle class="cls-3" cx="56.06" cy="55.61" r="2.48"/><circle class="cls-3" cx="57.3" cy="50.86" r="1.24"/><circle class="cls-3" cx="56.73" cy="19.75" r="2.48"/><circle class="cls-3" cx="57.98" cy="15" r="1.24"/><circle class="cls-3" cx="16.27" cy="25.5" r="2.48"/><circle class="cls-3" cx="20.05" cy="22.36" r="1.24"/><circle class="cls-3" cx="11.89" cy="56.83" r="2.48"/><circle class="cls-3" cx="14.34" cy="52.57" r="1.24"/><circle class="cls-3" cx="31.35" cy="58.61" r="1.24"/><path class="cls-5" d="M43.33,43.26a2.43,2.43,0,0,1,.24-2.47,6.35,6.35,0,0,0,1-5.36c-.75-3.18-3.44-5.27-6-4.66s-4,3.68-3.3,6.86A6.34,6.34,0,0,0,38.54,42a2.46,2.46,0,0,1,1.32,2.11c0,.13,0,.26.07.4a2.05,2.05,0,0,0,2.27,1.76,2.06,2.06,0,0,0,1.25-2.59A2.22,2.22,0,0,0,43.33,43.26Z"/><circle class="cls-5" cx="29.24" cy="43.66" r="3.14"/><ellipse class="cls-5" cx="25.29" cy="57.17" rx="2.57" ry="1.6" transform="translate(-36.68 65.41) rotate(-73.71)"/><path class="cls-5" d="M48.14,15.36a5.71,5.71,0,0,1-.06-6.19,13.91,13.91,0,0,0,2.14-7.38A13.23,13.23,0,0,0,50.09,0H15a13.23,13.23,0,0,0-.13,1.79,14.16,14.16,0,0,0,3,8.66,5.81,5.81,0,0,1,.75,5.65,15.46,15.46,0,0,0-1,4.44c-.45,7,3.71,12.87,9.3,13.24s10.49-5,10.95-11.91q0-.54,0-1.08c0-2.16-.38-5.79,2.89-5.26s1.42,2.35,2,4.81C43.89,25,46,25.7,48.48,24.86c1.27-.43,2.72-2.71,2.05-5.32A13.34,13.34,0,0,0,48.14,15.36Z"/></g></g></svg>