<svg xmlns="http://www.w3.org/2000/svg" viewBox="0 0 65.52 65.52"><defs><style>.cls-1{fill:#127c79;}.cls-2{fill:#b3ddde;}.cls-3{fill:#3dafaf;}.cls-4{fill:#099696;}</style></defs><g id="Capa_2" data-name="Capa 2"><g id="Capa_3" data-name="Capa 3"><rect class="cls-1" width="65.52" height="65.52"/><path class="cls-2" d="M5.48,4.23H34.39a2.46,2.46,0,0,0-2.28-1.57h-27A2.45,2.45,0,0,0,2.66,5.11v8a2.46,2.46,0,0,0,1.57,2.28V5.48A1.25,1.25,0,0,1,5.48,4.23Z"/><path class="cls-3" d="M32.11,15.58a2.45,2.45,0,0,0,2.45-2.45v-8a2.6,2.6,0,0,0-.17-.88H5.48A1.25,1.25,0,0,0,4.23,5.48v9.93a2.6,2.6,0,0,0,.88.17Z"/><path class="cls-2" d="M41.25,4.23H62.68A2.44,2.44,0,0,0,60.4,2.66H40.93a2.45,2.45,0,0,0-2.45,2.45V24.46A2.43,2.43,0,0,0,40,26.73V5.44A1.21,1.21,0,0,1,41.25,4.23Z"/><path class="cls-3" d="M60.4,26.91a2.45,2.45,0,0,0,2.45-2.45V5.11a2.38,2.38,0,0,0-.17-.88H41.25A1.21,1.21,0,0,0,40,5.44V26.73a2.4,2.4,0,0,0,.89.18Z"/><path class="cls-3" d="M23.15,55.18H34.39a2.46,2.46,0,0,0-2.28-1.57H22.87a2.45,2.45,0,0,0-2.45,2.45V60.4A2.43,2.43,0,0,0,22,62.68V56.34A1.16,1.16,0,0,1,23.15,55.18Z"/><path class="cls-4" d="M32.11,62.85a2.45,2.45,0,0,0,2.45-2.45V56.06a2.6,2.6,0,0,0-.17-.88H23.15A1.16,1.16,0,0,0,22,56.34v6.34a2.34,2.34,0,0,0,.88.17Z"/><path class="cls-3" d="M40,43.72H38.48V60.4a2.43,2.43,0,0,0,1.69,2.32A2.56,2.56,0,0,1,40,62Z"/><path class="cls-4" d="M60.4,62.85a2.44,2.44,0,0,0,2.45-2.45V43.72H40V62a2.56,2.56,0,0,0,.13.75,2.38,2.38,0,0,0,.76.13Z"/><path class="cls-2" d="M41.4,32.39H62.68a2.44,2.44,0,0,0-2.28-1.57H40.93a2.45,2.45,0,0,0-2.45,2.45V43.72H40v-10A1.36,1.36,0,0,1,41.4,32.39Z"/><path class="cls-3" d="M62.85,33.27a2.38,2.38,0,0,0-.17-.88H41.4A1.36,1.36,0,0,0,40,33.74v10H62.85Z"/><path class="cls-2" d="M5.55,21.07H34.39a2.45,2.45,0,0,0-2.28-1.57h-27A2.45,2.45,0,0,0,2.66,22V43.72H4.23V22.38A1.32,1.32,0,0,1,5.55,21.07Z"/><path class="cls-3" d="M34.56,22a2.55,2.55,0,0,0-.17-.88H5.55a1.32,1.32,0,0,0-1.32,1.31V43.72H34.56Z"/><path class="cls-3" d="M4.23,43.72H2.66V60.4a2.44,2.44,0,0,0,1.7,2.32A2.27,2.27,0,0,1,4.23,62Z"/><path class="cls-4" d="M14.05,62.85A2.45,2.45,0,0,0,16.5,60.4V52.14A2.45,2.45,0,0,1,19,49.7H32.11a2.45,2.45,0,0,0,2.45-2.45V43.72H4.23V62a2.27,2.27,0,0,0,.13.75,2.36,2.36,0,0,0,.75.13Z"/><circle class="cls-4" cx="30.76" cy="39.76" r="2.48"/><circle class="cls-4" cx="32" cy="35" r="1.24"/><circle class="cls-1" cx="32" cy="60.26" r="1.24"/><circle class="cls-1" cx="12.06" cy="58.71" r="2.48"/><circle class="cls-1" cx="13.3" cy="53.96" r="1.24"/><circle class="cls-1" cx="58.8" cy="58.68" r="2.48"/><circle class="cls-1" cx="60.04" cy="53.93" r="1.24"/><circle class="cls-4" cx="58.8" cy="22.82" r="2.48"/><circle class="cls-4" cx="60.04" cy="18.07" r="1.24"/><circle class="cls-4" cx="30.76" cy="11.66" r="2.48"/><circle class="cls-4" cx="32" cy="6.91" r="1.24"/></g></g></svg>