<svg xmlns="http://www.w3.org/2000/svg" viewBox="0 0 21.04 25.35"><defs><style>.cls-1{fill:#d93839;}.cls-2{fill:#ce6d15;}.cls-3{fill:#fab61e;}</style></defs><g id="Capa_2" data-name="Capa 2"><g id="Capa_2-2" data-name="Capa 2"><path class="cls-1" d="M19.54,16.12c0,5-4.08,7.73-9.11,7.73S1.5,20.62,1.5,15.59,5.39,1.5,10.43,1.5,19.54,11.09,19.54,16.12Z"/><path class="cls-2" d="M10.43,1.5c5,0,9.11,9.59,9.11,14.62s-4.08,7.73-9.11,7.73S1.5,20.62,1.5,15.59,5.39,1.5,10.43,1.5m0-1.5C4.06,0,0,10.24,0,15.59c0,5.65,4.39,9.76,10.43,9.76,6.35,0,10.61-3.71,10.61-9.23S16.66,0,10.43,0Z"/><path class="cls-2" d="M10.52,14.75H10c3,.14,5.29,1.45,5.29,3s-2.6,3-5.82,3-5.83-1.36-5.83-3a1,1,0,0,1,0-.17,2,2,0,0,0-.19.83c0,2,3.17,3.7,7.07,3.7s7.07-1.66,7.07-3.7S14.42,14.75,10.52,14.75Z"/><path class="cls-3" d="M8.78,5.35A1,1,0,0,1,8.1,3.54a1,1,0,0,1,1.43.2,1,1,0,0,1-.2,1.38l-.05,0A1.1,1.1,0,0,1,8.78,5.35Z"/><path class="cls-3" d="M3.36,11.34A16.53,16.53,0,0,1,5.88,5.87,1,1,0,1,1,7.5,7a9.2,9.2,0,0,0-1.81,4.66,1.18,1.18,0,1,1-2.33-.35Z"/></g></g></svg>