<?xml version="1.0" encoding="utf-8"?>
<!-- Generator: Adobe Illustrator 26.0.2, SVG Export Plug-In . SVG Version: 6.00 Build 0)  -->
<svg version="1.1" id="Capa_1" xmlns="http://www.w3.org/2000/svg" xmlns:xlink="http://www.w3.org/1999/xlink" x="0px" y="0px"
	 viewBox="0 0 27.8 27.3" style="enable-background:new 0 0 27.8 27.3;" xml:space="preserve">
<style type="text/css">
	.st0{fill:#D93839;}
	.st1{fill:#CE6D15;}
	.st2{fill:#FAB61E;}
	.st3{fill:#FAB61E;}
</style>
<g>
	<path class="st0" d="M11.8,6.6c-5,0-8.3,7.8-8.3,12.9c0,2.4,2.8,6.2,10.3,6.2c7.2,0,10.4-3.3,10.4-6.5C24.2,14,16.9,6.6,11.8,6.6z"
		/>
	<path class="st1" d="M13.9,27.3C5.2,27.3,2,22.5,2,19.5c0-5,3.4-14.4,9.8-14.4c5.8,0,13.9,8.2,13.9,14.1
		C25.7,23.2,22.1,27.3,13.9,27.3z M11.8,6.6c-5,0-8.3,7.8-8.3,12.9c0,2.4,2.8,6.2,10.3,6.2c7.2,0,10.4-3.3,10.4-6.5
		C24.2,14,16.9,6.6,11.8,6.6z"/>
	<path class="st2" d="M13.9,17.1c-0.2,0-0.4,0-0.6,0c3.5,0.1,6.2,1.4,6.2,3c0,1.7-3.1,3-6.9,3c-3.8,0-6.9-1.4-6.9-3
		c0-0.1,0-0.1,0-0.2c-0.1,0.3-0.2,0.5-0.2,0.8c0,2,3.7,3.7,8.3,3.7c4.6,0,8.3-1.7,8.3-3.7S18.5,17.1,13.9,17.1z"/>
	<path class="st3" d="M9.4,10.8c-0.3,0-0.7-0.2-0.9-0.5C8.2,9.8,8.4,9.2,8.8,8.9c0.5-0.3,1.1-0.1,1.4,0.3c0.3,0.5,0.2,1.1-0.3,1.4
		l-0.1,0C9.7,10.7,9.5,10.8,9.4,10.8z"/>
	<path class="st3" d="M4.7,17.5c0.3-2.1,1-4.2,2.2-6.1c0.3-0.5,0.9-0.6,1.4-0.3c0.5,0.3,0.6,0.9,0.3,1.4C7.5,14,7.1,15.9,7,17.7
		c0,0.7-0.5,1.2-1.2,1.2C5.1,18.9,4.5,18.2,4.7,17.5L4.7,17.5z"/>
</g>
</svg>
