<?xml version="1.0" encoding="utf-8"?>
<!-- Generator: Adobe Illustrator 26.0.2, SVG Export Plug-In . SVG Version: 6.00 Build 0)  -->
<svg version="1.1" id="Capa_1" xmlns="http://www.w3.org/2000/svg" xmlns:xlink="http://www.w3.org/1999/xlink" x="0px" y="0px"
	 viewBox="0 0 27.8 27.3" style="enable-background:new 0 0 27.8 27.3;" xml:space="preserve">
<style type="text/css">
	.st0{fill:#D93839;}
	.st1{fill:#CE6D15;}
	.st2{fill:#FAB61E;}
	.st3{fill:#FAB61E;}
</style>
<g>
	<path class="st0" d="M16.4,6.6C11.3,6.6,4,14,4,19.2c0,3.2,3.2,6.5,10.4,6.5c7.5,0,10.3-3.8,10.3-6.2C24.7,14.4,21.4,6.6,16.4,6.6z
		"/>
	<path class="st1" d="M14.3,27.3c-8.2,0-11.9-4-11.9-8c0-5.9,8.1-14.1,13.9-14.1c6.4,0,9.8,9.4,9.8,14.4
		C26.2,22.5,23,27.3,14.3,27.3z M16.4,6.6C11.3,6.6,4,14,4,19.2c0,3.2,3.2,6.5,10.4,6.5c7.5,0,10.3-3.8,10.3-6.2
		C24.7,14.4,21.4,6.6,16.4,6.6z"/>
	<path class="st2" d="M14.3,17.1c-0.2,0-0.4,0-0.6,0c3.5,0.1,6.2,1.4,6.2,3c0,1.7-3.1,3-6.9,3c-3.8,0-6.9-1.4-6.9-3
		c0-0.1,0-0.1,0-0.2C6.1,20.2,6,20.5,6,20.8c0,2,3.7,3.7,8.3,3.7c4.6,0,8.3-1.7,8.3-3.7S18.9,17.1,14.3,17.1z"/>
	<path class="st3" d="M12.2,11.2c-0.3,0-0.7-0.2-0.9-0.5c-0.3-0.5-0.1-1.1,0.3-1.4c0.5-0.3,1.1-0.1,1.4,0.3c0.3,0.5,0.2,1.1-0.3,1.4
		l-0.1,0C12.5,11.1,12.4,11.2,12.2,11.2z"/>
	<path class="st3" d="M5.1,17.3c0.9-2.4,2.4-4.2,4.2-5.9c0.4-0.4,1-0.3,1.4,0.1c0.4,0.4,0.3,1.1-0.1,1.4c-1.4,1.2-2.8,3.1-3.2,5
		C7.1,19.5,4.7,18.9,5.1,17.3L5.1,17.3z"/>
</g>
</svg>
