<svg xmlns="http://www.w3.org/2000/svg" viewBox="0 0 1728 1117">
  <defs>
    <clipPath id="a">
      <path fill="none" d="M745 118h238v116H745z"/>
    </clipPath>
    <clipPath id="b">
      <path fill="none" d="M1352.85 952.69h377.87V1117h-377.87z"/>
    </clipPath>
    <clipPath id="c">
      <path fill="none" d="M201.09 0h127.55v65.19H201.09z"/>
    </clipPath>
    <clipPath id="d">
      <path fill="none" d="M215-65h93.5V43.4H215z"/>
    </clipPath>
    <clipPath id="e">
      <path fill="none" d="M2.46 0h137.48v102.07H2.46z"/>
    </clipPath>
    <clipPath id="f">
      <path fill="none" d="M0-3h126.7v98.5H0z"/>
    </clipPath>
    <clipPath id="g">
      <path fill="none" d="M1577.8 0h137.48v102.07H1577.8z"/>
    </clipPath>
    <clipPath id="h">
      <path fill="none" d="M1575.34-3h126.7v98.5h-126.7z"/>
    </clipPath>
    <clipPath id="i">
      <path fill="none" d="M0 1038h272.99v79H0z"/>
    </clipPath>
    <clipPath id="j">
      <path fill="none" d="M1377.31 985.07H1728V1117h-350.69z"/>
    </clipPath>
  </defs>
  <path fill="#30341d" d="M0 0h1728v1117H0z"/>
  <path d="M786.56 121.36a17 17 0 0 1-8.9-2.27 14.9 14.9 0 0 1-5.84-6.3 21.09 21.09 0 0 1-2.06-9.62 23.85 23.85 0 0 1 2.24-9.82 17.54 17.54 0 0 1 3.15-4.75 14.78 14.78 0 0 1 4.85-3.44 15.56 15.56 0 0 1 6.72-1.35 18.14 18.14 0 0 1 5.8.84 15.91 15.91 0 0 1 4.28 2.06 15.41 15.41 0 0 1 3 2.56 18 18 0 0 1 1.93 2.48l1.05 1.6-6.14 4.65a23.74 23.74 0 0 0-2.18-3.36 10.46 10.46 0 0 0-3.11-2.77 8.85 8.85 0 0 0-4.58-1.1 8.1 8.1 0 0 0-4.66 1.23 9.48 9.48 0 0 0-2.94 3.2 14.11 14.11 0 0 0-1.47 4.11 20.85 20.85 0 0 0-.42 4 18.36 18.36 0 0 0 .42 3.91 11 11 0 0 0 1.43 3.53 7.93 7.93 0 0 0 2.77 2.56 11.25 11.25 0 0 0 9.2-.13 9 9 0 0 0 3.15-2.94 29.29 29.29 0 0 0 2.35-4.49l6.89 3.11a33.07 33.07 0 0 1-4.16 6.63 16 16 0 0 1-5.42 4.33 16.6 16.6 0 0 1-7.35 1.54Zm20.73-.08c.12-2.33.2-4.65.26-7s.08-4.62.08-6.88c0-2.08-.07-4.12-.12-6.14s-.1-4-.22-5.92l7.06-.21c0 1 .07 2.1.13 3.19a10.69 10.69 0 0 1 3.11-2.68 8 8 0 0 1 4.11-1 13 13 0 0 1 2.27.25 10.76 10.76 0 0 1 2.81 1l-.8 7.1a7.24 7.24 0 0 0-2.26-.88 8.2 8.2 0 0 0-2-.29 5.64 5.64 0 0 0-4.58 2.43 14.45 14.45 0 0 0-2.51 6.68c0 2 0 3.84-.09 5.63s-.1 3.36-.21 4.79Zm33.9.08a15.08 15.08 0 0 1-7.1-1.6 11.71 11.71 0 0 1-4.75-4.36 12.47 12.47 0 0 1-1.68-6.51 15.91 15.91 0 0 1 .76-4.67 14.1 14.1 0 0 1 2.44-4.62 12.53 12.53 0 0 1 4.41-3.48 15.19 15.19 0 0 1 6.73-1.35 15.55 15.55 0 0 1 4.78.63A9.61 9.61 0 0 1 850 97a7.43 7.43 0 0 1 1.89 2.14 7.28 7.28 0 0 1 .88 2.19 7 7 0 0 1 .25 1.68 7.11 7.11 0 0 1-3.44 6.3q-3.4 2.18-9.66 2.18-1.44 0-2.73-.12c-.84-.09-1.63-.19-2.36-.3a5.76 5.76 0 0 0 2.65 3.11 8.21 8.21 0 0 0 3.82 1 11.9 11.9 0 0 0 5-1 13.54 13.54 0 0 0 4.12-3.19l3.74 5.37c-.9.73-1.91 1.49-3 2.27a14.12 14.12 0 0 1-4 1.93 19 19 0 0 1-5.97.8Zm.92-20.29a7.7 7.7 0 0 0-4.37 1.26 7.46 7.46 0 0 0-2.77 3.32l2.06.3c.7 0 1.39.08 2.06.08a15.5 15.5 0 0 0 2.1-.17 16.33 16.33 0 0 0 2.35-.5 7.25 7.25 0 0 0 1.93-.84 1.34 1.34 0 0 0 .42-2.1 2.89 2.89 0 0 0-1.22-.93 6.12 6.12 0 0 0-2.56-.42ZM868 121.32a12.42 12.42 0 0 1-4.28-.76 10.82 10.82 0 0 1-3.74-2.35 11.11 11.11 0 0 1-2.6-3.91 14.68 14.68 0 0 1-1-5.58 16.21 16.21 0 0 1 1.09-6.22 12.51 12.51 0 0 1 7.1-6.89 13 13 0 0 1 4.54-.84 15.08 15.08 0 0 1 2.56.21 13.74 13.74 0 0 1 2.27.51c.08-2 .18-4.1.29-6.18s.3-4.11.46-6.13l7.06.46c-.22 2.33-.42 4.83-.59 7.52s-.29 5.38-.38 8.15-.08 5.47-.08 8.11q0 3.69.08 7t.3 6l-7.27.55v-1.56a11.76 11.76 0 0 1-2.69 1.3 9.18 9.18 0 0 1-3.12.61Zm-4.83-13a6.12 6.12 0 0 0 .84 3.44 4.66 4.66 0 0 0 2.06 1.73 6.25 6.25 0 0 0 2.35.5 6.46 6.46 0 0 0 5.21-2.65v-1q0-3.41.09-7a6.42 6.42 0 0 0-4.29-1.73 7.83 7.83 0 0 0-2.06.3 5.56 5.56 0 0 0-2 1 5.49 5.49 0 0 0-1.56 2 7.86 7.86 0 0 0-.64 3.43ZM885 90.87a6.45 6.45 0 0 0 0-.76v-.92c0-.9 0-1.85.08-2.86s.11-1.86.17-2.56l7.48.13c-.09.95-.18 2-.3 3.23s-.14 2.45-.17 3.74Zm-.17 30.07c-.08-1.74-.14-3.58-.17-5.54s0-4 0-6c0-2.6 0-5.14.09-7.6s.12-4.7.21-6.72h7.22c-.11 1.29-.18 2.88-.21 4.79s0 3.85 0 5.92v6c0 1.94.06 3.79.08 5.41s.1 2.83.13 3.7Zm24 .38a6.6 6.6 0 0 1-4-1.09 6 6 0 0 1-2.14-2.94 17.36 17.36 0 0 1-.88-4.33c-.11-1.62-.17-3.33-.17-5.12s.07-3.77.21-5.76c-1.88.25-3.68.58-5.42 1l-1.3-6.6a50.07 50.07 0 0 1 7.43-1.34l.63-4.49c.23-1.6.48-3.28.76-5l7.22.63c-.33 1.45-.63 2.91-.88 4.36s-.47 2.82-.67 4.16c1.57 0 3 0 4.41.13a38.68 38.68 0 0 1 3.86.33l-.84 6.6q-1.47-.17-3.06-.21t-3.15-.09c-.65 0-1.29 0-1.93.05-.17 2-.29 3.79-.34 5.25s0 2.49 0 3.1a15.2 15.2 0 0 0 .25 3.32c.19.67.5 1 .92 1a3.48 3.48 0 0 0 1.6-.46 8.34 8.34 0 0 0 1.72-1.35 8.79 8.79 0 0 0 1.47-1.8l3.23 6.76a12.78 12.78 0 0 1-8.94 3.89Zm24.4.17a19.74 19.74 0 0 1-5.29-.68 20.88 20.88 0 0 1-4.41-1.72 26.75 26.75 0 0 1-3.53-2.22l3.78-6.09a17.14 17.14 0 0 0 3.4 2.52 11.93 11.93 0 0 0 3.4 1.21 20.93 20.93 0 0 0 3.91.34 7.55 7.55 0 0 0 2.9-.46c.72-.34 1.09-.76 1.09-1.26s-.35-.74-1.05-1a15.14 15.14 0 0 0-2.69-.63c-1.09-.19-2.24-.43-3.44-.71a41.41 41.41 0 0 1-4.79-1.56 9.47 9.47 0 0 1-3.61-2.39 5.83 5.83 0 0 1-1.35-4 6.36 6.36 0 0 1 1-3.53 7.93 7.93 0 0 1 2.56-2.56 12.28 12.28 0 0 1 3.7-1.56 18 18 0 0 1 4.24-.5 20.56 20.56 0 0 1 6.51.92 26.37 26.37 0 0 1 5.25 2.39l-3.81 5.76a13.42 13.42 0 0 0-2.9-1.51 17.48 17.48 0 0 0-3.23-1 13.15 13.15 0 0 0-3-.38 5.19 5.19 0 0 0-2.4.47 1.42 1.42 0 0 0-.84 1.3c0 .33.35.66 1.05 1a38.22 38.22 0 0 0 4.12 1.14l3.82.88a18.37 18.37 0 0 1 3.78 1.22 6.79 6.79 0 0 1 2.9 2.22 6 6 0 0 1 1.13 3.83 7.3 7.3 0 0 1-3.23 6.3q-3.2 2.26-8.98 2.26Zm19.49-26.84a4.56 4.56 0 0 1-2.64-.72 4.36 4.36 0 0 1-1.56-1.8 5.84 5.84 0 0 1-.5-2.35 5.44 5.44 0 0 1 .5-2.27 4.56 4.56 0 0 1 1.64-1.85A5.25 5.25 0 0 1 953 85a4.07 4.07 0 0 1 3.44 1.42 5 5 0 0 1 1.09 3.2 4.78 4.78 0 0 1-1.47 3.9 5.09 5.09 0 0 1-3.35 1.13Zm0 24.53a4.56 4.56 0 0 1-2.64-.72 4.42 4.42 0 0 1-1.56-1.8 6 6 0 0 1-.5-2.4 5.47 5.47 0 0 1 .5-2.27 4.63 4.63 0 0 1 1.64-1.8 5.25 5.25 0 0 1 2.86-.72 4.07 4.07 0 0 1 3.44 1.43 5 5 0 0 1 1.09 3.19 4.79 4.79 0 0 1-1.47 3.91 5.14 5.14 0 0 1-3.37 1.18Z" fill="#fff"/>
  <g clip-path="url(#a)">
    <path d="M978.66 135c-1.78 1.51 4 27.46 1.83 28.78-4.08 2.43-15.87-6.13-18.22-3-6.8 9.17-21.88 20.11-13.33 28.72-4.89 2.88-13.71 1.9-18.41-1.09s-6.25-7.27-7-11.33c-.56-3-2.44-7-7.51-6.82a11.55 11.55 0 0 0-6.34 2.6c-3.1 2.21-6.2 4.45-9.3 6.66a8.77 8.77 0 0 1-4.17 1.87 5.49 5.49 0 0 1-6.25-5.31c-.05-2.46-.52-5.71-4.51-6.29-7.09 1.84-10.33 6.9-10.33 11.52s2.49 9.08 3.43 13.64a4.52 4.52 0 0 1-.47 3.86c-3.29 4.39-15.64 1.45-17.66-3.19s1.23-9.53.8-14.31-8.64-10.07-15.54-7.55c-5.87 2.15-5.59 8.39-12.21 9.5-7.89 1.35-16.48-6.32-22.54-3a7.15 7.15 0 0 0-2.72 3.24c-2.49 4.28-10.85 8.28-17.24 5.79-7.74-3-5.58-12.92-14.83-12.78-8.17.14-7.09 8-12.78 11.52-8.68-.76-15.91-5.51-16.34-10.74-.75-9.34 17.43-32.89 16.91-42.28" fill="#6eb52c"/>
    <path d="M975.82 132.58c-1 .95-.61 2.62-.51 3.67.18 2.17.51 4.34.89 6.51.8 5 1.83 10.07 2.34 15.1a24 24 0 0 1 .19 2.7 6.31 6.31 0 0 1-.05 1v.39c0 .36.14-.27 0 0 0 0-.14.2-.1.25 0-.11.29-.28.38-.36-.14.08.23 0 0 0-.28 0-.42 0 0 0h-.57c-.37 0 .33 0 0 0l-.57-.09-.56-.11h-.23c-.33-.09.47.11-.1 0-.84-.23-1.64-.5-2.44-.78-1.73-.61-3.42-1.34-5.2-2a16.47 16.47 0 0 0-5.07-1.11 4.62 4.62 0 0 0-4.17 2c-1.41 1.78-3 3.48-4.51 5.2-3.23 3.5-6.56 7-8.86 10.79-2 3.34-3.15 7.12-1.32 10.6a10.9 10.9 0 0 0 1.93 2.53c.09-.5.23-1 .33-1.53-4.23 2.39-11.31 1.33-15.11-.89-5.11-3-5.91-7.43-6.89-11.43-.75-3.2-3.47-7.76-10.37-7.12-3.75.36-6.14 2.33-8.4 3.95-2.81 2-5.53 4.06-8.39 6a5 5 0 0 1-3.1 1.12 3.16 3.16 0 0 1-2-1.2c-1.32-1.47-1-3.11-1.27-4.7a6 6 0 0 0-3.33-4.84 8.9 8.9 0 0 0-2.06-.69 5.41 5.41 0 0 0-2.87.22 18.65 18.65 0 0 0-3.84 1.64c-4.74 2.7-6.76 6.79-6.8 10.6a23 23 0 0 0 1.5 7.48c.79 2.39 1.87 4.84 2.11 7.28a2.89 2.89 0 0 1-1 2.76 4.33 4.33 0 0 1-1.87.77 10.62 10.62 0 0 1-2.63.09 16.53 16.53 0 0 1-3.19-.64 10.68 10.68 0 0 1-5-2.89c-1.55-1.81-1.22-4.31-.89-6.32.42-2.44 1.22-4.84 1.26-7.31a7.89 7.89 0 0 0-2.43-5.81 16.34 16.34 0 0 0-15.48-4.17c-5.12 1.44-6.29 5-8.92 7.64A6.43 6.43 0 0 1 832 181a19 19 0 0 1-6.37-1.22c-4.13-1.34-9.2-3.73-14.17-2.39-3.28.89-4.13 2.92-5.3 4.75a12 12 0 0 1-5.4 4.2 12.14 12.14 0 0 1-7.45 1 7.31 7.31 0 0 1-4.18-2.64c-2.06-2.39-2.72-5.34-5.06-7.76a9.5 9.5 0 0 0-4.79-2.58 13.45 13.45 0 0 0-6.94.39c-4.36 1.53-5.44 5.06-7 7.67a10.17 10.17 0 0 1-3.34 3.48l2.06-.34c-6.75-.64-12.48-3.67-14.26-7.62-1.36-3-.05-6 1.17-8.93 3.19-7.5 8.26-14.68 11.92-22.1 1.69-3.34 3.38-6.93 3.24-10.46.18-2.11-4.32-1.61-4.23 0 .14 2.67-.94 5.17-2.15 7.84-1.65 3.51-3.57 6.84-5.44 10.15s-3.94 6.79-5.73 10.21a34.37 34.37 0 0 0-3.47 9.06c-.66 3.48.8 6.82 4.46 9.6a22.9 22.9 0 0 0 7.6 3.67 30 30 0 0 0 4.69 1 4.85 4.85 0 0 0 3.09-.27 8.89 8.89 0 0 0 1.36-1c3-2.5 3.52-5.78 5.91-8.31a5.36 5.36 0 0 1 .85-.78l.28-.17a4.48 4.48 0 0 0 .47-.27 5.7 5.7 0 0 1 2.06-.48h1.17c.24 0 .52.09.75.11 0 0 .33.09.1 0l.23.09c.19.05.38.13.57.19s-.05 0-.05 0 .19.09.28.14l.47.28.28.19a10.5 10.5 0 0 1 2.53 3.42 36.33 36.33 0 0 0 2.58 4.26c2.35 3.09 7 5.39 13 4.59a19.94 19.94 0 0 0 8.21-3.09 13.94 13.94 0 0 0 2.9-2.45 18 18 0 0 0 2-2.94 3.91 3.91 0 0 1 2.26-1.76s0 0 .37-.08c.14 0 .28 0 .38-.05-.1 0-.38 0 0 0h.61a2.13 2.13 0 0 1 .61.05 30.94 30.94 0 0 1 6.38 1.81c4.41 1.53 10.13 3.25 15 1.22 4.55-1.89 5.07-5.42 8.26-7.87a7.79 7.79 0 0 1 5.86-1.36 11.37 11.37 0 0 1 6 3 6.45 6.45 0 0 1 2.25 5.46c-.14 2.5-1 4.95-1.36 7.42A8.51 8.51 0 0 0 859 196a13.14 13.14 0 0 0 5.54 3.59c4.12 1.58 10.55 2.22 14.07-.31 2.63-1.89 2.2-4.37 1.64-6.62-.61-2.53-1.64-5-2.39-7.53-1.18-4-1.41-8.29 2.15-11.91a14 14 0 0 1 6.29-3.42c-.56.06-1.08.08-1.64.14 2.53.42 2.81 2.61 2.91 4 .18 2 .28 4.08 2.39 5.81 2.39 2 6.42 2.33 9.66.75a28.26 28.26 0 0 0 4.46-3l4.78-3.42a34.17 34.17 0 0 1 4.32-2.89 6 6 0 0 1 3.8-.69c2.25.47 3.28 2.64 3.75 4 .8 2.22.94 4.5 1.92 6.73a15.79 15.79 0 0 0 5.54 6.51c5.25 3.61 15.66 5 21.86 1.42a.94.94 0 0 0 .32-1.53c-2.9-3-2.62-6.35-1.07-9.57 1.78-3.67 4.92-7.06 8-10.4 1.59-1.73 3.14-3.42 4.64-5.17a21.41 21.41 0 0 0 1.88-2.34c.09-.17-.24.11-.05 0s-.42.16 0 0h-.09c-.33 0-.24.06 0 0 .47.06-.38-.05 0 0 .15 0 .29 0 .43.06a4.64 4.64 0 0 1 .51.11c.47.08-.14 0 .19.06.85.22 1.6.5 2.39.78 1.74.61 3.38 1.3 5.12 1.91a19.25 19.25 0 0 0 5.44 1.2c1.54.06 3.42-.31 4.22-1.14 1-1.06.65-2.75.56-3.92-.33-4.78-1.31-9.57-2.11-14.32-.38-2.37-.8-4.7-1.08-7.07-.09-.86-.19-1.75-.23-2.61v-1a1.17 1.17 0 0 1 0-.37c.05-.25.24-.36 0-.05.05-.06 0-.17.1-.22.19-.25-.28.3-.1.11 1.82-1.18-1.84-2.46-3.3-1.1Z" fill="#19642d"/>
    <path d="M804.91 187.24c.23-.32.47-.65.65-.93s-.23.32-.09.09a2.22 2.22 0 0 1 .19-.23 4.74 4.74 0 0 1 .42-.52c.52-.61 1.08-1.17 1.64-1.73 1.17-1.17 2.44-2.24 3.66-3.32a32.19 32.19 0 0 0 6.9-7.8 20 20 0 0 0 2.25-6.18 2.1 2.1 0 0 0-4-1.12 14.71 14.71 0 0 1-.7 2.76 3.09 3.09 0 0 1-.24.61.71.71 0 0 0-.09.28c-.19.47.14-.28 0 0s-.37.79-.56 1.17a21 21 0 0 1-1.36 2.15c-.1.14-.38.56-.1.14a3.24 3.24 0 0 1-.42.51c-.28.33-.51.61-.8.94-2.2 2.43-4.83 4.44-7.22 6.73a27.68 27.68 0 0 0-3.71 4.35 2.13 2.13 0 0 0 .76 2.9 2.2 2.2 0 0 0 2.82-.8ZM863.84 181.61a37.43 37.43 0 0 0 2-5.47 32.62 32.62 0 0 0 .75-4.21c.1-.56.14-1.17.24-1.73v-.37c-.09.7 0 .09 0-.05s.1-.61.14-.89a26.16 26.16 0 0 1 1.18-4.25 2.12 2.12 0 0 0-1.46-2.58 2.16 2.16 0 0 0-2.58 1.45 34 34 0 0 0-1.69 8.09v.42a.42.42 0 0 1-.05.24c.05-.33.05-.42.05-.24s-.1.61-.14.89a14.51 14.51 0 0 1-.42 1.92c-.19.75-.43 1.49-.66 2.24-.14.42-.28.84-.47 1.27-.09.23-.19.46-.28.7s-.1.28-.05.09c0 .14-.14.28-.19.42a2.22 2.22 0 0 0 .75 2.9 2.15 2.15 0 0 0 2.88-.84ZM966.1 157.63a12.27 12.27 0 0 0-.75-9.21 12.6 12.6 0 0 0-6.7-6.31 2.1 2.1 0 0 0-2.58 1.45 2.13 2.13 0 0 0 1.45 2.57c-.47-.19 0 0 .09 0a1.62 1.62 0 0 1 .42.24c.29.14.57.33.8.47s.24.18.38.28c-.28-.19-.1-.1 0 0a3.84 3.84 0 0 1 .6.61 6.35 6.35 0 0 1 .61.7c.14.19.14.24 0 0l.29.38a11.42 11.42 0 0 1 .93 1.63c.19.38-.14-.37 0 .1l.14.42a6.62 6.62 0 0 1 .24.84 5 5 0 0 1 .18.84c0 .09.05.19.05.33a.35.35 0 0 0-.05-.24 1.51 1.51 0 0 1 .05.47 5.93 5.93 0 0 1 0 .94 3.23 3.23 0 0 1 0 .93 1.7 1.7 0 0 1 0-.23v.32c0 .14-.05.33-.09.47-.1.33-.14.61-.24.89a2.13 2.13 0 0 0 1.46 2.57 2.29 2.29 0 0 0 2.72-1.46ZM925.22 176.15a53.06 53.06 0 0 1-2.57-9.63c0-.28-.1-.56-.14-.8s0-.28 0-.42c-.1-.51 0 .42 0 0s-.1-.84-.14-1.22-.05-.7-.1-1a2.11 2.11 0 0 0-4.22 0 29.78 29.78 0 0 0 .56 4.49 55.64 55.64 0 0 0 2.63 9.78 2.13 2.13 0 0 0 2.58 1.44 2.23 2.23 0 0 0 1.4-2.64ZM892.05 174.88a36.18 36.18 0 0 0-1.87-9.91c-.52-1.73-1-3.46-1.5-5.24-.24-.94-.47-1.87-.66-2.81-.1-.46-.19-.88-.28-1.35 0-.24-.1-.47-.14-.75s-.05-.23-.05-.37-.09-.57 0-.28 0-.15 0-.19-.05-.33-.05-.47 0-.56-.09-.84c-.05-.61-.1-1.17-.1-1.78a31.81 31.81 0 0 1 .1-3.78 2.1 2.1 0 0 0-2.11-2.11 2.17 2.17 0 0 0-2.12 2.11 41.73 41.73 0 0 0 1.22 12.67c.85 3.41 2 6.78 2.82 10.19.19.89.37 1.73.51 2.62.05.28 0-.42 0-.14s.05.23.05.37V174.83a2.13 2.13 0 0 0 2.12 2.1 2 2 0 0 0 2.15-2.05Z" fill="#19642d"/>
  </g>
  <path d="M143 886c-7.19 0-14 8.57-14 15.2 0 4.37 4.33 8.79 14 8.79 10.15 0 13.92-5.15 13.92-8.39.01-6.53-7-15.6-13.92-15.6Z" fill="#6eb52c"/>
  <path d="M143 912c-11 0-16-5.39-16-10.78 0-7.6 7.54-17.22 16-17.22 8.09 0 15.95 10.08 15.95 17.62C159 905.61 154.62 912 143 912Zm0-26c-7.19 0-14 8.57-14 15.2 0 4.37 4.33 8.79 14 8.79 10.15 0 13.92-5.15 13.92-8.39.01-6.53-7-15.6-13.92-15.6Z" fill="#19642d"/>
  <path d="M143 898.26h-.85c4.72.19 8.41 1.94 8.41 4s-4.15 4-9.27 4-9.27-1.83-9.27-4v-.23a2.39 2.39 0 0 0-.29 1.12c0 2.69 5 5 11.24 5s11.24-2.22 11.24-5-5.02-4.89-11.21-4.89Z" fill="#5ca132"/>
  <path d="M138.55 891.17a1.34 1.34 0 0 1-.65-.17 1.47 1.47 0 0 1-.49-.47 1.21 1.21 0 0 1-.18-.5 1.35 1.35 0 0 1 0-.53 1.4 1.4 0 0 1 .22-.48 1.54 1.54 0 0 1 .4-.36 1.44 1.44 0 0 1 .5-.19 1.19 1.19 0 0 1 .53 0 1.28 1.28 0 0 1 .49.22 1.25 1.25 0 0 1 .36.4 1.34 1.34 0 0 1-.42 1.82h-.08a1.47 1.47 0 0 1-.68.26Zm-8 7.44a1.59 1.59 0 0 0-.07.65 1.71 1.71 0 0 0 .19.63 1.59 1.59 0 0 0 .44.49 1.61 1.61 0 0 0 .59.28 1.63 1.63 0 0 0 .66 0 1.67 1.67 0 0 0 .6-.25 1.58 1.58 0 0 0 .45-.48 1.46 1.46 0 0 0 .23-.61 12.34 12.34 0 0 1 3-6 1.33 1.33 0 0 0 .32-1 1.35 1.35 0 0 0-2.38-.76 22.52 22.52 0 0 0-4 7.07Z" fill="#b8d373"/>
  <path d="M143 540c-7.19 0-14 8.57-14 15.2 0 4.37 4.33 8.79 14 8.79 10.15 0 13.92-5.15 13.92-8.39.01-6.53-7-15.6-13.92-15.6Z" fill="#6eb52c"/>
  <path d="M143 566c-11 0-16-5.39-16-10.78 0-7.6 7.54-17.22 16-17.22 8.09 0 15.95 10.08 15.95 17.62C159 559.61 154.62 566 143 566Zm0-26c-7.19 0-14 8.57-14 15.2 0 4.37 4.33 8.79 14 8.79 10.15 0 13.92-5.15 13.92-8.39.01-6.53-7-15.6-13.92-15.6Z" fill="#19642d"/>
  <path d="M143 552.26h-.85c4.72.19 8.41 1.94 8.41 4s-4.15 4-9.27 4-9.27-1.83-9.27-4v-.23a2.39 2.39 0 0 0-.29 1.12c0 2.69 5 5 11.24 5s11.24-2.22 11.24-5-5.02-4.89-11.21-4.89Z" fill="#5ca132"/>
  <path d="M138.55 545.17a1.34 1.34 0 0 1-.65-.17 1.47 1.47 0 0 1-.49-.47 1.21 1.21 0 0 1-.18-.5 1.35 1.35 0 0 1 0-.53 1.4 1.4 0 0 1 .22-.48 1.54 1.54 0 0 1 .4-.36 1.44 1.44 0 0 1 .5-.19 1.19 1.19 0 0 1 .53 0 1.28 1.28 0 0 1 .49.22 1.25 1.25 0 0 1 .36.4 1.34 1.34 0 0 1-.42 1.82h-.08a1.47 1.47 0 0 1-.68.26Zm-8 7.44a1.59 1.59 0 0 0-.07.65 1.71 1.71 0 0 0 .19.63 1.59 1.59 0 0 0 .44.49 1.61 1.61 0 0 0 .59.28 1.63 1.63 0 0 0 .66 0 1.67 1.67 0 0 0 .6-.25 1.58 1.58 0 0 0 .45-.48 1.46 1.46 0 0 0 .23-.61 12.34 12.34 0 0 1 3-6 1.33 1.33 0 0 0 .32-1 1.35 1.35 0 0 0-2.38-.76 22.52 22.52 0 0 0-4 7.07Z" fill="#b8d373"/>
  <path d="M143 291c-7.19 0-14 8.57-14 15.2 0 4.37 4.33 8.79 14 8.79 10.15 0 13.92-5.15 13.92-8.39.01-6.53-7-15.6-13.92-15.6Z" fill="#6eb52c"/>
  <path d="M143 317c-11 0-16-5.39-16-10.79 0-7.59 7.54-17.21 16-17.21 8.09 0 15.95 10.08 15.95 17.62C159 310.61 154.62 317 143 317Zm0-26c-7.19 0-14 8.57-14 15.2 0 4.37 4.33 8.79 14 8.79 10.15 0 13.92-5.15 13.92-8.39.01-6.53-7-15.6-13.92-15.6Z" fill="#19642d"/>
  <path d="M143 303.26h-.85c4.72.19 8.41 1.94 8.41 4.05s-4.15 4-9.27 4-9.27-1.83-9.27-4v-.23a2.39 2.39 0 0 0-.29 1.12c0 2.69 5 5 11.24 5s11.24-2.22 11.24-5-5.02-4.94-11.21-4.94Z" fill="#5ca132"/>
  <path d="M138.55 296.17a1.34 1.34 0 0 1-.65-.17 1.41 1.41 0 0 1-.49-.48 1.12 1.12 0 0 1-.18-.49 1.35 1.35 0 0 1 0-.53 1.4 1.4 0 0 1 .22-.48 1.54 1.54 0 0 1 .4-.36 1.44 1.44 0 0 1 .5-.19 1.19 1.19 0 0 1 .53 0 1.28 1.28 0 0 1 .49.22 1.25 1.25 0 0 1 .36.4 1.34 1.34 0 0 1-.42 1.82h-.08a1.47 1.47 0 0 1-.68.26Zm-8 7.44a1.59 1.59 0 0 0-.07.65 1.71 1.71 0 0 0 .19.63 1.59 1.59 0 0 0 .44.49 1.61 1.61 0 0 0 .59.28 1.63 1.63 0 0 0 .66 0 1.67 1.67 0 0 0 .6-.25 1.58 1.58 0 0 0 .45-.48 1.46 1.46 0 0 0 .23-.61 12.34 12.34 0 0 1 3-6 1.33 1.33 0 0 0 .32-1 1.35 1.35 0 0 0-2.38-.76 22.52 22.52 0 0 0-4 7.07Z" fill="#b8d373"/>
  <path d="M143 363c-7.19 0-14 8.57-14 15.2 0 4.37 4.33 8.79 14 8.79 10.15 0 13.92-5.15 13.92-8.39.01-6.53-7-15.6-13.92-15.6Z" fill="#6eb52c"/>
  <path d="M143 389c-11 0-16-5.39-16-10.79 0-7.59 7.54-17.21 16-17.21 8.09 0 15.95 10.08 15.95 17.62C159 382.61 154.62 389 143 389Zm0-26c-7.19 0-14 8.57-14 15.2 0 4.37 4.33 8.79 14 8.79 10.15 0 13.92-5.15 13.92-8.39.01-6.53-7-15.6-13.92-15.6Z" fill="#19642d"/>
  <path d="M143 375.26h-.85c4.72.19 8.41 1.94 8.41 4.05s-4.15 4-9.27 4-9.27-1.83-9.27-4v-.23a2.39 2.39 0 0 0-.29 1.12c0 2.69 5 5 11.24 5s11.24-2.22 11.24-5-5.02-4.94-11.21-4.94Z" fill="#5ca132"/>
  <path d="M138.55 368.17a1.34 1.34 0 0 1-.65-.17 1.41 1.41 0 0 1-.49-.48 1.12 1.12 0 0 1-.18-.49 1.35 1.35 0 0 1 0-.53 1.4 1.4 0 0 1 .22-.48 1.54 1.54 0 0 1 .4-.36 1.44 1.44 0 0 1 .5-.19 1.19 1.19 0 0 1 .53 0 1.28 1.28 0 0 1 .49.22 1.25 1.25 0 0 1 .36.4 1.34 1.34 0 0 1-.42 1.82h-.08a1.47 1.47 0 0 1-.68.26Zm-8 7.44a1.59 1.59 0 0 0-.07.65 1.71 1.71 0 0 0 .19.63 1.59 1.59 0 0 0 .44.49 1.61 1.61 0 0 0 .59.28 1.63 1.63 0 0 0 .66 0 1.67 1.67 0 0 0 .6-.25 1.58 1.58 0 0 0 .45-.48 1.46 1.46 0 0 0 .23-.61 12.34 12.34 0 0 1 3-6 1.33 1.33 0 0 0 .32-1 1.35 1.35 0 0 0-2.38-.76 22.52 22.52 0 0 0-4 7.07Z" fill="#b8d373"/>
  <path d="M143 665c-7.19 0-14 8.57-14 15.2 0 4.37 4.33 8.79 14 8.79 10.15 0 13.92-5.15 13.92-8.39.01-6.53-7-15.6-13.92-15.6Z" fill="#6eb52c"/>
  <path d="M143 691c-11 0-16-5.39-16-10.78 0-7.6 7.54-17.22 16-17.22 8.09 0 15.95 10.08 15.95 17.62C159 684.61 154.62 691 143 691Zm0-26c-7.19 0-14 8.57-14 15.2 0 4.37 4.33 8.79 14 8.79 10.15 0 13.92-5.15 13.92-8.39.01-6.53-7-15.6-13.92-15.6Z" fill="#19642d"/>
  <path d="M143 677.26h-.85c4.72.19 8.41 1.94 8.41 4s-4.15 4-9.27 4-9.27-1.83-9.27-4v-.23a2.39 2.39 0 0 0-.29 1.12c0 2.69 5 5 11.24 5s11.24-2.22 11.24-5-5.02-4.89-11.21-4.89Z" fill="#5ca132"/>
  <path d="M138.55 670.17a1.34 1.34 0 0 1-.65-.17 1.47 1.47 0 0 1-.49-.47 1.21 1.21 0 0 1-.18-.5 1.35 1.35 0 0 1 0-.53 1.4 1.4 0 0 1 .22-.48 1.54 1.54 0 0 1 .4-.36 1.44 1.44 0 0 1 .5-.19 1.19 1.19 0 0 1 .53 0 1.28 1.28 0 0 1 .49.22 1.25 1.25 0 0 1 .36.4 1.34 1.34 0 0 1-.42 1.82h-.08a1.47 1.47 0 0 1-.68.26Zm-8 7.44a1.59 1.59 0 0 0-.07.65 1.71 1.71 0 0 0 .19.63 1.59 1.59 0 0 0 .44.49 1.61 1.61 0 0 0 .59.28 1.63 1.63 0 0 0 .66 0 1.67 1.67 0 0 0 .6-.25 1.58 1.58 0 0 0 .45-.48 1.46 1.46 0 0 0 .23-.61 12.34 12.34 0 0 1 3-6 1.33 1.33 0 0 0 .32-1 1.35 1.35 0 0 0-2.38-.76 22.52 22.52 0 0 0-4 7.07Z" fill="#b8d373"/>
  <path d="M143 814c-7.19 0-14 8.57-14 15.2 0 4.37 4.33 8.79 14 8.79 10.15 0 13.92-5.15 13.92-8.39.01-6.53-7-15.6-13.92-15.6Z" fill="#6eb52c"/>
  <path d="M143 840c-11 0-16-5.39-16-10.78 0-7.6 7.54-17.22 16-17.22 8.09 0 15.95 10.08 15.95 17.62C159 833.61 154.62 840 143 840Zm0-26c-7.19 0-14 8.57-14 15.2 0 4.37 4.33 8.79 14 8.79 10.15 0 13.92-5.15 13.92-8.39.01-6.53-7-15.6-13.92-15.6Z" fill="#19642d"/>
  <path d="M143 826.26h-.85c4.72.19 8.41 1.94 8.41 4s-4.15 4-9.27 4-9.27-1.83-9.27-4v-.23a2.39 2.39 0 0 0-.29 1.12c0 2.69 5 5 11.24 5s11.24-2.22 11.24-5-5.02-4.89-11.21-4.89Z" fill="#5ca132"/>
  <path d="M138.55 819.17a1.34 1.34 0 0 1-.65-.17 1.47 1.47 0 0 1-.49-.47 1.21 1.21 0 0 1-.18-.5 1.35 1.35 0 0 1 0-.53 1.4 1.4 0 0 1 .22-.48 1.54 1.54 0 0 1 .4-.36 1.44 1.44 0 0 1 .5-.19 1.19 1.19 0 0 1 .53 0 1.28 1.28 0 0 1 .49.22 1.25 1.25 0 0 1 .36.4 1.34 1.34 0 0 1-.42 1.82h-.08a1.47 1.47 0 0 1-.68.26Zm-8 7.44a1.59 1.59 0 0 0-.07.65 1.71 1.71 0 0 0 .19.63 1.59 1.59 0 0 0 .44.49 1.61 1.61 0 0 0 .59.28 1.63 1.63 0 0 0 .66 0 1.67 1.67 0 0 0 .6-.25 1.58 1.58 0 0 0 .45-.48 1.46 1.46 0 0 0 .23-.61 12.34 12.34 0 0 1 3-6 1.33 1.33 0 0 0 .32-1 1.35 1.35 0 0 0-2.38-.76 22.52 22.52 0 0 0-4 7.07Z" fill="#b8d373"/>
  <path d="M143 739c-7.19 0-14 8.57-14 15.2 0 4.37 4.33 8.79 14 8.79 10.15 0 13.92-5.15 13.92-8.39.01-6.53-7-15.6-13.92-15.6Z" fill="#6eb52c"/>
  <path d="M143 765c-11 0-16-5.39-16-10.78 0-7.6 7.54-17.22 16-17.22 8.09 0 15.95 10.08 15.95 17.62C159 758.61 154.62 765 143 765Zm0-26c-7.19 0-14 8.57-14 15.2 0 4.37 4.33 8.79 14 8.79 10.15 0 13.92-5.15 13.92-8.39.01-6.53-7-15.6-13.92-15.6Z" fill="#19642d"/>
  <path d="M143 751.26h-.85c4.72.19 8.41 1.94 8.41 4s-4.15 4-9.27 4-9.27-1.83-9.27-4v-.23a2.39 2.39 0 0 0-.29 1.12c0 2.69 5 5 11.24 5s11.24-2.22 11.24-5-5.02-4.89-11.21-4.89Z" fill="#5ca132"/>
  <path d="M138.55 744.17a1.34 1.34 0 0 1-.65-.17 1.47 1.47 0 0 1-.49-.47 1.21 1.21 0 0 1-.18-.5 1.35 1.35 0 0 1 0-.53 1.4 1.4 0 0 1 .22-.48 1.54 1.54 0 0 1 .4-.36 1.44 1.44 0 0 1 .5-.19 1.19 1.19 0 0 1 .53 0 1.28 1.28 0 0 1 .49.22 1.25 1.25 0 0 1 .36.4 1.34 1.34 0 0 1-.42 1.82h-.08a1.47 1.47 0 0 1-.68.26Zm-8 7.44a1.59 1.59 0 0 0-.07.65 1.71 1.71 0 0 0 .19.63 1.59 1.59 0 0 0 .44.49 1.61 1.61 0 0 0 .59.28 1.63 1.63 0 0 0 .66 0 1.67 1.67 0 0 0 .6-.25 1.58 1.58 0 0 0 .45-.48 1.46 1.46 0 0 0 .23-.61 12.34 12.34 0 0 1 3-6 1.33 1.33 0 0 0 .32-1 1.35 1.35 0 0 0-2.38-.76 22.52 22.52 0 0 0-4 7.07Z" fill="#b8d373"/>
 <!-- <g clip-path="url(#b)">
    <path d="M1739.39 1297.23c4-7.77 17.33-4.8 20.77 3.23s-.2 17.42-5.12 24.7-11.27 13.84-14 22.14c-2.56 7.76-4.38 18.83-12.54 18.9-7.15 0-22.93-9.52-30-10.94-11.39-2.29-20.9 18-30.68 11.68-2.56-1.69-16-4.86-18.68-6.34-6.81-3.72-14.91 6.14-22.26 3.51-5.59-2-6.47-9.79-10.85-13.84-6.75-6.28-17.67-1.21-24.62 4.79s-30 13.5-38.91 11.2c-3.44-.87-18.35-9.11-21.65-10.32-7.82-2.84-16.32.47-24.21 2.9-12.48 3.78-13.56 11.54-26.57 11-4.52-.2-9.24-.67-13.22-2.77-3.1-1.62-5.66-4.18-8.36-6.34a44.14 44.14 0 0 0-35.74-8.44c-6.88-7.08-9.85-18.28-5.67-27.19s16.19-13.84 24.75-8.84c-6.68-7.7-13.55-15.66-16.39-25.45s-12.27-21.86-3.57-27.06c5.46 2 10.92 3.92 16.39 5.94-12.88-15-26.17-37.32-13.9-52.84 3.24-4.12 7.89-6.95 10.86-11.21 15.11-21.79-24.21-53.24-9-74.84 2.57-3.64-7.08-34.69-3.91-37.86 5.87-5.87 22.8 14.78 26.17 7.15 9.78-22.13 31.42-48.52 19.15-69.31 7-6.95 19.69-4.58 26.44 2.64s9 17.54 10 27.33c.81 7.22 3.51 16.8 10.79 16.47 3.78-.21 6.68-3.38 9.11-6.28 4.45-5.33 8.9-10.73 13.35-16.06 1.62-2 3.51-4.05 6-4.52 5.87-1.08 8.91 6.81 9 12.82s.75 13.77 6.48 15.18c10.18-4.45 14.83-16.67 14.83-27.8s-3.57-21.94-4.92-32.94c-.4-3.1-.61-6.41.68-9.31 4.72-10.59 22.45-3.51 25.35 7.69s-1.75 23-1.14 34.56 12.4 24.29 22.32 18.22c8.43-5.2 8-20.25 17.53-23 11.33-3.24 23.67 15.26 32.37 7.36 2.16-2 3-5.06 3.91-7.83 3.58-10.32 15.58-20 24.75-14 11.13 7.29 8 31.18 21.31 30.84 11.74-.33 10.19-19.37 18.35-27.8 12.47 1.82 22.86 13.29 23.47 25.91 1.08 22.68-25 39.69-24.21 62.36.67 20.59 23.67 37.73 18.47 57.7-3.91 14.92-7.82 27.4-1.07 41.17 2.76 5.6 9.44 9.31 10 15.52.34 3.31-1.28 6.48-2.76 9.45-7.69 14.92 8.63 29.83.94 44.81" fill="#6eb52c"/>
  </g> -->
  <g clip-path="url(#c)">
    <g clip-path="url(#d)">
      <path d="M218.3-63c-.4 2.8-.8 26.8-1 29.6-.3 3.1-.2 26.9.1 30 .3 4.4 1.7 10.8 6.3 11.3 6.5.7 1.5-13.5 8.9-13.8 3.6 0 2.7 19.4 3.3 22.2.7 3.2.2 6.5 3.2 8.1a7.57 7.57 0 0 0 9.4-1.5c2.8-3.6 2-13.7 2.5-14.7.9 2.4 2.7 26 3.7 27.6 1.8 2.9 6.3 3.9 8.3.1.8-1.4 1.1-21.1 1.5-22.5.2 1 10-5.9 10.6 9.4.2 4.1.9 16.6 5.3 18.2 4 1.4 7.5-2 8.4-5.6.7-2.8.3-11.8.3-16.5.3-7.6-2.9-22.6 8.2-15.2 16.2 14.6 5.7-32.6 6.2-37.7.5-5.4.5-24.5-2.4-29" fill="#6eb52c"/>
      <path d="M216.3-63.5a122 122 0 0 0-.6 13.5c-.1 5.1-.2 10.3-.4 15.4-.4 9.5-.3 18.9-.1 28.3.1 5.2.5 12.3 5.4 15.3 2.4 1.5 5.8 1.4 7.5-1.1 1.3-1.9 1.4-4.4 1.7-6.7a18.73 18.73 0 0 1 .8-3.4c.1-.4.1-.1 0-.1.1-.1.1-.2.2-.3a2.09 2.09 0 0 1 .4-.6c-.2.3.2-.2.3-.2-.4.3.6-.3.2-.1.3-.1.5-.1.8-.2-.3.1.1-.1.1 0 0-.1 1.1.4-.3 0 0 0-.5-.2-.2-.1s.1.2-.2-.1c.3.4-.1-.3.1.1.1.2.2.3.3.5s-.1-.3 0-.1.1.2.1.3c.1.5.3 1 .4 1.5 1 4.9.8 10.5 1 15.7a40.62 40.62 0 0 0 1 7.7c1 4.3 5.3 6.4 9.5 5.9a8.84 8.84 0 0 0 7.6-6.8 38.68 38.68 0 0 0 1-9.6 8.6 8.6 0 0 1 .1-1.6v-.4c0 .3-.1.1 0 0s.2-.5-.1.2c-1.2-.2-2.5-.3-3.7-.5a5.77 5.77 0 0 1 .3 1.4c.1.3.1.7.2 1 0 .1.1.8 0 .3 0 .3.1.5.1.8.3 2.4.6 4.8.8 7.2.5 4.8 1 9.7 1.7 14.5a7 7 0 0 0 1.9 4.3c2.3 2.2 6 2.9 8.7.9 1.9-1.4 2.3-3.1 2.6-5.3s.3-4.5.4-6.7c.1-2.9.3-5.8.4-8.7.1-1.1.1-2.2.2-3.3 0-.4.1-.7.1-1.1.1-.7-.1.3 0-.2h-3.9c.8 2.4 3.2 1.4 4.9 1 .2 0 .4-.1.6-.1.6-.1-.4 0 .2 0h.7c.2 0 .8.1.3 0a1.85 1.85 0 0 1 .7.2c.1 0 .2.1.3.1.3.1-.4-.2 0 0 .1.1.7.5.4.2l.6.6s.6 1 .7 1.2a8.28 8.28 0 0 1 .7 2.7 45.53 45.53 0 0 1 .4 5.3 48.27 48.27 0 0 0 1.7 11.3c1.1 3.6 3.1 7.1 7.3 7.2 4.9.1 8.4-4.7 8.9-9.2a94 94 0 0 0 .1-13c0-3.3-.1-6.6-.2-9.9a36.48 36.48 0 0 1 .1-4.7 2.25 2.25 0 0 1 .1-.7c.1-.3.1-.6.2-.9 0-.1.1-.2.1-.3.2-.5-.2.3.1-.1.1-.2.5-.7.2-.4.1-.2.4-.7.2-.3.1-.1.4-.1.1-.1h.6c.1 0 .4.1 0 0 .2 0 .4.1.6.1a12.48 12.48 0 0 1 3.8 2.3c1.8 1.4 3.9 2.7 6.3 2.2a5.59 5.59 0 0 0 3.9-3.7c1.8-4.4 1.3-9.8.9-14.4-.4-5.8-1.2-11.5-2-17.2-.1-.6 0 .1-.1-.5 0-.3-.1-.6-.1-.8-.1-.5-.1-1-.2-1.6-.1-.8-.2-1.7-.3-2.5a45.2 45.2 0 0 1 .2-5.2c.1-3.8.1-7.6-.1-11.4a71.1 71.1 0 0 0-1.3-11.3 10.9 10.9 0 0 0-1.4-4.2c-1.4-2.2-4.9-.2-3.5 2.1a2.09 2.09 0 0 0 .4.6c.1.1.1.3.2.4l.6 2.1c.3 1.5.5 3.1.7 4.7.4 3.9.5 7.8.6 11.8s-.5 8.2 0 12.3c.6 5.3 1.4 9.8 1.9 15.2q.45 4.2.6 8.4c0 1.3.1 2.6 0 3.9a8.6 8.6 0 0 1-.1 1.6 2.77 2.77 0 0 1-.1.9c0 .2-.1 1 0 .4a13.1 13.1 0 0 1-.6 2.7c0 .2-.3.7 0 .1-.1.2-.2.3-.2.5a.76.76 0 0 0-.2.4c-.1.3.4-.3-.1.1s.2-.2-.3.2c-.1.1.5-.1 0 0-.2 0-.7-.1-.1 0-.2 0-.3-.1-.5-.1s-.3-.1-.5-.2c.6.2-.2-.1-.3-.2a18.6 18.6 0 0 1-2.8-2.1 12.35 12.35 0 0 0-4.8-2.2c-3.1-.5-5.4 1.4-6.2 4.3s-.6 6.2-.5 9.3c.1 3.4.1 6.7.2 10.1 0 2.3.1 4.6 0 6.9a24.37 24.37 0 0 1-.1 2.7c-.1.9-.1 1.1-.2 1.9-.5 1.9-1.9 3.9-3.9 4.4a4.48 4.48 0 0 1-1.1.1 1.85 1.85 0 0 1-.7-.2c-.6-.2.3.2-.2-.1a2.23 2.23 0 0 1-.9-1c-1.7-2.8-2.2-6.5-2.5-9.8-.4-3.5-.2-7.2-1-10.7-.7-2.9-2.3-5.7-5.3-6.6a9.61 9.61 0 0 0-5.8.3c-.3.1-.5.1-.8.2s-.5 0 .2 0a2.09 2.09 0 0 1 1.7 1.4 2 2 0 0 0-3.9 0 27.1 27.1 0 0 0-.4 4c-.1 2.3-.2 4.5-.3 6.8s-.2 4.8-.4 7.2c-.1.9-.1 1.9-.2 2.8 0 .3-.1.7-.1 1 0 .1.1-.4 0 0 0 .1-.1.3-.1.4a.35.35 0 0 1-.1.2c0 .1.2-.4.2-.4s-.2.3-.3.4a2.15 2.15 0 0 1-1.2.9 2.86 2.86 0 0 1-2.6-.6c-.2-.2-.6-.9-.8-.9.2.1.1.6.1.2 0-.1-.1-.2-.1-.3l-.3-1.8c-.3-1.8-.5-3.5-.7-5.6-.3-2.5-.5-4.9-.8-7.4s-.5-5-.8-7.4a23.3 23.3 0 0 0-.8-4.6c-.5-1.5-2.9-2.2-3.7-.5-.9 2-.5 4.8-.7 7-.2 2.5-.2 6-2 7.8-2 2.1-6.9 2-7.8-1.1-.5-1.7-.5-3.5-.9-5.2v-.4a6.15 6.15 0 0 0-.1-1.3c-.2-5.3-.1-10.7-.9-15.9-.3-1.9-.8-4.4-2.5-5.5-2.2-1.4-5.2.2-6.5 2s-1.7 4.4-2 6.7c-.2 1.1-.3 2.2-.6 3.3-.1.2-.1.5-.2.7.1-.4 0 .1-.1.2s-.1.2-.2.3.2-.3 0-.1-.1.2-.2.2.3-.1 0 0 0 0 .1 0l-.3.1h-.4a3.28 3.28 0 0 1-1.4-.6 6.58 6.58 0 0 1-2-3.4 25.38 25.38 0 0 1-1.1-6.7c-.5-5.1-.5-10.2-.5-15.3 0-4.4-.1-8.9.2-13.2.6-9.3.4-18.6.9-27.9a3.4 3.4 0 0 1 .1-1c0-.4.1-.8 0-.2.1-1.2-.3-2.3-1.4-2.6a2.11 2.11 0 0 0-2.6 1.4Z" fill="#19642d"/>
    </g>
  </g>
  <g clip-path="url(#e)">
    <g clip-path="url(#f)">
      <path d="M1.5-1.5c5.3 9.5 9.9 13 9.9 13s-2.8 3.8 6.6 9 8.4-5.2 19.2-.9 13-1.9 13-1.9c-.3 2.7-.3 13.7-.7 16.4a10.6 10.6 0 0 0 1.4 7.2c1.6 2.3 3.9 3.6 4.4 6.5.5 2.7-1.2 8.5-2.3 11s-2.2 4.8-2 7.6c.2 2.6 1.8 5.2 4.5 5.6a4.92 4.92 0 0 0 2.9-.6 6.55 6.55 0 0 0 4.9 3.9 6.78 6.78 0 0 0 6-2c.8 3.8.3 7.9 1.2 11.7.8 3.5 2.8 7.2 6.2 8.6 3.9 1.6 7.9-.7 9.8-4.2 2.3-4.2 1.4-9.7.2-14.2a23.76 23.76 0 0 0-6.3-10.4 7.53 7.53 0 0 0 3.3-4.1c1.2-3.9-2.6-15.3-3.1-19.1 1.1 2.7 14.4-4.8 14 3.1-.1 2.9 6.4-4.4 6.4-4.3.4 4.1 5-23.6 8.9-22.8 13.7 1.8 15.2-19.1 15.2-19.1" fill="#6eb52c"/>
      <path d="M.2-.8A62.17 62.17 0 0 0 7.4 9.6a33.41 33.41 0 0 0 3.3 3.2 16 16 0 0 1-.5-2.1c-1.3 1.8-.4 4.4.8 6a17.93 17.93 0 0 0 6.3 5 11.27 11.27 0 0 0 6.1 1.7c3.1-.3 5.2-2.9 8.1-3.4 2.5-.4 4.7.8 7 1.5a14.75 14.75 0 0 0 7.5.7 7.48 7.48 0 0 0 5.7-4.3c-1-.1-2-.3-2.9-.4-.3 3.3-.3 6.6-.4 9.9-.1 1.7-.1 3.5-.2 5.2a20.12 20.12 0 0 0 .1 6c.6 2.5 2.2 4.3 3.9 6.1a6 6 0 0 1 1.7 5.4 36.39 36.39 0 0 1-1.6 6.3c-.8 2.4-2.1 4.6-2.5 7.1a9 9 0 0 0 1.8 7.6 6.25 6.25 0 0 0 7.7 1.4 16 16 0 0 0-2.1-.5 8 8 0 0 0 13.2 2.2 23.35 23.35 0 0 1-2.5-.7c1 4.8.2 9.7 2.1 14.4 1.5 3.6 4.3 7 8.4 7.5s7.9-2.2 9.6-5.8c2-4.1 1.6-8.8.6-13a26.85 26.85 0 0 0-7.1-13l-.3 2.4a8.29 8.29 0 0 0 4.2-6.3 25.15 25.15 0 0 0-.5-6.1c-.8-4.2-2.2-8.2-2.8-12.4l-2.7 1.2c.8 1.8 3.3 1.4 4.9 1.1a34.41 34.41 0 0 1 6.3-1 4.48 4.48 0 0 1 1.2.1 1.42 1.42 0 0 1 .6.2s.3.2.3.1c.6.5.5 1.2.6 2.1a2 2 0 0 0 2 2 4.32 4.32 0 0 0 2.6-1.3 32 32 0 0 0 2.7-2.5l1.1-1.1c.2-.2.8-.6.2-.3-.8-.4-1.5-.9-2.3-1.3.1.9.4 1.7 1.4 1.9a1.67 1.67 0 0 0 1.7-1 21.34 21.34 0 0 0 1.3-4.3c1.2-4.6 2.2-9.2 3.8-13.6a14.45 14.45 0 0 1 1.1-2.6c.2-.3.3-.7.5-1 .1-.1.2-.3.3-.4l.2-.2c.1-.1.3-.4 0-.1.2-.2-.1 0 0 0h-.4a.75.75 0 0 1 .5.1 2 2 0 0 1 .7.1 10.92 10.92 0 0 0 4-.4c4.9-1.3 7.9-5.8 9.7-10.4a33.82 33.82 0 0 0 2.2-9.9c.1-1.9-2.9-1.9-3 0a1.27 1.27 0 0 1-.1.6c0 .2-.1.4-.1.7v.1c0 .2-.1.3-.1.5a43.71 43.71 0 0 1-1.2 5.2c-1.2 3.8-3.1 8-6.9 9.8a9.47 9.47 0 0 1-3 .8c-1.1.1-2.1-.3-3.2 0-1.4.3-2.2 1.7-2.8 2.9a58.1 58.1 0 0 0-4 12.2c-.6 2.2-1.1 4.3-1.7 6.5-.2.6-.4 1.3-.6 1.9-.1.4-.1.1 0 0s0 .2-.1.2c.1 0 .2-.2.2-.2l2.2.3c0 .1.1.2.1.3v.1a1.59 1.59 0 0 0-2.3-1.3 3.84 3.84 0 0 0-1.1 1.1l-2.1 2.1a15.58 15.58 0 0 1-2 1.6c-.2.1-.1.1-.2.1s1.4.5.7.1c0 0 .6.7.5.7v-.5c0-.4-.1-.7-.1-1.1-.9-4.8-6.8-3.7-10.2-3a17.67 17.67 0 0 1-2.9.5h-1c-.2 0 .1.1.1.1-.8-1.7-3-.4-2.7 1.2.6 3.7 1.8 7.3 2.5 10.9s1.9 8.3-2 10.6a1.57 1.57 0 0 0-.3 2.4 22.58 22.58 0 0 1 5.8 9.6c1 3.4 1.8 7.2.9 10.8-.7 3.2-3.3 6.5-6.8 6.4s-5.6-3.2-6.7-6c-1.6-4.4-.9-9.2-1.9-13.7a1.54 1.54 0 0 0-2.5-.7c-2.8 2.7-6.8 1.8-8.5-1.6a1.49 1.49 0 0 0-2.1-.5c-2.2 1.1-4.2-.4-4.8-2.5-.8-2.4.2-5 1.1-7.2 1.5-3.5 2.9-7.4 2.9-11.3a8.54 8.54 0 0 0-2-5.4c-1.4-1.7-3.2-3.1-3.8-5.4a16.32 16.32 0 0 1-.1-5.4c.1-1.5.1-3.1.2-4.6.1-3.5.1-7 .4-10.5.2-1.8-2.4-1.9-2.9-.4.2-.5.1-.2 0 0s-.1.2-.2.3c-.2.4.1-.1-.2.3a5.13 5.13 0 0 1-2.6 1.5c-4.5 1.1-8.6-2.2-13.1-2.3-3.1-.1-5.2 1.6-7.9 2.9-3.2 1.6-7.3-1.1-9.8-3.2a7 7 0 0 1-2-2.2 3 3 0 0 1-.4-.8 1.76 1.76 0 0 1-.1-.6c0-.2.1-.8 0-.4 0-.2.1-.3.1-.5 0 .1-.1.2.1-.1a1.6 1.6 0 0 0-.5-2.1c.7.5-.4-.3-.5-.5-.7-.7-1.4-1.4-2.1-2.2A54.78 54.78 0 0 1 2.5-2C1.9-3.9-.7-2.4.2-.8Z" fill="#19642d"/>
    </g>
  </g>
  <g clip-path="url(#g)">
    <g clip-path="url(#h)">
      <path d="M1576.84-1.5c5.3 9.5 9.9 13 9.9 13s-2.8 3.8 6.6 9 8.4-5.2 19.2-.9 13-1.9 13-1.9c-.3 2.7-.3 13.7-.7 16.4a10.6 10.6 0 0 0 1.4 7.2c1.6 2.3 3.9 3.6 4.4 6.5.5 2.7-1.2 8.5-2.3 11s-2.2 4.8-2 7.6c.2 2.6 1.8 5.2 4.5 5.6a4.92 4.92 0 0 0 2.9-.6 6.55 6.55 0 0 0 4.9 3.9 6.78 6.78 0 0 0 6-2c.8 3.8.3 7.9 1.2 11.7.8 3.5 2.8 7.2 6.2 8.6 3.9 1.6 7.9-.7 9.8-4.2 2.3-4.2 1.4-9.7.2-14.2a23.76 23.76 0 0 0-6.3-10.4 7.53 7.53 0 0 0 3.3-4.1c1.2-3.9-2.6-15.3-3.1-19.1 1.1 2.7 14.4-4.8 14 3.1-.1 2.9 6.4-4.4 6.4-4.3.4 4.1 5-23.6 8.9-22.8 13.7 1.8 15.2-19.1 15.2-19.1" fill="#6eb52c"/>
      <path d="M1575.54-.8a62.17 62.17 0 0 0 7.2 10.4 33.41 33.41 0 0 0 3.3 3.2 16 16 0 0 1-.5-2.1c-1.3 1.8-.4 4.4.8 6a17.93 17.93 0 0 0 6.3 5 11.27 11.27 0 0 0 6.1 1.7c3.1-.3 5.2-2.9 8.1-3.4 2.5-.4 4.7.8 7 1.5a14.75 14.75 0 0 0 7.5.7 7.48 7.48 0 0 0 5.7-4.3c-1-.1-2-.3-2.9-.4-.3 3.3-.3 6.6-.4 9.9-.1 1.7-.1 3.5-.2 5.2a20.12 20.12 0 0 0 .1 6c.6 2.5 2.2 4.3 3.9 6.1a6 6 0 0 1 1.7 5.4 36.39 36.39 0 0 1-1.6 6.3c-.8 2.4-2.1 4.6-2.5 7.1a9 9 0 0 0 1.8 7.6 6.25 6.25 0 0 0 7.7 1.4 16 16 0 0 0-2.1-.5 8 8 0 0 0 13.2 2.2 23.35 23.35 0 0 1-2.5-.7c1 4.8.2 9.7 2.1 14.4 1.5 3.6 4.3 7 8.4 7.5s7.9-2.2 9.6-5.8c2-4.1 1.6-8.8.6-13a26.85 26.85 0 0 0-7.1-13l-.3 2.4a8.29 8.29 0 0 0 4.2-6.3 25.15 25.15 0 0 0-.5-6.1c-.8-4.2-2.2-8.2-2.8-12.4l-2.7 1.2c.8 1.8 3.3 1.4 4.9 1.1a34.41 34.41 0 0 1 6.3-1 4.48 4.48 0 0 1 1.2.1 1.42 1.42 0 0 1 .6.2s.3.2.3.1c.6.5.5 1.2.6 2.1a2 2 0 0 0 2 2 4.32 4.32 0 0 0 2.6-1.3 32 32 0 0 0 2.7-2.5l1.1-1.1c.2-.2.8-.6.2-.3-.8-.4-1.5-.9-2.3-1.3.1.9.4 1.7 1.4 1.9a1.67 1.67 0 0 0 1.7-1 21.34 21.34 0 0 0 1.3-4.3c1.2-4.6 2.2-9.2 3.8-13.6a14.45 14.45 0 0 1 1.1-2.6c.2-.3.3-.7.5-1 .1-.1.2-.3.3-.4l.2-.2c.1-.1.3-.4 0-.1.2-.2-.1 0 0 0h-.4a.75.75 0 0 1 .5.1 2 2 0 0 1 .7.1 10.92 10.92 0 0 0 4-.4c4.9-1.3 7.9-5.8 9.7-10.4a33.82 33.82 0 0 0 2.2-9.9c.1-1.9-2.9-1.9-3 0a1.27 1.27 0 0 1-.1.6c0 .2-.1.4-.1.7v.1c0 .2-.1.3-.1.5a43.71 43.71 0 0 1-1.2 5.2c-1.2 3.8-3.1 8-6.9 9.8a9.47 9.47 0 0 1-3 .8c-1.1.1-2.1-.3-3.2 0-1.4.3-2.2 1.7-2.8 2.9a58.1 58.1 0 0 0-4 12.2c-.6 2.2-1.1 4.3-1.7 6.5-.2.6-.4 1.3-.6 1.9-.1.4-.1.1 0 0s0 .2-.1.2c.1 0 .2-.2.2-.2l2.2.3c0 .1.1.2.1.3v.1a1.59 1.59 0 0 0-2.3-1.3 3.84 3.84 0 0 0-1.1 1.1l-2.1 2.1a15.58 15.58 0 0 1-2 1.6c-.2.1-.1.1-.2.1s1.4.5.7.1c0 0 .6.7.5.7v-.5c0-.4-.1-.7-.1-1.1-.9-4.8-6.8-3.7-10.2-3a17.67 17.67 0 0 1-2.9.5h-1c-.2 0 .1.1.1.1-.8-1.7-3-.4-2.7 1.2.6 3.7 1.8 7.3 2.5 10.9s1.9 8.3-2 10.6a1.57 1.57 0 0 0-.3 2.4 22.58 22.58 0 0 1 5.8 9.6c1 3.4 1.8 7.2.9 10.8-.7 3.2-3.3 6.5-6.8 6.4s-5.6-3.2-6.7-6c-1.6-4.4-.9-9.2-1.9-13.7a1.54 1.54 0 0 0-2.5-.7c-2.8 2.7-6.8 1.8-8.5-1.6a1.49 1.49 0 0 0-2.1-.5c-2.2 1.1-4.2-.4-4.8-2.5-.8-2.4.2-5 1.1-7.2 1.5-3.5 2.9-7.4 2.9-11.3a8.54 8.54 0 0 0-2-5.4c-1.4-1.7-3.2-3.1-3.8-5.4a16.32 16.32 0 0 1-.1-5.4c.1-1.5.1-3.1.2-4.6.1-3.5.1-7 .4-10.5.2-1.8-2.4-1.9-2.9-.4.2-.5.1-.2 0 0s-.1.2-.2.3c-.2.4.1-.1-.2.3a5.13 5.13 0 0 1-2.6 1.5c-4.5 1.1-8.6-2.2-13.1-2.3-3.1-.1-5.2 1.6-7.9 2.9-3.2 1.6-7.3-1.1-9.8-3.2a7 7 0 0 1-2-2.2 3 3 0 0 1-.4-.8 1.76 1.76 0 0 1-.1-.6c0-.2.1-.8 0-.4 0-.2.1-.3.1-.5 0 .1-.1.2.1-.1a1.6 1.6 0 0 0-.5-2.1c.7.5-.4-.3-.5-.5-.7-.7-1.4-1.4-2.1-2.2a54.78 54.78 0 0 1-6.7-9.8c-.6-1.9-3.2-.4-2.3 1.2Z" fill="#19642d"/>
    </g>
  </g>
  <!-- <g clip-path="url(#i)">
    <path d="M237.39 1280.24c4.05-6.32 17.33-3.9 20.77 2.64S258 1297.07 253 1303s-11.27 11.28-14 18c-2.56 6.33-4.38 15.35-12.54 15.41-7.15 0-22.93-7.76-29.95-8.91-11.39-1.88-20.9 14.63-30.68 9.51-2.56-1.37-16-4-18.68-5.17-6.81-3-14.91 5-22.26 2.86-5.59-1.65-6.47-8-10.86-11.28-6.74-5.11-17.66-1-24.61 3.91s-30 11-38.91 9.13c-3.44-.71-18.35-7.42-21.65-8.41-7.82-2.32-16.32.38-24.21 2.36-12.48 3.08-13.56 9.41-26.57 9-4.52-.17-9.24-.55-13.22-2.26-3.1-1.32-5.66-3.41-8.36-5.17-9.92-6.38-23.4-9-35.74-6.88-6.88-5.77-9.85-14.9-5.67-22.16s16.19-11.28 24.75-7.21c-6.68-6.27-13.55-12.76-16.39-20.73s-12.27-17.82-3.57-22.06c5.46 1.6 10.92 3.19 16.39 4.84-12.88-12.26-26.17-30.42-13.9-43.07 3.24-3.35 7.89-5.66 10.86-9.13 15.11-17.76-24.21-43.39-9-61 2.57-3-7.08-28.27-3.91-30.85 5.87-4.79 22.8 12 26.17 5.83 9.78-18 31.42-39.55 19.15-56.49 7-5.67 19.69-3.74 26.44 2.14s9 14.31 10 22.28c.81 5.89 3.51 13.7 10.79 13.42 3.78-.16 6.68-2.75 9.11-5.11 4.45-4.35 8.9-8.75 13.35-13.09 1.62-1.6 3.51-3.3 6-3.69 5.87-.88 8.91 5.56 9 10.45s.74 11.22 6.48 12.38c10.18-3.63 14.83-13.59 14.83-22.66s-3.57-17.88-4.92-26.85c-.4-2.53-.61-5.22.68-7.59 4.72-8.63 22.45-2.86 25.35 6.27s-1.75 18.76-1.14 28.17 12.4 19.8 22.32 14.85c8.43-4.24 8-16.5 17.53-18.7 11.33-2.64 23.67 12.43 32.37 6 2.16-1.65 3-4.12 3.91-6.38 3.58-8.42 15.58-16.28 24.75-11.39 11.13 6 8 25.42 21.31 25.14 11.74-.27 10.19-15.78 18.35-22.66 12.47 1.48 22.86 10.84 23.47 21.12 1.08 18.48-25 32.34-24.21 50.82.67 16.78 23.67 30.75 18.47 47-3.91 12.16-7.82 22.33-1.07 33.55 2.76 4.57 9.44 7.59 10 12.65.34 2.7-1.28 5.28-2.76 7.7-7.69 12.16 8.63 24.32.94 36.53" fill="#6eb52c"/>
  </g>
  <g clip-path="url(#i)">
    <path d="M240 1281.45c2.63-4 9.91-2.69 13.49.22 6.07 4.9 1.89 13.48-1.82 18.43-4.93 6.6-11.8 12-15.24 19.36-1.29 2.69-2 5.55-3.24 8.31-.88 2-2.09 4.51-4.32 5.61s-4.31.49-6.67-.11a90 90 0 0 1-9.45-3.08c-3.43-1.27-6.87-2.59-10.45-3.74a24.18 24.18 0 0 0-8.22-1.55c-6.34.28-11.4 4.08-16.12 7.16a25.1 25.1 0 0 1-6.27 3.19c-.28 0-.61.16-.88.22-1 .16.54 0-.41 0h-.87c-1 0 .27.06-.27 0a12 12 0 0 1-2.77-1c-5.33-2-11.33-2.8-16.86-4.45-.27-.06-.47-.17-.74-.22.61.22.2.05.07 0a22.88 22.88 0 0 0-2.16-.77 13.05 13.05 0 0 0-5.67-.11c-3.43.55-6.54 2.09-9.77 3-3 .83-5.74 1-7.83-1.15s-3.23-5-5.26-7.32c-5.46-6-14.5-5.72-22.12-2.75a32.81 32.81 0 0 0-5.19 2.53c-.94.55-1.89 1.1-2.76 1.7-.54.39-1.22.83-1.35.89a49.1 49.1 0 0 1-7.89 3.52 90 90 0 0 1-20 4.67 35.59 35.59 0 0 1-4.25.22h-2a9 9 0 0 1-1.22-.17c-.4 0-.74-.22-1.08-.27-.13-.06-.33-.11-.47-.17.61.22-.27-.11-.34-.11l-3.91-1.48c-5.19-2.09-10.25-4.62-15.71-6.28-4.65-1.43-9.71-1.15-14.5-.38a105 105 0 0 0-14.3 3.47 51.11 51.11 0 0 0-9.57 4.4 25.79 25.79 0 0 1-8 3.35 36.32 36.32 0 0 1-13.35-.44c-4.73-1-8-3.52-11.67-5.94a54 54 0 0 0-25.16-8.14 59.06 59.06 0 0 0-13.55.6l3 .66c-6.07-5.22-9.18-13.8-4.46-20.35 3.85-5.28 12.95-8.3 19.83-5.17 3.1 1.43 5.94-1.81 3.71-3.9a102.21 102.21 0 0 1-10.18-10.45 41.68 41.68 0 0 1-3.85-5.61c-1-1.82-1.55-3.8-2.42-5.67-1.62-3.52-3.78-6.82-5.26-10.34-1-2.47-1.89-5.28 1.14-6.82-.81.11-1.55.17-2.36.28 5.46 1.59 10.93 3.19 16.39 4.84 3.1.93 4.72-2.42 3-4.13a87 87 0 0 1-11.87-13.69c-3-4.46-5.6-9.41-5.94-14.58-.33-5 1.62-9.46 5.87-13 2.43-2 5.26-3.74 7.55-5.88a20.31 20.31 0 0 0 4.32-5.72c3.44-7 .61-14.8-2.7-21.45-3.64-7.32-8.56-14.3-10.92-22a16 16 0 0 1-.34-9.41c.88-2.59 3.44-4.62 3.44-7.59a42.17 42.17 0 0 0-1.48-9.08c-.81-3.63-1.76-7.26-2.57-10.89-.2-.82-.33-1.7-.54-2.53a4 4 0 0 0-.13-.66c-.07-.38-.14-.82-.2-1.21a15.75 15.75 0 0 1-.14-1.81v-.83c0-.27.27-1 0-.27.07-.17.07-.33.14-.5.2-.33-.34.61-.07.17-.54 1 0 .11-.34.33s0 0 .14-.06c-.48.28.4-.11.13 0h.68c.14 0 .53.11-.07 0a1.34 1.34 0 0 1 .47.11c.4.11.74.16 1.15.27l.54.17c.2.05.2.05-.07 0l.4.16c3.58 1.38 6.81 3.36 10.19 5 2.83 1.37 6.47 3.08 9.84 2.14 2.23-.6 3-2.09 3.91-3.68 1.35-2.37 2.84-4.73 4.39-7 3.17-4.84 6.47-9.57 9.44-14.47 5.46-9 10.72-19.3 7.89-29.42a21 21 0 0 0-3.31-6.66c-.13 1-.33 2-.47 3 6.07-4.78 16.39-2.58 21.85 1.87 7.29 6 8.37 14.69 9.78 22.56 1.08 6.32 5.06 15.29 14.91 14 5.46-.71 9-4.78 12.2-8 4-4 7.89-8.09 12.14-11.88 1.15-1 2.77-2.37 4.52-1.93a4.94 4.94 0 0 1 2.76 2.64c1.69 3 1.22 6.22 1.62 9.41.47 3.46 1.55 7.2 5.2 9.4a8.63 8.63 0 0 0 2.63 1.1 5.87 5.87 0 0 0 4.11-.55 28.06 28.06 0 0 0 5.6-3.3c6.74-5.39 9.64-13.53 9.64-21a66.52 66.52 0 0 0-2.22-14.91c-1.15-4.78-2.77-9.62-3-14.52-.07-1.76.2-3.79 1.48-5.06a5.38 5.38 0 0 1 2.9-1.54 10.23 10.23 0 0 1 4.05 0 18.12 18.12 0 0 1 4.58 1.43 14 14 0 0 1 6.81 5.89c2 4 1.49 8.8.95 13-.68 4.79-1.82 9.63-1.69 14.47a19.14 19.14 0 0 0 4 11.22c4.59 6 13.62 11.22 22.32 7.42 7.22-3.13 8.64-10.12 12.55-15.34a8.69 8.69 0 0 1 6.81-3.69c3.17 0 6.41 1.38 9.24 2.7 5.87 2.69 13.08 7.15 20 4.34 4.65-1.87 5.73-5.88 7.42-9.51a19.46 19.46 0 0 1 8-8.31c3-1.71 7-3 10.66-1.65a11.65 11.65 0 0 1 5.93 5.39c3 4.84 3.84 10.51 7.22 15.24a12.63 12.63 0 0 0 6.94 5 14.83 14.83 0 0 0 10-.88c6.21-3.08 7.69-9.9 10-15.07a18.87 18.87 0 0 1 4.66-7l-3 .66c8.77 1.1 16.52 6.16 19.69 12.93 3.11 6.54 1.22 13.36-2.42 19.47-7.42 12.26-21.58 23.7-20.1 38.39.74 7.48 5.12 14.13 9.58 20.57 4 5.83 8.9 12.1 9.5 18.92.34 3.91-1.21 7.48-2.36 11.22a58.38 58.38 0 0 0-3 13.48 27 27 0 0 0 2.22 13.2 23.11 23.11 0 0 0 3.58 5.72c1.41 1.54 3 2.91 4.58 4.4a10.41 10.41 0 0 1 3 4.07c.6 2-.41 4-1.49 5.83-2.22 3.63-3.57 7.21-3.17 11.33.75 7.26 5.67 14.08 5.06 21.4a10.94 10.94 0 0 1-1.69 4.89c-1.75 2.86 3.51 5.34 5.26 2.48 2.7-4.46 3-9.19 1.76-14-1.08-4.51-3.24-8.74-4.11-13.31a13.88 13.88 0 0 1 0-6c.67-2.53 2.42-4.62 3.5-7a9.07 9.07 0 0 0 .2-8 19.76 19.76 0 0 0-5-5.94 24.39 24.39 0 0 1-4.85-5.28 22.19 22.19 0 0 1-2.83-7.76c-.88-5.44.4-10.89 2-16.11 1.49-4.9 3.71-9.79 3.17-14.91-.47-4.4-2.36-8.52-4.65-12.48-4.72-8-11.67-15.41-14-24.21-2.16-8.47 2.63-16.33 7.89-23.37 5.53-7.37 12.14-14.63 14.77-23.1 2.83-9.24-.54-18.92-9.31-25.3-4.18-3.09-10.05-5.89-15.78-6.17-2.77-.16-4.65 2.64-5.87 4.35a35.55 35.55 0 0 0-2.83 5.34c-1.48 3.3-2.49 6.82-4.65 9.79a7.68 7.68 0 0 1-3 2.64 8.29 8.29 0 0 1-4.18.33c-.2-.06-1.08-.33-.67-.17a6.87 6.87 0 0 1-1-.44c-.07 0-.48-.27-.07 0l-.41-.33-.94-.77a3.58 3.58 0 0 1-.47-.49l-.68-.88c-.4-.55-.87-1.43-1.08-1.76-1.68-3.19-2.69-6.55-4.18-9.79s-3.5-6.61-6.81-8.92a17.77 17.77 0 0 0-15.31-2 26.42 26.42 0 0 0-13.15 9.41 34.34 34.34 0 0 0-3.44 6.71 7 7 0 0 1-2 2.75 5.44 5.44 0 0 1-1.76.88 4.48 4.48 0 0 1-2 .11c.34 0-.61-.11-.81-.11-.54-.11-1.15-.27-1.69-.44a45.68 45.68 0 0 1-5.39-2.25c-4-1.87-8.09-4.07-12.68-4.79s-9.51.28-12.81 3.19-4.72 6.55-6.75 10c-1.68 2.91-4.11 6.43-8.49 6.82-4.72.44-9-2.92-11.33-5.94-7.49-9.52-.27-21.29-1.35-31.74A16.62 16.62 0 0 0 90.1 1043a25 25 0 0 0-12.94-5c-4.45-.38-8.91 1-11.54 4.07-4.11 4.79-2 11.61-.74 16.89 2.36 10.34 6.41 21.62.74 31.74a19.46 19.46 0 0 1-10.45 9c.81-.11 1.55-.16 2.36-.27-3.78-.88-4.05-5.34-4.18-8-.2-4-.4-8-3.37-11.38a10.37 10.37 0 0 0-13.42-1.93c-2.63 1.6-4.52 3.91-6.61 5.94l-6.88 6.77a67.3 67.3 0 0 1-6.41 6c-1.48 1.1-3.57 2-5.59 1.43-3.51-1-4.79-5.39-5.47-8.08-1.08-4.4-1.35-8.91-2.76-13.26A30.53 30.53 0 0 0-5 1064.19c-7.62-7.15-22.53-9.85-31.5-2.86a2.23 2.23 0 0 0-.47 3c6.21 8.7 2.36 18.93-2.43 27.4-2.76 5-6.07 9.79-9.23 14.57-1.62 2.37-3.17 4.79-4.66 7.21-.67 1.1-1.35 2.2-1.95 3.3-.27.49-.61 1-.88 1.54a1.49 1.49 0 0 1-.27.38c-.2.28.4-.38.07 0-.14.11.33-.17.4-.17-.67.22.68-.11-.2 0-.67.11.13.06-.2 0s-.74-.16-1.15-.27-.13 0 0 0c-.2-.06-.4-.17-.61-.22-.4-.17-.81-.33-1.14-.5-.81-.38-1.69-.77-2.5-1.21a77 77 0 0 0-10.79-5.11c-3.24-1.1-7.82-1.43-10 1.37-1.55 1.93-.94 4.79-.61 6.93.61 3.69 1.49 7.32 2.36 10.89.48 1.82.88 3.63 1.29 5.5.2.77.33 1.6.47 2.37.07.38.13.77.2 1.15 0 .06.07.5 0 .11.07.22.07.5.13.72.07.6.14 1.21.21 1.76v1a1.08 1.08 0 0 1-.14.44c-.13.27.47-.5.07-.17a9.87 9.87 0 0 0-1.75 2.48 16.62 16.62 0 0 0-2.09 10.56c1 8 5.73 15.35 9.71 22.61a64.4 64.4 0 0 1 4.92 10.61c1.08 3.14 1.69 6.55.94 9.57-1.07 4.35-4.65 7.21-8.7 10.18-5 3.68-8.83 8-9.91 13.53-2 10.83 5.19 21.56 12.81 30 2 2.31 4.25 4.51 6.48 6.71 1-1.37 2-2.75 3-4.12l-9.51-2.81c-1.55-.44-3-.88-4.59-1.37-1.75-.55-3.24-1.1-5.06-.22-4.18 2.14-5.26 5.94-4.38 9.68.88 3.9 3.37 7.48 5.26 11.11 1 1.92 1.69 4 2.56 5.94a37.13 37.13 0 0 0 3.85 6.6c3.5 4.78 8 9 12.47 13.14 1.22-1.32 2.43-2.58 3.71-3.9-8.09-3.69-18.34-1.76-24.75 3.41-7.28 5.88-7.89 15-4 22.38a26.88 26.88 0 0 0 3.7 5.23 21.94 21.94 0 0 0 2.36 2.26c1.42 1 3 .6 4.66.38a48.25 48.25 0 0 1 15.17.5 46.94 46.94 0 0 1 14.43 5.11c4.66 2.59 8.37 6 13.76 7.59a44.06 44.06 0 0 0 16.32 1.27 27.57 27.57 0 0 0 11-3.8 45.75 45.75 0 0 1 10.93-5c5.46-1.43 11.26-3.24 17.06-3.3a22.55 22.55 0 0 1 4.17.35c.61.11 1.21.28 1.89.44.27.06.67.22.13.06 1.22.44 2.5.93 3.71 1.43 3.37 1.37 6.68 2.8 10.05 4.12a44.83 44.83 0 0 0 8 2.86 35.67 35.67 0 0 0 10.52 0 96.3 96.3 0 0 0 24.14-6.22c7.08-2.86 12.75-8.8 21.17-9.13 9.65-.33 9.38 10 16.73 13 4.25 1.76 8.7.77 12.88-.66 2.9-1 6.81-3 10-2 2.9.93 5.8 1.76 8.84 2.47l5.46 1.32c.81.22 1.62.44 2.49.66.27.11.61.17.88.28a1.27 1.27 0 0 0 .4.11c.41.11-.4-.17.07 0 3 1.27 5.67 2 9 1.32s6.27-2.53 9-4.23a61.22 61.22 0 0 1 8.43-5 10.67 10.67 0 0 1 7.62-.66c8 2 15 5.66 22.79 7.64 3.58.94 7.29 1.43 10.79.11 3.71-1.37 5.87-4.51 7.36-7.48 1.55-3.13 2.42-6.44 3.84-9.57 1.82-4.07 5.12-7.59 8.29-11 6.55-7.1 13.56-15.18 11.67-24.59-1.35-6.93-9.37-12-18.07-11.33-3.92.33-7.42 2-9.38 4.84s3.43 5.47 5.3 2.66Z" fill="#19642d"/>
  </g> -->
  <!-- <g clip-path="url(#j)">
    <path d="M1742 1298.71c2.63-4.86 9.91-3.31 13.49.27 6.07 6 1.89 16.53-1.82 22.61-4.93 8.1-11.8 14.78-15.24 23.75-1.29 3.31-2 6.82-3.24 10.19-.88 2.5-2.09 5.54-4.32 6.89s-4.31.61-6.67-.14a75.23 75.23 0 0 1-9.44-3.78c-3.44-1.55-6.88-3.17-10.46-4.59-2.63-1-5.33-2-8.23-1.89-6.33.34-11.39 5-16.11 8.78-1.89 1.48-4.32 3.31-6.27 3.91-.27.07-.61.2-.88.27-.95.2.54 0-.41.07h-.87c-1-.07.27.07-.27 0a10.77 10.77 0 0 1-2.77-1.21c-5.33-2.5-11.33-3.45-16.86-5.47-.27-.07-.47-.2-.74-.27.61.27.2.07.07 0a21.05 21.05 0 0 0-2.16-.95 10.76 10.76 0 0 0-5.66-.13c-3.44.67-6.55 2.56-9.78 3.71-3 1-5.74 1.28-7.83-1.42s-3.23-6.14-5.26-9c-5.46-7.43-14.5-7-22.12-3.38a31 31 0 0 0-5.19 3.11c-.94.67-1.89 1.35-2.76 2.09a16.65 16.65 0 0 1-1.35 1.08 45.84 45.84 0 0 1-7.89 4.32 76.7 76.7 0 0 1-20 5.74 30.32 30.32 0 0 1-4.25.27 19.38 19.38 0 0 1-2-.07 7.69 7.69 0 0 1-1.22-.2c-.4-.07-.74-.27-1.08-.34-.13-.07-.33-.14-.47-.2.61.27-.27-.14-.34-.14-1.28-.61-2.63-1.21-3.91-1.82-5.19-2.57-10.25-5.67-15.71-7.7-4.65-1.75-9.71-1.41-14.5-.47a89.17 89.17 0 0 0-14.3 4.25 47.74 47.74 0 0 0-9.57 5.4 23.51 23.51 0 0 1-8 4.12 29.82 29.82 0 0 1-13.35-.54c-4.73-1.22-8-4.32-11.67-7.29a47.6 47.6 0 0 0-25.16-10 48.15 48.15 0 0 0-13.55.75l3 .81c-6.07-6.42-9.18-16.94-4.45-25 3.84-6.47 12.94-10.19 19.82-6.34 3.1 1.76 5.94-2.23 3.71-4.79a117.35 117.35 0 0 1-10.18-12.82 52.73 52.73 0 0 1-3.85-6.89c-1-2.22-1.55-4.65-2.42-7-1.62-4.32-3.78-8.37-5.26-12.69-1-3-1.89-6.47 1.14-8.36-.81.13-1.55.2-2.36.33 5.46 2 10.93 3.92 16.39 5.94 3.1 1.15 4.72-3 3-5.06a103.49 103.49 0 0 1-11.87-16.8c-3-5.47-5.6-11.54-5.94-17.89a20.73 20.73 0 0 1 5.87-16c2.43-2.5 5.26-4.59 7.55-7.22a25.11 25.11 0 0 0 4.32-7c3.44-8.57.61-18.16-2.7-26.32-3.64-9-8.56-17.55-10.92-27a23.93 23.93 0 0 1-.34-11.54c.88-3.17 3.44-5.67 3.44-9.31a62.76 62.76 0 0 0-1.48-11.14c-.81-4.45-1.76-8.9-2.57-13.36-.2-1-.33-2.09-.54-3.1a5.21 5.21 0 0 0-.13-.81c-.07-.48-.14-1-.2-1.49-.07-.74-.14-1.48-.14-2.23v-1c0-.34.27-1.21 0-.34.07-.2.07-.4.14-.6.2-.41-.34.74-.07.2-.54 1.21 0 .14-.34.4s0 0 .14-.06c-.48.33.4-.14.13-.07-.47.07.54 0 .68 0s.54.13-.07 0a1.38 1.38 0 0 1 .47.13c.4.14.74.21 1.15.34.2.07.33.14.54.2s.2.07-.07 0l.4.21c3.58 1.68 6.81 4.11 10.19 6.14 2.83 1.69 6.47 3.78 9.84 2.63 2.23-.74 3-2.56 3.91-4.52 1.35-2.9 2.84-5.8 4.39-8.64 3.17-5.94 6.47-11.74 9.44-17.75 5.46-11 10.72-23.69 7.89-36.1a28.8 28.8 0 0 0-3.31-8.17c-.13 1.21-.33 2.43-.47 3.71 6.07-5.87 16.39-3.17 21.85 2.3 7.29 7.35 8.37 18 9.78 27.67 1.08 7.76 5.06 18.76 14.91 17.21 5.46-.88 9-5.88 12.2-9.79 4-4.86 7.89-9.92 12.14-14.58 1.15-1.28 2.77-2.9 4.52-2.36 1.28.41 2.22 2 2.76 3.24 1.69 3.71 1.22 7.63 1.62 11.54.47 4.25 1.55 8.84 5.2 11.54a7.92 7.92 0 0 0 2.63 1.35 5 5 0 0 0 4.11-.67 27.83 27.83 0 0 0 5.6-4c6.74-6.62 9.64-16.61 9.64-25.78a98.63 98.63 0 0 0-2.22-18.29c-1.15-5.87-2.77-11.81-3-17.82-.07-2.16.2-4.66 1.48-6.21a5.14 5.14 0 0 1 2.9-1.89 8.17 8.17 0 0 1 4.05 0 15.71 15.71 0 0 1 4.58 1.76 15.33 15.33 0 0 1 6.81 7.22c2 4.86 1.49 10.8 1 15.92-.68 5.88-1.82 11.81-1.69 17.75a27 27 0 0 0 4 13.77c4.59 7.42 13.62 13.77 22.32 9.11 7.22-3.85 8.64-12.42 12.55-18.83 1.62-2.56 3.84-4.45 6.81-4.52 3.17 0 6.41 1.69 9.24 3.31 5.87 3.3 13.08 8.77 20 5.33 4.65-2.3 5.73-7.22 7.42-11.68a22.49 22.49 0 0 1 8-10.19c3-2.09 7-3.64 10.66-2 2.83 1.28 4.51 3.78 5.93 6.61 3 5.94 3.84 12.89 7.22 18.7a13 13 0 0 0 6.94 6.07 12.31 12.31 0 0 0 10-1.08c6.21-3.78 7.69-12.15 10-18.49a23.83 23.83 0 0 1 4.65-8.57l-3 .81a25.55 25.55 0 0 1 19.69 15.86c3.11 8 1.22 16.4-2.42 23.89-7.42 15-21.59 29.09-20.1 47.1.74 9.18 5.12 17.35 9.57 25.24 4 7.16 8.91 14.85 9.51 23.22.34 4.79-1.21 9.18-2.36 13.77a85.79 85.79 0 0 0-3 16.53 39.94 39.94 0 0 0 2.22 16.2 29.79 29.79 0 0 0 3.58 7c1.41 1.89 3 3.58 4.58 5.4a12.86 12.86 0 0 1 3 5c.6 2.5-.41 4.93-1.49 7.15-2.22 4.46-3.57 8.85-3.17 13.91.74 8.91 5.67 17.27 5.06 26.25a15.72 15.72 0 0 1-1.68 6c-1.76 3.51 3.5 6.54 5.26 3 2.69-5.46 3-11.27 1.75-17.21-1.08-5.53-3.24-10.73-4.12-16.33a21.26 21.26 0 0 1 0-7.42c.68-3.11 2.43-5.67 3.51-8.64a13.36 13.36 0 0 0 .2-9.85 23.91 23.91 0 0 0-5-7.29 28.51 28.51 0 0 1-4.85-6.48 31.37 31.37 0 0 1-2.83-9.52c-.88-6.68.4-13.36 2-19.77 1.48-6 3.71-12 3.17-18.29a45.36 45.36 0 0 0-4.65-15.32c-4.72-9.78-11.67-18.9-14-29.69-2.16-10.4 2.63-20.05 7.89-28.69 5.53-9 12.14-18 14.77-28.34a31.15 31.15 0 0 0-9.31-31c-4.18-3.78-10-7.23-15.78-7.56-2.76-.21-4.65 3.24-5.87 5.33a47.82 47.82 0 0 0-2.83 6.54c-1.48 4-2.49 8.37-4.65 12a8.43 8.43 0 0 1-3 3.24 6.77 6.77 0 0 1-4.18.4c-.2-.07-1.08-.4-.67-.2a7.6 7.6 0 0 1-1-.54c-.07-.07-.48-.34-.07 0l-.41-.41-.94-.94a4.21 4.21 0 0 1-.47-.61c-.21-.34-.48-.74-.68-1.08-.4-.67-.87-1.75-1.08-2.16-1.68-3.91-2.69-8-4.18-12s-3.5-8.1-6.81-10.93a15 15 0 0 0-15.31-2.43 27.41 27.41 0 0 0-13.15 11.54 46.2 46.2 0 0 0-3.44 8.23 8.9 8.9 0 0 1-1.95 3.38 5.19 5.19 0 0 1-1.76 1.08 3.73 3.73 0 0 1-2 .13c.34 0-.61-.13-.81-.13-.54-.14-1.15-.34-1.69-.54a41.75 41.75 0 0 1-5.39-2.77c-4-2.3-8.09-5-12.68-5.87a13.65 13.65 0 0 0-12.81 3.91c-3.24 3.51-4.72 8-6.75 12.22-1.68 3.57-4.11 7.89-8.49 8.37-4.72.54-9-3.58-11.33-7.29-7.49-11.68-.27-26.12-1.35-38.94-.47-5.74-2.23-10.87-6.48-14.92a22.45 22.45 0 0 0-12.94-6.07 12.23 12.23 0 0 0-11.54 5c-4.11 5.87-1.95 14.24-.74 20.72 2.36 12.69 6.41 26.52.74 38.94a21.3 21.3 0 0 1-10.45 11c.81-.13 1.55-.2 2.36-.34-3.78-1.08-4-6.54-4.18-9.78-.2-4.86-.4-9.79-3.37-14-3.24-4.59-8.84-5.87-13.42-2.36-2.63 2-4.52 4.79-6.61 7.28l-6.88 8.31a75.49 75.49 0 0 1-6.41 7.35c-1.48 1.35-3.57 2.5-5.59 1.76-3.51-1.29-4.79-6.62-5.47-9.92-1.08-5.4-1.35-10.94-2.76-16.27a39.6 39.6 0 0 0-7.89-15.66c-7.62-8.77-22.53-12.08-31.5-3.51a3.19 3.19 0 0 0-.47 3.72c6.21 10.66 2.36 23.21-2.43 33.61-2.76 6.07-6.07 12-9.23 17.88-1.62 2.9-3.17 5.87-4.66 8.84-.67 1.35-1.35 2.7-2 4-.27.61-.61 1.21-.88 1.89a1.89 1.89 0 0 1-.27.47c-.2.34.4-.47.07-.07-.14.14.33-.2.4-.2-.67.27.68-.13-.2 0-.67.14.13.07-.2 0s-.74-.2-1.15-.34-.13 0 0 0c-.2-.06-.4-.2-.61-.27-.4-.2-.81-.4-1.14-.6-.81-.48-1.69-.95-2.5-1.49-3.5-2.22-6.88-4.65-10.79-6.27-3.24-1.35-7.82-1.76-10 1.68-1.55 2.37-.94 5.87-.61 8.51.61 4.52 1.49 9 2.36 13.36.48 2.23.88 4.45 1.29 6.75.2.94.33 1.95.47 2.9.07.47.13.94.2 1.42 0 .06.07.6 0 .13.07.27.07.61.13.88.07.74.14 1.48.21 2.16v1.21a1.49 1.49 0 0 1-.14.54c-.13.34.47-.6.07-.2a12.17 12.17 0 0 0-1.75 3 24.34 24.34 0 0 0-2.09 13c1 9.85 5.73 18.82 9.71 27.73a88.53 88.53 0 0 1 4.92 13c1.08 3.84 1.69 8 .94 11.74-1.07 5.33-4.65 8.84-8.7 12.49-5 4.52-8.83 9.85-9.91 16.6-2 13.29 5.19 26.45 12.81 36.85 2 2.83 4.25 5.53 6.48 8.23 1-1.69 2-3.37 3-5.06l-9.51-3.44c-1.55-.54-3-1.08-4.59-1.69-1.75-.68-3.24-1.35-5.06-.27-4.18 2.63-5.26 7.29-4.38 11.88.88 4.79 3.37 9.18 5.26 13.63 1 2.36 1.69 4.86 2.56 7.29a49.28 49.28 0 0 0 3.85 8.1c3.5 5.87 8 11 12.47 16.13 1.22-1.62 2.43-3.18 3.71-4.8-8.09-4.52-18.34-2.16-24.75 4.19-7.28 7.22-7.89 18.42-4 27.47a34.1 34.1 0 0 0 3.7 6.41 24.1 24.1 0 0 0 2.37 2.76c1.41 1.29 3 .75 4.65.48a39.74 39.74 0 0 1 15.17.6 41.82 41.82 0 0 1 14.43 6.28c4.66 3.17 8.37 7.36 13.76 9.31a36.1 36.1 0 0 0 16.32 1.56 24.5 24.5 0 0 0 11-4.66 42.24 42.24 0 0 1 10.93-6.07c5.46-1.76 11.26-4 17.06-4a18 18 0 0 1 4.25.4c.61.14 1.21.34 1.89.54.27.07.67.27.13.07 1.22.54 2.5 1.15 3.71 1.75 3.37 1.69 6.68 3.45 10 5.06 2.56 1.29 5.26 2.84 8 3.51 3.44.81 7.08.41 10.52-.06a82.75 82.75 0 0 0 24.14-7.63c7.08-3.51 12.75-10.8 21.18-11.2 9.64-.41 9.37 12.28 16.72 16 4.25 2.16 8.7 1 12.88-.81 2.9-1.21 6.81-3.71 10-2.43 2.9 1.15 5.8 2.16 8.84 3l5.46 1.62c.81.27 1.62.54 2.49.81.27.13.61.2.88.34a1.09 1.09 0 0 0 .41.13c.4.14-.41-.2.06.07 3 1.55 5.67 2.5 9 1.62s6.27-3.11 9-5.2a59.88 59.88 0 0 1 8.43-6.07 8.91 8.91 0 0 1 7.62-.81c8 2.5 15 6.95 22.79 9.38 3.58 1.15 7.29 1.75 10.79.13 3.71-1.68 5.87-5.53 7.35-9.17 1.56-3.85 2.43-7.9 3.85-11.75 1.82-5 5.12-9.31 8.29-13.49 6.55-8.71 13.56-18.63 11.67-30.17a16.77 16.77 0 0 0-18.07-13.9 11.88 11.88 0 0 0-9.38 5.94c-1.79 3.62 3.47 6.66 5.34 3.22Z" fill="#19642d"/>
  </g> -->
  <text transform="translate(182.22 316.34)" font-size="34" fill="#fff" font-family="MochiyPopPOne-Regular, Mochiy Pop P One">Game design</text>
  <text transform="translate(182.22 389)" font-size="34" fill="#fff" font-family="MochiyPopPOne-Regular, Mochiy Pop P One">Development</text>
  <text transform="translate(182.22 561.98)" font-size="34" fill="#fff" font-family="MochiyPopPOne-Regular, Mochiy Pop P One">Art &amp; Design</text>
  <text transform="translate(182.22 689.17)" font-size="34" fill="#fff" font-family="MochiyPopPOne-Regular, Mochiy Pop P One">Story</text>
  <text transform="translate(182.22 761.94)" font-size="34" fill="#fff" font-family="MochiyPopPOne-Regular, Mochiy Pop P One">Copywriter</text>
  <text transform="translate(182.22 840)" font-size="34" fill="#fff" font-family="MochiyPopPOne-Regular, Mochiy Pop P One">Test</text>
  <text transform="translate(182.22 911.38)" font-size="34" fill="#fff" font-family="MochiyPopPOne-Regular, Mochiy Pop P One">Music</text>
  <text transform="translate(498.16 317.01)" font-size="28" fill="#fff" font-family="MochiyPopPOne-Regular, Mochiy Pop P One">Carlos Pisarello, Yuri Scarbaci, Mariano Echavarra</text>
  <text transform="translate(498.16 563.69)" font-size="28" fill="#fff" font-family="MochiyPopPOne-Regular, Mochiy Pop P One">Carlos Pisarello, Irene Lpez, Juan Hernndez, Mariana Beldi, <tspan x="0" y="33.6">Florencia Grassi</tspan></text>
  <text transform="translate(498.16 382.95)" font-size="28" fill="#fff" font-family="MochiyPopPOne-Regular, Mochiy Pop P One">Juan Cruz Fortunatti, Luciana Moll, Yuri Scarbaci, <tspan x="0" y="33.6">Freddy Ramrez, Mariano Echavarra, </tspan><tspan x="0" y="67.2">Santiago Vallejo, Jos Alejandro Sulbaran</tspan></text>
  <text transform="translate(498.16 683.34)" font-size="28" fill="#fff" font-family="MochiyPopPOne-Regular, Mochiy Pop P One">Carlos Pisarello, Yuri Scarbaci, Freddy Ramrez</text>
  <text transform="translate(498.16 756.22)" font-size="28" fill="#fff" font-family="MochiyPopPOne-Regular, Mochiy Pop P One">Ins Domnguez</text>
  <text transform="translate(498.16 831.98)" font-size="28" fill="#fff" font-family="MochiyPopPOne-Regular, Mochiy Pop P One">You at this moment</text>
  <text transform="translate(498.16 910.69)" font-size="28" fill="#fff" font-family="MochiyPopPOne-Regular, Mochiy Pop P One">Santiago Vallejo, Mariano Echavarra</text>
</svg>
