<svg xmlns="http://www.w3.org/2000/svg" viewBox="0 0 21.04 25.58"><defs><style>.cls-1{fill:#d93839;}.cls-2{fill:#ce6d15;}.cls-3{fill:#fab61e;}</style></defs><g id="Capa_2" data-name="Capa 2"><g id="Capa_2-2" data-name="Capa 2"><path class="cls-1" d="M19.54,16.36c0,5-4.08,7.72-9.11,7.72S1.5,20.86,1.5,15.83s3.89,1.91,8.93,1.91S19.54,11.33,19.54,16.36Z"/><path class="cls-2" d="M2.28,14c1.37,0,4.45,3.74,8.15,3.74s6.73-3.31,8.21-3.31c.58,0,.9.51.9,1.93,0,5-4.08,7.72-9.11,7.72S1.5,20.86,1.5,15.83c0-1.34.28-1.83.78-1.83m0-1.5c-.85,0-2.28.43-2.28,3.33,0,5.65,4.39,9.75,10.43,9.75,6.35,0,10.61-3.7,10.61-9.22,0-3-1.51-3.43-2.4-3.43a6.66,6.66,0,0,0-3.19,1.34c-1.44.87-3.24,2-5,2S6.82,15,5.38,14c-1.18-.82-2.11-1.47-3.1-1.47Z"/><path class="cls-1" d="M12.64,8.83c-3.54,2.49-8.24,3.47-8.9.31-.3-1.46,1.88-6.42,5.75-7.51S16.18,6.34,12.64,8.83Z"/><path class="cls-2" d="M10.44,1.5c3.35,0,5.44,5.05,2.2,7.33a11.56,11.56,0,0,1-6.08,2.3,2.53,2.53,0,0,1-2.82-2c-.3-1.46,1.88-6.42,5.75-7.51a3.61,3.61,0,0,1,.95-.13m0-1.5h0A4.85,4.85,0,0,0,9.09.19C4.57,1.46,1.78,7.1,2.27,9.45a4,4,0,0,0,4.29,3.18,13,13,0,0,0,6.94-2.57,5.27,5.27,0,0,0,2-6.09,5.42,5.42,0,0,0-5-4Z"/><circle class="cls-1" cx="17.15" cy="10.37" r="1.12"/><path class="cls-2" d="M17.15,9.25A1.12,1.12,0,1,1,16,10.37a1.13,1.13,0,0,1,1.12-1.12m0-1.5a2.62,2.62,0,1,0,2.63,2.62,2.62,2.62,0,0,0-2.63-2.62Z"/><path class="cls-3" d="M9.31,4.23a.71.71,0,0,1-.6-.39.72.72,0,0,1,.3-1,.76.76,0,0,1,1,.28.72.72,0,0,1-.28,1l-.05,0A.65.65,0,0,1,9.31,4.23Z"/><path class="cls-3" d="M4.81,8A12.21,12.21,0,0,1,7.17,4.32a.73.73,0,1,1,1.06,1A6.74,6.74,0,0,0,6.46,8.51.86.86,0,1,1,4.81,8Z"/><path class="cls-3" d="M5.48,22.21a12.23,12.23,0,0,1-2.69-3.47.73.73,0,1,1,1.3-.66,6.71,6.71,0,0,0,2.4,2.74.86.86,0,1,1-1,1.39Z"/></g></g></svg>