<svg xmlns="http://www.w3.org/2000/svg" viewBox="0 0 65.52 65.52"><defs><style>.cls-1{fill:#999882;}.cls-2{fill:#9c2515;}.cls-3{fill:#dd871a;}.cls-4{fill:#d62627;}.cls-5{fill:#fbcc3e;}</style></defs><g id="Capa_2" data-name="Capa 2"><g id="Capa_3" data-name="Capa 3"><rect class="cls-1" width="65.52" height="65.52"/><rect class="cls-2" x="2.5" y="2.5" width="60.53" height="60.53" rx="3.88"/><path class="cls-3" d="M13,28c4.07,2.9,11-2.43,14-9.25S37.88,15.1,37.26,8a3.27,3.27,0,0,0-3.1-3.27H9.31A4.51,4.51,0,0,0,4.8,9.28v11C4.8,24.83,10,25.91,13,28Z"/><path class="cls-3" d="M32.49,17.63c-.47,3.29,9.65,3.13,12.32,6.11s4.86,7.79,10,8.65c2.75.47,5.95-3.78,5.95-6.79V9.28a4.51,4.51,0,0,0-4.51-4.51H47.79c-3.69,0-4.11,2.56-6,6.26C38.77,16.75,33,14.33,32.49,17.63Z"/><path class="cls-3" d="M26.9,46.12c-2.46-.16-5.08.66-5.71,4.16-.44,2.49-4.45,10.4,1,10.4H32.7c2.19,0,2.75-2.1,1.67-4C32.44,53.37,29.35,46.28,26.9,46.12Z"/><path class="cls-3" d="M17.45,55.44c-1.26-11.57,4.5-10.14.27-17.67C16.07,33,14.17,28.6,8.45,28.13,6.56,28,4.8,29.62,4.8,32.39V56.18a4.5,4.5,0,0,0,4.51,4.5h2C14.59,60.68,18.56,58.26,17.45,55.44Z"/><path class="cls-3" d="M52.39,34.19c-4.39-.7-4.27-4.84-9.84-8.45S29.63,19.2,22.41,28.13s5,14.94,8.67,16.43,4.55,7.86,6.59,11.23c1.65,2.73,8.93,5.19,16.12,4.89h2.42a4.5,4.5,0,0,0,4.51-4.5V38C60.72,34,55.71,34.71,52.39,34.19Z"/><path class="cls-4" d="M56.32,54.22a5,5,0,0,0-2.45-.61,2.43,2.43,0,0,0-1.25.29,1.34,1.34,0,0,0-.71,1,2,2,0,0,0,.87,1.49,5.92,5.92,0,0,0,3,1.55.94.94,0,0,0,.55-.06,3.35,3.35,0,0,0,.74-.54C58,56.13,57.8,55.05,56.32,54.22Z"/><path class="cls-4" d="M57.13,51.37a1.42,1.42,0,0,0-.89-.29.5.5,0,0,0-.38.14.48.48,0,0,0-.11.24,1.78,1.78,0,0,0,.17,1.41,1.3,1.3,0,0,0,1.23.63,1,1,0,0,0,.88-1C58,51.85,57.54,51.7,57.13,51.37Z"/><path class="cls-4" d="M56.7,23.53a2.3,2.3,0,0,0-.91-1,2.4,2.4,0,0,0-1.06-.22,3.13,3.13,0,0,0-1.36.2,2.43,2.43,0,0,0-1.41,2,3.09,3.09,0,0,0,.85,2.34A4.26,4.26,0,0,0,55,28.07C57.79,28.66,57.58,25.11,56.7,23.53Z"/><path class="cls-4" d="M32.35,56.73c-.64-.12-1.43-.18-1.81.34a1.34,1.34,0,0,0-.23.73,1.5,1.5,0,0,0,.14.86c.31.53,1,.6,1.65.61H33a.88.88,0,0,0,.51-.08.81.81,0,0,0,.3-.68,1.76,1.76,0,0,0-.42-1.25,1.27,1.27,0,0,0-1.23-.38"/><path class="cls-4" d="M12.51,55.07a1.34,1.34,0,0,0-.53.44,1.18,1.18,0,0,0-.06,1.11,2.22,2.22,0,0,0,.74.87,4,4,0,0,0,1.51.71,2.13,2.13,0,0,0,.87,0,2,2,0,0,0,1.45-1.36,1.13,1.13,0,0,0,.09-.51,1.28,1.28,0,0,0-.24-.53,2.37,2.37,0,0,0-1.73-1.15A3.32,3.32,0,0,0,12.51,55.07Z"/><path class="cls-4" d="M14.34,50.85a1.48,1.48,0,0,0-.86.95,1.11,1.11,0,0,0,.4,1.18,1.75,1.75,0,0,0,.67.25,6.86,6.86,0,0,0,.9.09,1.14,1.14,0,0,0,.85-.25,1.1,1.1,0,0,0,0-1.16,3.23,3.23,0,0,0-.69-1.14C15.32,50.53,14.67,50.7,14.34,50.85Z"/><path class="cls-4" d="M16.33,23.67a3.82,3.82,0,0,0-1,.46,1.16,1.16,0,0,0,.09,2.05,3.22,3.22,0,0,0,1.33.4,2.15,2.15,0,0,0,1,0,2.41,2.41,0,0,0,.64-.41l.82-.66a2.5,2.5,0,0,0,.73-.79,1.3,1.3,0,0,0-.37-1.57C18.77,22.46,17.19,23.36,16.33,23.67Z"/><path class="cls-4" d="M20.55,20.71a2.38,2.38,0,0,0-.37.66.91.91,0,0,0,.05.74,1.17,1.17,0,0,0,1.22.41,1.83,1.83,0,0,0,1.1-.56,1,1,0,0,0-.56-1.7A1.33,1.33,0,0,0,20.55,20.71Z"/><path class="cls-4" d="M57.54,19.12A3.46,3.46,0,0,0,56.26,19a1.16,1.16,0,0,0-.85.31.92.92,0,0,0-.16.63,1.39,1.39,0,0,0,.06.4,1.78,1.78,0,0,0,.9.89,2.24,2.24,0,0,0,1.77.3,2,2,0,0,0,.41-.21.78.78,0,0,0,.28-.29.8.8,0,0,0,0-.34A1.71,1.71,0,0,0,57.54,19.12Z"/><path class="cls-5" d="M7,8.76a2.34,2.34,0,0,0-.9,1.05,1.51,1.51,0,0,0,.13,1.12,2.32,2.32,0,0,0,3.2,1,3.61,3.61,0,0,0,.76-.59,2.14,2.14,0,0,0,.47-.57,2,2,0,0,0-.06-1.54,1.54,1.54,0,0,0-.5-.79A3.19,3.19,0,0,0,7,8.76Z"/><path class="cls-5" d="M11.86,6.33a.78.78,0,0,0-.29.79,1.08,1.08,0,0,0,.52.68A1.85,1.85,0,0,0,13,8a1.14,1.14,0,0,0,.68-.13C14.82,7.14,12.74,5.75,11.86,6.33Z"/><path class="cls-5" d="M6,35.59a2.43,2.43,0,0,0,.32,2,1.62,1.62,0,0,0,1.88.58,2.37,2.37,0,0,0,1-2.25,9.07,9.07,0,0,0-.09-1.28,1.52,1.52,0,0,0-.65-1.2C7.2,32.82,6.26,34.61,6,35.59Z"/><path class="cls-5" d="M13.49,34.41a6,6,0,0,1-.75-.68.78.78,0,0,0-.92-.14.66.66,0,0,0-.13.79,1.45,1.45,0,0,0,.61.59,4.89,4.89,0,0,0,.64.34.74.74,0,0,0,.48.1.52.52,0,0,0,.33-.56.91.91,0,0,0-.37-.57"/><path class="cls-5" d="M38.66,16.84a2.19,2.19,0,0,0-1.67.81.81.81,0,0,0-.16.47c0,.37.38.61.73.75a3.51,3.51,0,0,0,1.6.27,2.26,2.26,0,0,0,1.45-.67,1.11,1.11,0,0,0,.3-.48C41.3,16.72,39.42,16.79,38.66,16.84Z"/><path class="cls-5" d="M43.16,16.85a.43.43,0,0,0-.07.48.45.45,0,0,0,.36.16,2.42,2.42,0,0,0,1.36-.09c.59-.26,1.06-1.37.16-1.53A2.2,2.2,0,0,0,43.16,16.85Z"/><path class="cls-5" d="M24.47,31.75a3.72,3.72,0,0,0-1.82,2.3,2.57,2.57,0,0,0,.78,2,4.07,4.07,0,0,0,2.73,1.29,2,2,0,0,0,1-.16,1.89,1.89,0,0,0,.87-1,3.27,3.27,0,0,0-.24-2.95,3.35,3.35,0,0,0-1.55-1.28C25.68,31.66,25,31.36,24.47,31.75Z"/><path class="cls-5" d="M28.79,27.13a1.69,1.69,0,0,0-.49,1.22,1,1,0,0,0,.12.51,1.23,1.23,0,0,0,.51.42,3.33,3.33,0,0,0,1,.3.78.78,0,0,0,.37,0,.59.59,0,0,0,.29-.21,2.42,2.42,0,0,0,.46-1.67.83.83,0,0,0-.06-.35.87.87,0,0,0-.21-.22A1.36,1.36,0,0,0,28.79,27.13Z"/></g></g></svg>