<svg width="460" height="109" viewBox="0 0 460 109" fill="none" xmlns="http://www.w3.org/2000/svg">
<g clip-path="url(#clip0_80_7251)">
<path d="M449.575 -112.1C446.13 -107.203 459.094 -20.1415 454.833 -15.8791C446.946 -7.98911 424.19 -35.74 419.658 -25.4921C406.512 4.25393 377.411 39.7134 393.911 67.6457C384.482 76.9867 367.438 73.8126 358.372 64.1088C349.307 54.4051 346.315 40.5296 344.864 27.3797C343.777 17.6759 340.15 4.79807 330.359 5.25151C325.282 5.52357 321.384 9.78597 318.12 13.6856C312.137 20.8501 306.153 28.1052 300.17 35.2697C297.994 37.8996 295.456 40.711 292.101 41.3458C284.214 42.7968 280.134 32.1862 280.044 24.1149C279.953 16.1342 279.047 5.61427 271.341 3.70979C257.651 9.69528 251.396 26.11 251.396 41.0737C251.396 56.0375 256.201 70.5478 258.014 85.3301C258.558 89.5018 258.83 93.9456 257.107 97.8452C250.761 112.083 226.918 102.561 223.02 87.5066C219.121 72.4522 225.377 56.5816 224.561 41.0737C223.745 25.5659 207.88 8.42563 194.553 16.5877C183.221 23.5707 183.765 43.7944 170.982 47.422C155.751 51.7751 139.161 26.9262 127.466 37.5369C124.565 40.2576 123.477 44.3386 122.208 48.0568C117.403 61.9323 101.266 74.9008 88.9362 66.8295C73.9775 57.0351 78.1478 24.9311 60.2881 25.3845C44.5136 25.838 46.5987 51.4123 35.6291 62.7485C18.8573 60.2999 4.89595 44.8827 4.08002 27.9238C2.62949 -2.36639 37.6236 -70.6554 36.6263 -101.127" fill="#6EB52C"/>
<path d="M446.129 -114.095C444.135 -111.012 444.951 -105.571 445.132 -102.124C445.495 -95.0507 446.129 -87.9769 446.855 -80.9032C448.396 -64.4884 450.39 -48.0737 451.388 -31.6589C451.569 -28.7569 451.75 -25.8548 451.75 -22.8621C451.75 -21.7738 451.75 -20.7762 451.66 -19.6879C451.66 -19.2345 451.569 -18.781 451.569 -18.4183C451.478 -17.2393 451.841 -19.3252 451.569 -18.3276C451.569 -18.2369 451.297 -17.6928 451.388 -17.5114C451.297 -17.8741 451.932 -18.4183 452.113 -18.6903C451.841 -18.4183 452.566 -18.6903 452.022 -18.5997C451.297 -18.509 452.204 -18.5997 452.022 -18.5997C451.478 -18.4183 451.206 -18.4183 451.932 -18.509C451.569 -18.509 451.206 -18.509 450.844 -18.509C450.118 -18.509 451.478 -18.3276 450.753 -18.509C450.39 -18.5997 450.028 -18.6903 449.665 -18.781C449.302 -18.8717 448.94 -19.0531 448.577 -19.1438C448.396 -19.2345 448.215 -19.2345 448.124 -19.3252C447.489 -19.5972 449.031 -18.9624 447.943 -19.4159C446.311 -20.1414 444.77 -21.0483 443.228 -21.9552C439.874 -23.9503 436.61 -26.3082 433.165 -28.3034C430.174 -30.0265 426.91 -31.8403 423.374 -31.931C418.932 -32.0217 416.937 -28.8475 415.306 -25.3107C412.586 -19.5065 409.594 -13.9745 406.602 -8.35178C400.347 3.07507 393.91 14.5926 389.468 26.8356C385.57 37.7184 383.394 50.0521 386.93 61.3883C387.836 64.2903 389.105 67.011 390.647 69.641C390.828 68.0086 391.1 66.3762 391.281 64.6531C383.122 72.4523 369.433 69.0061 362.089 61.751C352.207 51.9566 350.666 37.537 348.762 24.4777C347.312 14.0485 342.054 -0.824562 328.727 1.26129C321.474 2.44025 316.851 8.87918 312.499 14.1392C307.06 20.6688 301.801 27.3798 296.271 33.728C294.73 35.5418 292.373 37.8091 290.288 37.3556C288.565 36.9929 287.387 35.3604 286.39 33.456C283.851 28.6494 284.486 23.2988 283.942 18.1295C283.398 12.5067 282.129 6.15851 277.505 2.34956C276.326 1.35197 274.967 0.626465 273.516 0.0823288C271.431 -0.643188 269.799 -0.0990524 267.986 0.807846C265.266 2.16818 262.728 4.07265 260.552 6.1585C251.395 14.9554 247.497 28.2867 247.406 40.7111C247.316 48.9638 248.766 57.1259 250.308 65.1065C251.849 72.9058 253.934 80.8864 254.387 88.8671C254.568 91.9505 254.387 95.2153 252.483 97.8453C251.667 99.0243 250.126 100.022 248.857 100.385C247.316 100.838 245.231 100.929 243.78 100.657C241.604 100.294 239.519 99.5684 237.615 98.5708C233.536 96.3943 230.091 93.3109 228.006 89.1392C225.014 83.2444 225.649 75.0823 226.283 68.5527C227.099 60.5721 228.64 52.7728 228.731 44.7014C228.822 37.9904 227.371 31.6422 224.017 25.7474C218.215 15.4995 206.066 6.43057 194.099 12.144C184.218 16.8598 181.951 28.3774 176.874 37.0835C174.789 40.7111 171.888 43.6132 168.081 43.7945C163.82 43.9759 159.74 41.9808 155.751 39.8042C147.773 35.4511 137.982 27.6519 128.372 32.0049C122.026 34.907 120.394 41.5273 118.128 47.5128C116.133 52.8635 112.326 57.8514 107.702 61.2069C103.622 64.1996 98.2736 66.3762 93.2874 64.381C89.3891 62.8393 87.1227 59.5745 85.2188 55.7655C81.2299 47.9662 79.9607 38.3532 75.4277 30.4632C73.2519 26.745 70.2602 23.5708 66.1806 22.0291C61.9197 20.4874 56.6615 20.9409 52.7632 23.2988C44.332 28.2867 42.2468 39.8042 39.1644 48.329C37.7139 52.41 35.8101 56.6724 32.909 59.7558C34.2689 59.3931 35.5381 59.0303 36.898 58.6676C23.8432 56.5817 12.7829 46.6966 9.33786 33.8187C6.70877 24.0243 9.2472 14.2299 11.6043 4.70748C17.7691 -19.7786 27.5602 -43.1764 34.6315 -67.3905C37.8952 -78.2732 41.1589 -89.9721 40.8869 -101.49C40.7056 -106.75 32.5464 -106.75 32.7277 -101.49C32.9997 -92.7835 30.9145 -84.6214 28.5574 -75.9153C25.3844 -64.4884 21.6674 -53.6057 18.0411 -42.8137C14.2334 -31.7496 10.4258 -20.6855 6.98075 -9.53073C4.07968 0.173019 1.35993 9.96745 0.272034 20.034C-0.997182 31.3701 1.81322 42.2528 8.88457 51.3217C12.7829 56.3096 17.8597 60.572 23.5712 63.2927C26.4723 64.6531 29.464 65.832 32.637 66.4668C34.8128 66.9203 36.898 67.2831 38.6205 65.56C39.6177 64.5624 40.4337 63.4741 41.2496 62.2952C47.0517 54.1331 48.0489 43.4318 52.6725 35.1791C53.1258 34.2722 53.6698 33.456 54.3044 32.6398C53.9417 33.0025 54.7577 32.1863 54.8483 32.0956C55.1203 31.8236 55.8456 31.1887 55.7549 31.1887C56.8428 30.2818 58.4746 29.7377 59.7439 29.647C60.2878 29.647 60.7411 29.647 61.2851 29.647C61.3757 29.647 62.2823 29.7377 61.7383 29.647C61.2851 29.5563 61.9197 29.647 62.0103 29.647C62.4636 29.7377 63.0076 29.9191 63.4609 30.0098C63.5515 30.0098 64.0955 30.2818 63.6422 30.1005C63.1889 29.9191 64.0955 30.3725 64.0955 30.3725C64.4581 30.5539 64.8207 30.826 65.1834 31.0074C65.546 31.2794 65.0927 30.9167 65.0927 30.9167C65.274 31.0981 65.4553 31.1887 65.6367 31.3701C65.9086 31.6422 66.2713 32.0049 66.5432 32.277C67.0872 32.9118 66.5432 32.1863 67.0872 32.9118C69.6256 36.5394 70.6229 39.8949 71.9827 44.0666C73.5239 48.7824 74.9745 53.4076 76.9689 57.9421C81.5019 68.0086 90.477 75.5358 102.081 72.9058C108.246 71.5454 113.776 67.4644 117.946 62.8393C120.122 60.3907 122.117 57.7607 123.567 54.8586C125.199 51.7752 126.196 48.5104 127.375 45.2456C128.282 42.7063 129.641 40.6204 131.727 39.5322C131.817 39.5322 131.817 39.4415 132.452 39.2601C132.724 39.1694 132.996 39.1694 133.177 39.0787C132.996 39.0787 132.452 39.1694 133.268 39.0787C133.63 39.0787 134.084 39.0787 134.446 39.0787C135.444 39.0787 134.809 39.0787 135.625 39.2601C140.067 40.2577 143.875 42.7063 147.954 45.1549C156.476 50.1428 167.537 55.7655 176.874 49.1452C185.668 42.9783 186.665 31.4608 192.83 23.4801C195.55 19.9433 199.72 17.8574 204.163 19.0364C209.149 20.306 213.228 24.4777 215.857 28.7401C219.302 34.2722 220.481 40.0763 220.209 46.5152C219.937 54.6772 218.215 62.6579 217.58 70.7292C216.945 78.0751 217.127 85.965 220.3 92.7667C222.566 97.5733 226.555 101.654 230.997 104.466C238.975 109.635 251.395 111.721 258.195 103.468C263.272 97.3012 262.456 89.2298 261.368 81.884C260.189 73.6313 258.195 65.56 256.744 57.3072C254.478 44.248 254.025 30.2818 260.915 18.4922C263.816 13.595 267.895 9.69539 273.063 7.33746C271.975 7.51884 270.978 7.60954 269.89 7.79091C274.785 9.15125 275.329 16.3157 275.511 20.8502C275.873 27.4705 276.055 34.1815 280.134 39.8042C284.758 46.2431 292.554 47.4221 298.81 42.2528C302.164 39.5322 304.703 35.8139 307.422 32.4584C310.505 28.7401 313.587 25.0219 316.669 21.3036C319.298 18.1295 321.837 14.5926 325.01 11.8719C327.095 9.96745 329.906 8.78849 332.353 9.6047C336.705 11.1464 338.699 18.2202 339.606 22.7546C341.147 30.0098 341.419 37.4463 343.323 44.7014C345.408 52.41 348.762 59.8465 354.021 65.9227C364.174 77.7123 384.301 82.0654 396.267 70.5479C397.537 69.2782 397.809 67.1924 396.902 65.56C391.281 55.8562 391.825 44.8828 394.817 34.3629C398.262 22.3919 404.336 11.3278 410.319 0.445076C413.402 -5.17766 416.394 -10.7097 419.295 -16.4231C420.473 -18.8717 422.014 -21.411 422.921 -24.041C423.102 -24.5851 422.468 -23.6783 422.83 -23.9503C423.374 -24.4038 422.014 -23.4062 422.74 -23.9503C422.921 -24.041 421.833 -23.5876 422.558 -23.8596C422.105 -23.6783 421.924 -23.9503 422.558 -23.8596C423.465 -23.6783 421.833 -24.041 422.649 -23.8596C422.921 -23.7689 423.193 -23.7689 423.465 -23.6783C423.828 -23.5876 424.099 -23.4969 424.462 -23.3155C425.369 -23.0434 424.19 -23.4969 424.825 -23.1341C426.457 -22.4086 427.907 -21.5017 429.448 -20.5948C432.803 -18.5997 435.976 -16.3324 439.33 -14.3373C442.503 -12.5235 446.039 -10.7097 449.846 -10.4376C452.838 -10.2562 456.464 -11.4352 458.006 -14.1559C460 -17.6021 459.275 -23.1341 459.094 -26.9431C458.459 -42.5416 456.555 -58.1402 455.014 -73.648C454.289 -81.3566 453.473 -88.9745 452.929 -96.6831C452.747 -99.4945 452.566 -102.397 452.476 -105.208C452.476 -106.296 452.476 -107.294 452.476 -108.382C452.476 -108.745 452.476 -109.198 452.566 -109.561C452.657 -110.377 453.019 -110.74 452.566 -109.742C452.657 -109.924 452.566 -110.286 452.747 -110.468C453.11 -111.284 452.204 -109.47 452.566 -110.105C456.011 -114.367 448.94 -118.539 446.129 -114.095Z" fill="#19642D"/>
<path d="M346.224 14.5925C343.958 8.51628 342.326 2.25873 341.238 -4.08952C341.147 -4.63365 341.057 -5.17779 340.966 -5.63124C340.966 -5.9033 340.875 -6.17537 340.875 -6.44743C340.694 -7.44502 340.966 -5.63123 340.875 -6.35675C340.785 -7.17295 340.694 -7.98915 340.603 -8.71466C340.513 -9.34949 340.513 -10.075 340.422 -10.7098C340.331 -12.7957 338.609 -14.8815 336.342 -14.7908C334.167 -14.7002 332.172 -12.9771 332.263 -10.7098C332.353 -7.80778 332.807 -4.90572 333.351 -2.00367C334.439 4.43527 336.161 10.7835 338.427 16.9504C339.153 18.9456 341.238 20.4873 343.414 19.7617C345.318 18.9455 347.04 16.769 346.224 14.5925Z" fill="#19642D"/>
<path d="M284.123 24.2056C284.123 17.676 282.31 11.237 280.497 4.97948C279.5 1.62397 278.502 -1.73153 277.596 -5.17772C277.143 -6.9915 276.689 -8.80529 276.327 -10.6191C276.145 -11.526 275.964 -12.3422 275.783 -13.2491C275.692 -13.7025 275.601 -14.156 275.511 -14.7001C275.511 -14.9722 275.42 -15.1535 275.42 -15.4256C275.42 -15.5163 275.239 -16.5139 275.329 -15.9697C275.42 -15.4256 275.329 -16.2418 275.239 -16.3325C275.239 -16.6046 275.148 -16.9673 275.148 -17.2394C275.057 -17.7835 275.057 -18.3277 274.967 -18.8718C274.876 -20.0507 274.785 -21.139 274.785 -22.318C274.695 -24.7666 274.785 -27.2152 274.967 -29.6638C275.148 -31.8404 272.972 -33.8355 270.887 -33.7448C268.53 -33.6541 266.989 -31.931 266.807 -29.6638C266.173 -21.4111 267.261 -13.1584 269.165 -5.08702C270.796 1.53329 273.063 8.06292 274.604 14.6832C274.967 16.4063 275.329 18.0387 275.601 19.7618C275.692 20.306 275.511 18.9456 275.601 19.4898C275.601 19.7618 275.692 19.9432 275.692 20.2153C275.692 20.6687 275.783 21.0315 275.783 21.4849C275.873 22.3011 275.873 23.208 275.873 24.1149C275.873 26.2915 277.777 28.2866 279.953 28.1959C282.31 28.1959 284.214 26.4728 284.123 24.2056Z" fill="#19642D"/>
</g>
<defs>
<clipPath id="clip0_80_7251">
<rect width="460" height="225" fill="white" transform="translate(0 -116)"/>
</clipPath>
</defs>
</svg>
