<svg xmlns="http://www.w3.org/2000/svg" viewBox="0 0 65.52 65.52"><defs><style>.cls-1{fill:#999882;}.cls-2{fill:#9c2515;}.cls-3{fill:#dd871a;}.cls-4{fill:#d62627;}.cls-5{fill:#fbcc3e;}</style></defs><g id="Capa_2" data-name="Capa 2"><g id="Capa_3" data-name="Capa 3"><rect class="cls-1" width="65.52" height="65.52"/><rect class="cls-2" x="2.5" y="2.5" width="60.53" height="60.53" rx="3.1"/><path class="cls-3" d="M15.74,31.77c4.08,2.9,12.42-.82,15.36-7.64s13.8-9.6,13.18-16.65c.1-1.36-.34-2.71-2.27-2.71H9.31A4.51,4.51,0,0,0,4.8,9.28V24C4.8,28.58,12.75,29.64,15.74,31.77Z"/><path class="cls-3" d="M36.11,22.5c-.47,3.29,7.91,2.65,10.58,5.63s4.11,5.87,9.2,6.73c2.76.47,4.83-2.14,4.83-5.14V9.28a4.51,4.51,0,0,0-4.51-4.51h-1.8c-3.69,0-7.58,2.92-9.5,6.62C41.93,17.11,36.58,19.2,36.11,22.5Z"/><path class="cls-3" d="M29.87,50.65c-2.46-.16-5.86.11-6.49,3.61-.45,2.49-1.25,6.42,4.16,6.42H37.8c2.19,0,3.35-1.86,2.27-3.73C38.13,53.6,32.33,50.81,29.87,50.65Z"/><path class="cls-3" d="M20.53,55.37c-.39-8.63,4.2-2.56,1-13.44A14.63,14.63,0,0,0,9.31,32.4a4.16,4.16,0,0,0-4.51,4V56.18a4.5,4.5,0,0,0,4.51,4.5l6.47-.08C19.1,60.6,20.26,58.33,20.53,55.37Z"/><path class="cls-3" d="M53.53,36.68c-4.39-.7-4.74-3.41-10.31-7s-9.76-4.76-17,4.18.68,13.1,4.36,14.59,9.91,3.16,12,6.53c1.65,2.73,4.47,5,11.23,5.71h2.42a4.5,4.5,0,0,0,4.51-4.5V42.55C60.72,38.57,56.84,37.21,53.53,36.68Z"/><path class="cls-4" d="M56.32,54.22a5,5,0,0,0-2.45-.61,2.43,2.43,0,0,0-1.25.29,1.34,1.34,0,0,0-.71,1,2,2,0,0,0,.87,1.49,5.92,5.92,0,0,0,3,1.55.94.94,0,0,0,.55-.06,3.35,3.35,0,0,0,.74-.54C58,56.13,57.8,55.05,56.32,54.22Z"/><path class="cls-4" d="M57.13,51.37a1.42,1.42,0,0,0-.89-.29.5.5,0,0,0-.38.14.48.48,0,0,0-.11.24,1.78,1.78,0,0,0,.17,1.41,1.3,1.3,0,0,0,1.23.63,1,1,0,0,0,.88-1C58,51.85,57.54,51.7,57.13,51.37Z"/><path class="cls-4" d="M56.85,25.34a2,2,0,0,0-2-1.21,3.15,3.15,0,0,0-1.36.2,2.43,2.43,0,0,0-1.41,2A3.11,3.11,0,0,0,53,28.68a4.32,4.32,0,0,0,2.23,1.2C57.94,30.47,57.73,26.93,56.85,25.34Z"/><path class="cls-4" d="M32.35,56.73c-.64-.12-1.43-.18-1.81.34a1.34,1.34,0,0,0-.23.73,1.5,1.5,0,0,0,.14.86c.31.53,1,.6,1.65.61H33a.88.88,0,0,0,.51-.08.81.81,0,0,0,.3-.68,1.76,1.76,0,0,0-.42-1.25,1.27,1.27,0,0,0-1.23-.38"/><path class="cls-4" d="M12.51,55.07a1.34,1.34,0,0,0-.53.44,1.18,1.18,0,0,0-.06,1.11,2.22,2.22,0,0,0,.74.87,4,4,0,0,0,1.51.71,2.13,2.13,0,0,0,.87,0,2,2,0,0,0,1.45-1.36,1.13,1.13,0,0,0,.09-.51,1.28,1.28,0,0,0-.24-.53,2.37,2.37,0,0,0-1.73-1.15A3.32,3.32,0,0,0,12.51,55.07Z"/><path class="cls-4" d="M14.34,50.85a1.48,1.48,0,0,0-.86.95,1.11,1.11,0,0,0,.4,1.18,1.75,1.75,0,0,0,.67.25,6.86,6.86,0,0,0,.9.09,1.14,1.14,0,0,0,.85-.25,1.1,1.1,0,0,0,0-1.16,3.23,3.23,0,0,0-.69-1.14C15.32,50.53,14.67,50.7,14.34,50.85Z"/><path class="cls-4" d="M19.05,28a3.82,3.82,0,0,0-1,.46,1.26,1.26,0,0,0-.57.9,1.3,1.3,0,0,0,.65,1.16,3.46,3.46,0,0,0,1.34.39,2.1,2.1,0,0,0,1,0,2.23,2.23,0,0,0,.65-.41l.82-.66a2.71,2.71,0,0,0,.73-.78,1.32,1.32,0,0,0-.37-1.58C21.49,26.77,19.91,27.67,19.05,28Z"/><path class="cls-4" d="M23.8,24.16a2.38,2.38,0,0,0-.37.66,1,1,0,0,0,.05.75,1.18,1.18,0,0,0,1.22.4,1.83,1.83,0,0,0,1.1-.56,1,1,0,0,0-.56-1.7A1.35,1.35,0,0,0,23.8,24.16Z"/><path class="cls-4" d="M58.19,20.43a3.46,3.46,0,0,0-1.28-.15,1.16,1.16,0,0,0-.85.31,1,1,0,0,0-.17.63,1.4,1.4,0,0,0,.07.4,1.76,1.76,0,0,0,.9.88,2.21,2.21,0,0,0,1.77.31,2,2,0,0,0,.41-.22.75.75,0,0,0,.28-.28.82.82,0,0,0,0-.35A1.69,1.69,0,0,0,58.19,20.43Z"/><path class="cls-5" d="M7,8.76a2.34,2.34,0,0,0-.9,1.05,1.51,1.51,0,0,0,.13,1.12,2.32,2.32,0,0,0,3.2,1,3.61,3.61,0,0,0,.76-.59,2.14,2.14,0,0,0,.47-.57,2,2,0,0,0-.06-1.54,1.54,1.54,0,0,0-.5-.79A3.19,3.19,0,0,0,7,8.76Z"/><path class="cls-5" d="M11.86,6.33a.78.78,0,0,0-.29.79,1.08,1.08,0,0,0,.52.68A1.85,1.85,0,0,0,13,8a1.14,1.14,0,0,0,.68-.13C14.82,7.14,12.74,5.75,11.86,6.33Z"/><path class="cls-5" d="M6,38.08a2.44,2.44,0,0,0,.32,2,1.61,1.61,0,0,0,1.88.57,2.36,2.36,0,0,0,1-2.25,9,9,0,0,0-.09-1.27A1.52,1.52,0,0,0,8.51,36C7.2,35.31,6.26,37.1,6,38.08Z"/><path class="cls-5" d="M12.21,35.18a8.07,8.07,0,0,1-.94-.33.77.77,0,0,0-.9.23.64.64,0,0,0,.17.77,1.52,1.52,0,0,0,.79.31,5.82,5.82,0,0,0,.73.07.7.7,0,0,0,.47-.1.51.51,0,0,0,.1-.64.91.91,0,0,0-.57-.38"/><path class="cls-5" d="M42.42,19.13a2.19,2.19,0,0,0-1.66.81.82.82,0,0,0-.17.47c0,.37.39.61.73.75a3.54,3.54,0,0,0,1.6.27,2.25,2.25,0,0,0,1.46-.66,1.38,1.38,0,0,0,.3-.49C45.06,19,43.18,19.08,42.42,19.13Z"/><path class="cls-5" d="M44.92,15.16a.47.47,0,0,0-.07.48.52.52,0,0,0,.36.16,2.45,2.45,0,0,0,1.37-.09c.59-.26,1.05-1.37.16-1.54A2.23,2.23,0,0,0,44.92,15.16Z"/><path class="cls-5" d="M29.61,36.18a3.72,3.72,0,0,0-1.82,2.3,2.57,2.57,0,0,0,.78,2,4.07,4.07,0,0,0,2.73,1.29,2,2,0,0,0,1-.16,1.89,1.89,0,0,0,.87-1A3.25,3.25,0,0,0,33,37.61a3.32,3.32,0,0,0-1.55-1.29C30.82,36.09,30.15,35.79,29.61,36.18Z"/><path class="cls-5" d="M30.8,31.39a1.74,1.74,0,0,0-.5,1.21,1.14,1.14,0,0,0,.13.52,1.17,1.17,0,0,0,.51.42,3.33,3.33,0,0,0,1,.3.87.87,0,0,0,.36,0,.63.63,0,0,0,.3-.21,2.43,2.43,0,0,0,.46-1.67.83.83,0,0,0-.06-.35.87.87,0,0,0-.21-.22A1.35,1.35,0,0,0,30.8,31.39Z"/></g></g></svg>