<svg xmlns="http://www.w3.org/2000/svg" viewBox="0 0 65.52 65.52"><defs><style>.cls-1{fill:#999882;}.cls-2{fill:#9c2515;}.cls-3{fill:#dd871a;}.cls-4{fill:#d62627;}.cls-5{fill:#fbcc3e;}</style></defs><g id="Capa_2" data-name="Capa 2"><g id="Capa_3" data-name="Capa 3"><rect class="cls-1" width="65.52" height="65.52"/><rect class="cls-2" x="2.5" y="2.5" width="60.53" height="60.53" rx="3.48"/><path class="cls-3" d="M13.78,30.68c4.08,2.9,11.52-3,14.46-9.8s15-6.12,14.39-13.17a2.71,2.71,0,0,0-2.78-2.94H9.31A4.51,4.51,0,0,0,4.8,9.28V24C4.8,28.58,10.79,28.55,13.78,30.68Z"/><path class="cls-3" d="M36.12,18.84c-.47,3.29,6.83,3.45,9.49,6.43s4.71,5,9.8,5.88c2.76.47,5.31-2.54,5.31-5.55V9.28a4.51,4.51,0,0,0-4.51-4.51H52.67c-3.68,0-5.84,2.92-7.76,6.62C41.93,17.11,36.6,15.55,36.12,18.84Z"/><path class="cls-3" d="M28.6,49.08c-2.46-.16-5.44-.26-6.07,3.24-.44,2.49-3,8.36,2.44,8.36H35.61c2.19,0,2.75-2.1,1.67-4C35.34,53.37,31.05,49.24,28.6,49.08Z"/><path class="cls-3" d="M18.72,55.46c-.39-8.63,5.09-8.16.86-15.68C17.93,35,15,32.87,9.31,32.4a4.16,4.16,0,0,0-4.51,4V56.18a4.5,4.5,0,0,0,4.51,4.5H14C17.28,60.68,18.45,58.41,18.72,55.46Z"/><path class="cls-3" d="M53.61,32.73c-4.39-.7-5.49-3.38-11.06-7s-11.13-4.47-18.34,4.47S27.26,45,31,46.52s7.76,5.8,9.8,9.17c1.65,2.73,6.28,4.31,13,5h2.42a4.5,4.5,0,0,0,4.51-4.5V38C60.72,34,56.93,33.25,53.61,32.73Z"/><path class="cls-4" d="M56.32,54.22a5,5,0,0,0-2.45-.61,2.43,2.43,0,0,0-1.25.29,1.34,1.34,0,0,0-.71,1,2,2,0,0,0,.87,1.49,5.92,5.92,0,0,0,3,1.55.94.94,0,0,0,.55-.06,3.35,3.35,0,0,0,.74-.54C58,56.13,57.8,55.05,56.32,54.22Z"/><path class="cls-4" d="M57.13,51.37a1.42,1.42,0,0,0-.89-.29.5.5,0,0,0-.38.14.48.48,0,0,0-.11.24,1.78,1.78,0,0,0,.17,1.41,1.3,1.3,0,0,0,1.23.63,1,1,0,0,0,.88-1C58,51.85,57.54,51.7,57.13,51.37Z"/><path class="cls-4" d="M56.7,23.53a2.3,2.3,0,0,0-.91-1,2.4,2.4,0,0,0-1.06-.22,3.13,3.13,0,0,0-1.36.2,2.43,2.43,0,0,0-1.41,2,3.09,3.09,0,0,0,.85,2.34A4.26,4.26,0,0,0,55,28.07C57.79,28.66,57.58,25.11,56.7,23.53Z"/><path class="cls-4" d="M32.35,56.73c-.64-.12-1.43-.18-1.81.34a1.34,1.34,0,0,0-.23.73,1.5,1.5,0,0,0,.14.86c.31.53,1,.6,1.65.61H33a.88.88,0,0,0,.51-.08.81.81,0,0,0,.3-.68,1.76,1.76,0,0,0-.42-1.25,1.27,1.27,0,0,0-1.23-.38"/><path class="cls-4" d="M12.51,55.07a1.34,1.34,0,0,0-.53.44,1.18,1.18,0,0,0-.06,1.11,2.22,2.22,0,0,0,.74.87,4,4,0,0,0,1.51.71,2.13,2.13,0,0,0,.87,0,2,2,0,0,0,1.45-1.36,1.13,1.13,0,0,0,.09-.51,1.28,1.28,0,0,0-.24-.53,2.37,2.37,0,0,0-1.73-1.15A3.32,3.32,0,0,0,12.51,55.07Z"/><path class="cls-4" d="M14.34,50.85a1.48,1.48,0,0,0-.86.95,1.11,1.11,0,0,0,.4,1.18,1.75,1.75,0,0,0,.67.25,6.86,6.86,0,0,0,.9.09,1.14,1.14,0,0,0,.85-.25,1.1,1.1,0,0,0,0-1.16,3.23,3.23,0,0,0-.69-1.14C15.32,50.53,14.67,50.7,14.34,50.85Z"/><path class="cls-4" d="M17.3,26a3.85,3.85,0,0,0-1,.47,1.27,1.27,0,0,0-.57.89,1.28,1.28,0,0,0,.66,1.16,3.38,3.38,0,0,0,1.33.4,2.28,2.28,0,0,0,1,0,2.22,2.22,0,0,0,.64-.42l.82-.66A2.47,2.47,0,0,0,21,27a1.31,1.31,0,0,0-.37-1.58C19.74,24.74,18.16,25.65,17.3,26Z"/><path class="cls-4" d="M21.52,23a2.44,2.44,0,0,0-.37.67.91.91,0,0,0,.05.74,1.18,1.18,0,0,0,1.22.41,1.84,1.84,0,0,0,1.1-.57,1.08,1.08,0,0,0,.18-1.18,1.14,1.14,0,0,0-.74-.52A1.35,1.35,0,0,0,21.52,23Z"/><path class="cls-4" d="M57.54,19.12A3.46,3.46,0,0,0,56.26,19a1.16,1.16,0,0,0-.85.31.92.92,0,0,0-.16.63,1.39,1.39,0,0,0,.06.4,1.78,1.78,0,0,0,.9.89,2.24,2.24,0,0,0,1.77.3,2,2,0,0,0,.41-.21.78.78,0,0,0,.28-.29.8.8,0,0,0,0-.34A1.71,1.71,0,0,0,57.54,19.12Z"/><path class="cls-5" d="M7,8.76a2.34,2.34,0,0,0-.9,1.05,1.51,1.51,0,0,0,.13,1.12,2.32,2.32,0,0,0,3.2,1,3.61,3.61,0,0,0,.76-.59,2.14,2.14,0,0,0,.47-.57,2,2,0,0,0-.06-1.54,1.54,1.54,0,0,0-.5-.79A3.19,3.19,0,0,0,7,8.76Z"/><path class="cls-5" d="M11.86,6.33a.78.78,0,0,0-.29.79,1.08,1.08,0,0,0,.52.68A1.85,1.85,0,0,0,13,8a1.14,1.14,0,0,0,.68-.13C14.82,7.14,12.74,5.75,11.86,6.33Z"/><path class="cls-5" d="M6,38.08a2.44,2.44,0,0,0,.32,2,1.61,1.61,0,0,0,1.88.57,2.36,2.36,0,0,0,1-2.25,9,9,0,0,0-.09-1.27A1.52,1.52,0,0,0,8.51,36C7.2,35.31,6.26,37.1,6,38.08Z"/><path class="cls-5" d="M12.21,35.18a8.07,8.07,0,0,1-.94-.33.77.77,0,0,0-.9.23.64.64,0,0,0,.17.77,1.52,1.52,0,0,0,.79.31,5.82,5.82,0,0,0,.73.07.7.7,0,0,0,.47-.1.51.51,0,0,0,.1-.64.91.91,0,0,0-.57-.38"/><path class="cls-5" d="M41.52,17.18a2.19,2.19,0,0,0-1.67.81.9.9,0,0,0-.17.47c0,.37.39.61.74.75a3.49,3.49,0,0,0,1.6.27,2.26,2.26,0,0,0,1.45-.67,1.34,1.34,0,0,0,.3-.48C44.16,17.06,42.28,17.13,41.52,17.18Z"/><path class="cls-5" d="M44.92,15.16a.47.47,0,0,0-.07.48.52.52,0,0,0,.36.16,2.45,2.45,0,0,0,1.37-.09c.59-.26,1.05-1.37.16-1.54A2.23,2.23,0,0,0,44.92,15.16Z"/><path class="cls-5" d="M27.36,33.31a3.68,3.68,0,0,0-1.81,2.29,2.56,2.56,0,0,0,.77,2,4.13,4.13,0,0,0,2.73,1.28,2,2,0,0,0,1-.16,1.92,1.92,0,0,0,.88-1,3.31,3.31,0,0,0-.25-3,3.27,3.27,0,0,0-1.55-1.29C28.58,33.21,27.91,32.91,27.36,33.31Z"/><path class="cls-5" d="M28.33,29.87a1.65,1.65,0,0,0-.49,1.21,1,1,0,0,0,.12.52,1.14,1.14,0,0,0,.51.41,3.09,3.09,0,0,0,1,.31.92.92,0,0,0,.37,0,.86.86,0,0,0,.3-.21,2.42,2.42,0,0,0,.45-1.67.68.68,0,0,0-.06-.35.73.73,0,0,0-.21-.22A1.35,1.35,0,0,0,28.33,29.87Z"/></g></g></svg>