<svg width="100" height="100" viewBox="0 0 100 100" fill="none" xmlns="http://www.w3.org/2000/svg">
<path d="M100 0H0V100H100V0Z" fill="#7B7C69"/>
<path d="M6.86984 56.9465C6.86984 54.5037 9.31259 52.8243 11.6027 53.5877L30.8393 60.1526C30.992 60.1526 31.1446 60.3053 31.1446 60.3053L28.7019 57.0992C28.2439 56.6411 27.7859 56.1831 27.1752 56.0305L8.39656 49.6182C6.10648 48.8549 3.81641 50.5343 3.81641 52.8243V88.5495C3.81641 91.145 5.03778 93.2824 7.02251 94.6564C7.02251 94.3511 6.86984 94.0457 6.86984 93.5877V56.9465Z" fill="#F2F2E2"/>
<path d="M33.893 63.9695L30.9923 60.3053C30.8396 60.3053 30.8396 60.1527 30.6869 60.1527L30.0762 60L30.8396 60.916C31.6029 61.8321 31.7556 63.0534 31.4503 64.1221L23.0533 90.8397C22.748 92.2137 21.3739 93.1298 19.8472 93.1298H8.39683C7.78615 93.1298 7.32813 92.9771 6.87012 92.9771V93.7405C6.87012 94.0458 6.87012 94.3511 7.02279 94.8092C8.24416 95.7252 9.92355 96.3359 11.6029 96.3359H22.9007C24.4274 96.3359 25.8014 95.4198 26.2594 93.8931L34.5037 67.1756C34.8091 66.1069 34.6564 64.8855 33.893 63.9695Z" fill="#A0A08F"/>
<path d="M19.8472 93.1297C21.3739 93.1297 22.748 92.2137 23.206 90.687L31.4503 64.1221C31.7556 63.0534 31.6029 61.832 30.8396 60.916L30.0762 60L11.6029 53.5878C9.31287 52.8244 6.87012 54.5038 6.87012 56.9465V92.9771C7.32813 93.1297 7.93882 93.1297 8.39683 93.1297H19.8472Z" fill="#D1D2BD"/>
<path d="M84.1226 8.24438C84.7333 7.48102 85.6493 7.17567 86.718 7.17567H92.5195C93.4355 7.17567 94.3516 7.32835 95.2676 7.63369C93.8936 5.34361 91.4508 3.81689 88.7027 3.81689H83.2065C82.2905 3.81689 81.3745 4.27491 80.7638 4.8856L61.3745 25.0383C59.5424 26.7177 60.3058 29.7711 62.5959 30.5345L63.3592 30.8398C63.5119 30.2291 63.8172 29.4657 64.2752 28.8551L84.1226 8.24438Z" fill="#F2F2E2"/>
<path d="M95.1148 7.63355C94.5041 7.32821 93.7407 7.17554 92.9774 7.17554C93.13 7.63355 93.13 7.9389 93.13 8.39691V34.3511C93.13 36.7939 90.84 38.3206 88.5499 37.5572L64.2751 29.0076C63.8171 29.4656 63.6644 30.0763 63.5117 30.687L91.6033 40.7633C93.8934 41.5267 96.1835 39.8473 96.1835 37.5572V11.603C96.1835 10.0763 95.8781 8.85493 95.1148 7.63355Z" fill="#A0A08F"/>
<path d="M93.1294 34.5038V8.54958C93.1294 7.9389 93.1294 7.63355 93.1294 7.17554C92.9767 7.17554 92.6714 7.17554 92.5187 7.17554H86.7172C85.8011 7.17554 84.8851 7.63355 84.1217 8.24424L64.4271 29.0076L64.2744 29.1603L88.5492 37.7099C90.8393 38.4732 93.1294 36.7939 93.1294 34.5038Z" fill="#D1D2BD"/>
<path d="M14.8088 7.17567H68.8546C68.8546 5.49628 67.4805 3.81689 65.4958 3.81689H11.45C7.17518 3.81689 3.81641 7.32834 3.81641 11.4505V39.3894C3.81641 40.9161 4.73244 42.1375 6.10648 42.5955L6.86984 42.9009V15.1146C6.86984 10.6871 10.3813 7.17567 14.8088 7.17567Z" fill="#F2F2E2"/>
<path d="M64.2747 7.17554L27.3281 45.8015C26.4121 46.7175 25.0381 47.1755 23.664 46.7175L6.87012 40.916V42.9007L26.8701 49.771C28.0915 50.229 29.6182 49.9236 30.5342 48.8549L67.9388 9.61829C68.7022 8.85493 68.8548 7.9389 68.8548 7.17554H64.2747Z" fill="#A0A08F"/>
<path d="M27.3281 45.8015L64.2747 7.17554H14.809C10.3816 7.17554 6.87012 10.687 6.87012 15.1145V40.916L23.8167 46.7175C25.0381 47.1755 26.4121 46.8702 27.3281 45.8015Z" fill="#D1D2BD"/>
<path d="M36.4884 95.1145L41.2212 80.1527C41.6792 78.4733 43.2059 77.71 44.7326 77.71L43.5113 76.1833C41.8319 74.0459 38.3204 74.6565 37.5571 77.252L32.9769 91.7558C32.2136 94.0458 33.8929 96.1833 36.3357 96.1833H36.4884C36.3357 95.8779 36.3357 95.4199 36.4884 95.1145Z" fill="#F2F2E2"/>
<path d="M54.8092 90.6871L44.5802 77.71C44.4275 77.71 44.1222 77.71 43.9695 77.71L51.7558 87.6336C53.5878 89.9237 51.9085 93.1298 49.0077 93.1298H37.0993L36.4886 95.1145C36.3359 95.5726 36.3359 95.8779 36.3359 96.1832H52.0611C54.9619 96.1832 56.6413 92.9771 54.8092 90.6871Z" fill="#A0A08F"/>
<path d="M51.7561 87.6336L43.9698 77.71C42.7485 77.8626 41.6798 78.7787 41.2217 80.1527L37.0996 93.1298H49.008C51.9088 93.1298 53.5882 89.9237 51.7561 87.6336Z" fill="#D1D2BD"/>
<path d="M37.8629 55.8778L54.3514 38.4733C55.2674 37.4046 56.7942 37.0992 58.0155 37.5572L96.1835 50.9924C96.1835 49.4656 95.2674 48.2443 93.8934 47.7862L55.2674 34.3511C54.0461 33.8931 52.5194 34.1985 51.6033 35.2672L35.5728 51.9084C34.3514 53.1298 34.3514 55.1145 35.4201 56.3359L36.9468 58.3206C36.9468 57.5572 37.2522 56.6412 37.8629 55.8778Z" fill="#F2F2E2"/>
<path d="M93.13 49.9236V85.4961C93.13 89.7709 89.6186 93.1297 85.4964 93.1297H65.1911C64.7331 93.1297 64.4277 92.977 63.9697 92.8243L65.4964 94.8091C66.1071 95.5724 67.1758 96.1831 68.2445 96.1831H88.5499C92.8247 96.1831 96.1835 92.6717 96.1835 88.5495V50.9923L93.13 49.9236Z" fill="#A0A08F"/>
<path d="M85.4959 93.1299C89.7707 93.1299 93.1295 89.6184 93.1295 85.4963V49.9238L58.1677 37.71C56.7936 37.252 55.4196 37.5573 54.5035 38.626L37.8623 55.8779C37.2516 56.4886 36.9463 57.4047 36.9463 58.3207L63.9692 92.8245C64.4272 92.9772 64.7325 93.1299 65.1906 93.1299H85.4959Z" fill="#D1D2BD"/>
<path d="M85.6488 88.7022C87.7568 88.7022 89.4656 86.9934 89.4656 84.8854C89.4656 82.7774 87.7568 81.0686 85.6488 81.0686C83.5409 81.0686 81.832 82.7774 81.832 84.8854C81.832 86.9934 83.5409 88.7022 85.6488 88.7022Z" fill="#A0A08F"/>
<path d="M87.4805 79.5421C88.4923 79.5421 89.3126 78.7218 89.3126 77.71C89.3126 76.6982 88.4923 75.8779 87.4805 75.8779C86.4687 75.8779 85.6484 76.6982 85.6484 77.71C85.6484 78.7218 86.4687 79.5421 87.4805 79.5421Z" fill="#A0A08F"/>
<path d="M86.5648 34.0457C88.6728 34.0457 90.3816 32.3369 90.3816 30.2289C90.3816 28.1209 88.6728 26.4121 86.5648 26.4121C84.4569 26.4121 82.748 28.1209 82.748 30.2289C82.748 32.3369 84.4569 34.0457 86.5648 34.0457Z" fill="#A0A08F"/>
<path d="M88.5498 24.7327C89.5617 24.7327 90.3819 23.9125 90.3819 22.9007C90.3819 21.8888 89.5617 21.0686 88.5498 21.0686C87.538 21.0686 86.7178 21.8888 86.7178 22.9007C86.7178 23.9125 87.538 24.7327 88.5498 24.7327Z" fill="#A0A08F"/>
<path d="M24.8852 42.7481C26.9931 42.7481 28.7019 41.0393 28.7019 38.9313C28.7019 36.8233 26.9931 35.1145 24.8852 35.1145C22.7772 35.1145 21.0684 36.8233 21.0684 38.9313C21.0684 41.0393 22.7772 42.7481 24.8852 42.7481Z" fill="#A0A08F"/>
<path d="M30.5342 36.0306C31.546 36.0306 32.3663 35.2103 32.3663 34.1985C32.3663 33.1867 31.546 32.3665 30.5342 32.3665C29.5224 32.3665 28.7021 33.1867 28.7021 34.1985C28.7021 35.2103 29.5224 36.0306 30.5342 36.0306Z" fill="#A0A08F"/>
<path d="M18.1684 90.5345C20.2763 90.5345 21.9851 88.8256 21.9851 86.7177C21.9851 84.6097 20.2763 82.9009 18.1684 82.9009C16.0604 82.9009 14.3516 84.6097 14.3516 86.7177C14.3516 88.8256 16.0604 90.5345 18.1684 90.5345Z" fill="#A0A08F"/>
<path d="M21.8321 82.1375C22.8439 82.1375 23.6641 81.3173 23.6641 80.3054C23.6641 79.2936 22.8439 78.4734 21.8321 78.4734C20.8202 78.4734 20 79.2936 20 80.3054C20 81.3173 20.8202 82.1375 21.8321 82.1375Z" fill="#A0A08F"/>
<path d="M47.7862 91.2977C48.798 91.2977 49.6182 90.4774 49.6182 89.4656C49.6182 88.4538 48.798 87.6335 47.7862 87.6335C46.7743 87.6335 45.9541 88.4538 45.9541 89.4656C45.9541 90.4774 46.7743 91.2977 47.7862 91.2977Z" fill="#A0A08F"/>
</svg>
